<?xml version="1.0" encoding="utf-8"?>
<!-- Generator: Adobe Illustrator 24.1.0, SVG Export Plug-In . SVG Version: 6.00 Build 0)  -->
<svg version="1.1" id="Layer_1" xmlns="http://www.w3.org/2000/svg" xmlns:xlink="http://www.w3.org/1999/xlink" x="0px" y="0px"
	 viewBox="0 0 24 24" style="enable-background:new 0 0 24 24;" xml:space="preserve">
<style type="text/css">
	.st0{fill:#FFFFFF;}
</style>
<path class="st0" d="M20.7,7c-0.9-1.5-2.1-2.7-3.6-3.6C15.5,2.4,13.8,2,12,2S8.5,2.4,7,3.3C5.4,4.2,4.2,5.4,3.3,7S2,10.2,2,12
	s0.4,3.5,1.3,5c0.9,1.5,2.1,2.7,3.6,3.6c1.5,0.9,3.2,1.3,5,1.3s3.5-0.4,5-1.3c1.5-0.9,2.7-2.1,3.6-3.6c0.9-1.5,1.3-3.2,1.3-5
	S21.6,8.5,20.7,7z M12,3.7c2,0,3.8,0.6,5.3,1.9c-0.9,1.2-2.3,2.1-4.1,2.9c-1-1.8-2.1-3.3-3.3-4.5C10.6,3.8,11.3,3.7,12,3.7z
	 M5.5,6.8c0.8-0.9,1.7-1.7,2.7-2.2c1.2,1.2,2.3,2.7,3.3,4.5C9.6,9.7,7.4,10,5.2,10c-0.6,0-1,0-1.3,0C4.2,8.8,4.8,7.7,5.5,6.8z
	 M3.7,12c0-0.1,0-0.1,0-0.2s0-0.1,0-0.2c0.3,0,0.6,0,1.2,0c2.7,0,5.1-0.4,7.4-1.1c0.2,0.4,0.4,0.8,0.6,1.3c-1.3,0.3-2.7,1-4.1,2.1
	s-2.4,2.3-3,3.6C4.4,15.9,3.7,14.1,3.7,12z M12,20.3c-1.9,0-3.6-0.6-5.1-1.8c0.6-1.2,1.5-2.3,2.8-3.4c1.2-1.1,2.5-1.8,3.7-2
	c0.8,2.1,1.3,4.3,1.6,6.6C14,20.2,13,20.3,12,20.3z M19.1,16.4c-0.7,1.1-1.5,1.9-2.6,2.6c-0.2-2.1-0.7-4.1-1.4-6.1
	c0.9-0.1,1.8-0.1,2.5-0.1c0.8,0,1.7,0,2.7,0.1C20.1,14.2,19.7,15.3,19.1,16.4z M17.8,11.4c-1.2,0-2.2,0-3.2,0.1
	c-0.3-0.7-0.5-1.2-0.7-1.6c2.1-0.9,3.5-2,4.4-3.3c1.2,1.4,1.9,3,2,4.8C19.5,11.4,18.7,11.4,17.8,11.4z"/>
</svg>
