<?xml version="1.0" encoding="utf-8"?>
<!-- Generator: Adobe Illustrator 24.1.0, SVG Export Plug-In . SVG Version: 6.00 Build 0)  -->
<svg version="1.1" id="Layer_1" xmlns="http://www.w3.org/2000/svg" xmlns:xlink="http://www.w3.org/1999/xlink" x="0px" y="0px"
	 viewBox="0 0 24 24" style="enable-background:new 0 0 24 24;" xml:space="preserve">
<style type="text/css">
	.st0{fill:#FFFFFF;}
</style>
<path class="st0" d="M8.3,14.7c-0.2,0-0.3,0-0.4,0v1.2c0.1,0,0.2,0,0.3,0c0.5,0,0.8-0.2,0.8-0.7C9,14.9,8.7,14.7,8.3,14.7z
	 M11.8,14.7c-0.2,0-0.3,0-0.4,0v2.6c0.1,0,0.2,0,0.3,0c0.8,0,1.3-0.4,1.3-1.4C13,15.1,12.5,14.7,11.8,14.7z"/>
<path class="st0" d="M14,2H6C4.9,2,4,2.9,4,4v16c0,1.1,0.9,2,2,2h12c1.1,0,2-0.9,2-2V8L14,2z M9.5,16.2c-0.3,0.3-0.8,0.4-1.3,0.4
	c-0.1,0-0.2,0-0.3,0V18H7v-3.9C7.3,14,7.7,14,8.2,14c0.6,0,1,0.1,1.2,0.3c0.3,0.2,0.4,0.5,0.4,0.9C9.9,15.6,9.7,16,9.5,16.2z
	 M13.3,17.5c-0.4,0.3-1.1,0.5-1.8,0.5c-0.5,0-0.8,0-1-0.1v-3.9c0.3-0.1,0.8-0.1,1.2-0.1c0.8,0,1.2,0.1,1.6,0.4
	c0.4,0.3,0.7,0.8,0.7,1.5C14,16.7,13.7,17.2,13.3,17.5z M17,14.8h-1.5v0.9h1.4v0.7h-1.4V18h-0.9v-4H17V14.8z M14,9c-0.6,0-1,0-1,0V4
	l5,5H14z"/>
</svg>
