<?xml version="1.0" encoding="utf-8"?>
<!-- Generator: Adobe Illustrator 24.0.3, SVG Export Plug-In . SVG Version: 6.00 Build 0)  -->
<svg version="1.1" id="Layer_1" xmlns="http://www.w3.org/2000/svg" xmlns:xlink="http://www.w3.org/1999/xlink" x="0px" y="0px"
	 viewBox="0 0 512 512" style="fill: #fff;" xml:space="preserve">
<g>
	<path class="white" d="M446.3,140c-1.2-2.9-2.7-5.7-4.7-8.1L329.7,9.3c-2.5-2.8-5.6-4.8-8.9-6.5c-3.9-2-8.1-2.8-12.7-2.8H94.5
		C78,0,64.2,14.2,64.2,31.9v447.6c0,17.9,13.8,33.3,30.3,33.3h324.6c16.6,0,29.6-15.4,29.6-33.3v-326
		C448.8,148.8,448.1,144.1,446.3,140z M128.3,152.5c0-2,2.4-2.8,4.5-2.8h94.5c2.1,0,3.7,0.8,3.7,2.8v14.4c0,1.9-1.5,4.1-3.7,4.1
		h-94.5c-2.1,0-4.5-2.3-4.5-4.1V152.5z M128.3,323.4c0-2,2.4-2.8,4.5-2.8H296c2.1,0,3.2,0.8,3.2,2.8v14.4c0,1.9-0.9,4.1-3.2,4.1
		H132.8c-2.1,0-4.5-2.3-4.5-4.1V323.4z M342,423.3c0,1.9-0.9,4.1-3.2,4.1H132.8c-2.1,0-4.5-2.3-4.5-4.1v-14.4c0-2,2.4-2.8,4.5-2.8
		h205.9c2.1,0,3.2,0.8,3.2,2.8L342,423.3L342,423.3z M384.7,252.4c0,1.9-0.9,4.1-3.2,4.1H132.8c-2.1,0-4.5-2.3-4.5-4.1V238
		c0-2,2.4-2.8,4.5-2.8h248.7c2.1,0,3.2,0.8,3.2,2.8L384.7,252.4L384.7,252.4z M322.1,151c-7.5,0-14.8-6.9-14.8-15.1V47.8L402.3,151
		H322.1z"/>
</g>
</svg>
