<?xml version="1.0" encoding="utf-8"?>
<!-- Generator: Adobe Illustrator 24.1.0, SVG Export Plug-In . SVG Version: 6.00 Build 0)  -->
<svg version="1.1" id="Layer_1" xmlns="http://www.w3.org/2000/svg" xmlns:xlink="http://www.w3.org/1999/xlink" x="0px" y="0px"
	 viewBox="0 0 152 102" style="enable-background:new 0 0 152 102;" xml:space="preserve">
<style type="text/css">
	.st0{fill:#0E8743;}
	.st1{fill:none;stroke:#0E8743;stroke-width:2;stroke-miterlimit:10;}
	.st2{fill:none;stroke:#0E8743;stroke-width:4;stroke-miterlimit:10;}
	.st3{fill:none;stroke:#0E8743;stroke-miterlimit:10;}
</style>
<g id="XMLID_5961_">
	<g id="XMLID_5971_">
		<path id="XMLID_2835_" class="st1" d="M148.6,54.1c-8.3,16.2-37.7,28.1-72.6,28.1c-39.3,0-71.6-15.1-74.7-34.4
			c-0.2-1-0.3-2.1-0.3-3.1c0-1.1,0.1-2.1,0.3-3.1c0.2,1.1,0.4,2.1,0.8,3.1v0c0.4,1.1,0.8,2.1,1.3,3.1C3.9,48.9,4.5,50,5.3,51
			C15.6,65.6,43.3,76,76,76s60.4-10.4,70.7-25C147.5,52,148.1,53.1,148.6,54.1z"/>
		<path id="XMLID_2839_" class="st1" d="M150,57.2L150,57.2c-6,17.7-36.8,31.2-74,31.2c-39.3,0-71.6-15.1-74.7-34.4
			C1.1,53.1,1,52.1,1,51c0-1.1,0.1-2.1,0.3-3.1C4.4,67.1,36.7,82.2,76,82.2c34.9,0,64.3-12,72.6-28.1
			C149.2,55.2,149.6,56.2,150,57.2z"/>
		<path id="XMLID_2841_" class="st1" d="M150.7,60.4C150.7,60.4,150.7,60.4,150.7,60.4c-3.2,19.3-35.4,34.4-74.7,34.4
			c-39.3,0-71.6-15.1-74.7-34.4c-0.2-1-0.3-2.1-0.3-3.1s0.1-2.1,0.3-3.1C4.4,73.4,36.7,88.5,76,88.5c37.2,0,68-13.5,74-31.2
			C150.3,58.3,150.6,59.3,150.7,60.4z"/>
		<path id="XMLID_2840_" class="st1" d="M151,63.5c0,20.7-33.6,37.5-75,37.5S1,84.2,1,63.5c0-1.1,0.1-2.1,0.3-3.1
			C4.4,79.6,36.7,94.8,76,94.8c39.3,0,71.6-15.1,74.7-34.4C150.9,61.4,151,62.4,151,63.5z"/>
	</g>
	<g id="XMLID_5962_">
		<path id="XMLID_2836_" class="st1" d="M151,57.2c0,1.1-0.1,2.1-0.3,3.1c-0.2-1.1-0.4-2.1-0.8-3.1v0c-0.4-1.1-0.8-2.1-1.3-3.1
			c-0.5-1.1-1.2-2.1-1.9-3.1C136.4,36.4,108.7,26,76,26S15.6,36.4,5.3,51c-0.7-1-1.4-2.1-1.9-3.1C11.7,31.7,41.1,19.8,76,19.8
			c39.3,0,71.6,15.1,74.7,34.4C150.9,55.2,151,56.2,151,57.2z"/>
		<path id="XMLID_2830_" class="st1" d="M151,51c0,1.1-0.1,2.1-0.3,3.1c-3.2-19.2-35.4-34.4-74.7-34.4c-34.9,0-64.3,12-72.6,28.1
			c-0.5-1-1-2.1-1.3-3.1v0C8,27,38.8,13.5,76,13.5c39.3,0,71.6,15.1,74.7,34.4C150.9,48.9,151,49.9,151,51z"/>
		<path id="XMLID_2829_" class="st1" d="M151,44.7c0,1.1-0.1,2.1-0.3,3.1c-3.2-19.2-35.4-34.4-74.7-34.4C38.8,13.5,8,27,2,44.7
			c-0.3-1-0.6-2.1-0.8-3.1c0,0,0,0,0,0C4.4,22.4,36.7,7.2,76,7.2c39.3,0,71.6,15.1,74.7,34.4C150.9,42.7,151,43.7,151,44.7z"/>
		<path id="XMLID_2813_" class="st1" d="M151,38.5c0,1.1-0.1,2.1-0.3,3.1C147.6,22.4,115.3,7.2,76,7.2C36.7,7.2,4.4,22.4,1.3,41.6
			c-0.2-1-0.3-2.1-0.3-3.1C1,17.8,34.6,1,76,1S151,17.8,151,38.5z"/>
	</g>
</g>
</svg>
