<svg xmlns="http://www.w3.org/2000/svg" viewBox="0 0 149.788 149.999"><path d="M149.788,150V148.31A31.024,31.024,0,0,1,139.914,150h9.874m0-6.595v-7.755c-11.752,10.161-19.283,13.782-29.847,14.35h9.986c7.2-.428,11.28-1.488,19.861-6.595m0-18v-12.36c-19.8,25.768-33.767,36.128-49.821,36.951h9.987c22.877-1.359,39.747-24.363,39.834-24.591m0-26.475V83.427c-29.455,46.893-49.024,65.558-69.8,66.572H89.98c31.638-1.88,59.659-50.582,59.808-51.066m0-31.84V51.55c-10.36,15.707-19.617,32.11-30.171,47.7-10.308,15.222-17.026,23.175-20.114,26.561C84.182,142.609,73.112,149.392,60.02,150h9.987c38.567-2.291,79.556-82.111,79.781-82.906m0-29.709V24.961c-26.662,31.442-43.157,69.965-70.4,101C59.026,149.167,45.726,149.75,40.047,150h9.986c9.217-.548,20.687-2.979,40.228-25.04,8.5-9.592,18.647-23.893,30.171-42.507,15.356-24.8,15.356-24.8,16.762-26.961,4.014-6.164,10.2-10.816,12.594-18.107m0-22.739V6.8c-11.246,7.83-25.592,20.059-53.637,66.332C67.859,119.815,45.264,148.956,20.074,150H30.06C48.429,148.908,68,136.073,103.811,76.98c16.544-27.3,30.006-47.249,45.977-62.335m0-12.845V0c-18.313,1.225-37.864,14.17-73.751,73.366C47.8,119.952,25.241,149.021.1,150h9.987c18.369-1.091,37.94-13.926,73.751-73.019,24.327-40.143,43.845-66.722,65.95-75.18M139.8,0h-9.987C111.5,1.225,91.951,14.17,56.064,73.366,35.668,107.01,19.174,130.461,0,143.4v4.908c14.044-5.477,31.48-17.874,63.694-71.044C92.035,30.484,114.652,1.243,139.8,0M119.828,0h-9.986C103.13.449,90.636,1.285,69.614,25.283,42.663,56.05,26.614,94.393,0,125.394v10.244c6.864-6.511,19.642-18.63,43.58-58.145C71.976,30.621,94.636,1.308,119.828,0M99.854,0H89.868C84.356.369,71.449,1.232,52.993,21.547A223.912,223.912,0,0,0,32.879,47.234C21.334,64.089,11.288,81.9,0,98.914v14.117c21.169-28.8,36.5-61.58,60.341-88.564C81.052,1.022,93.752.332,99.854,0M79.881,0H69.9C48.922,1.4,29.325,20.209,0,67.073V83.408C25.838,41.381,50.243,1.685,79.881,0M59.908,0H49.921C36.381.906,22.71,7.607,0,37.367V51.531C24.483,15.553,41.279,1.105,59.908,0M39.935,0H29.948C20.656.622,13.132,3.138,0,14.634V24.946C15.661,7.592,26.484.831,39.935,0M19.962,0H9.974A31.066,31.066,0,0,0,0,1.8v5C8.167,1.891,12.272.494,19.962,0" fill="#0e8743"/></svg>