<svg xmlns="http://www.w3.org/2000/svg" viewBox="0 0 141.436 150.592"><path d="M56.617,34.213c4.812-.349,9.6-.527,14.236-.53a228.749,228.749,0,0,1,35.512,3.052c1.13.168,2.311.346,3.517.543q-.951-.54-1.982-1.048a56.909,56.909,0,0,0-5.782-2.423,87.808,87.808,0,0,0-31.261-5.37,100.527,100.527,0,0,0-12.751.792,82.864,82.864,0,0,0-12.958,2.72,78.312,78.312,0,0,0-11.329,4.284q-1.052.516-2.037,1.079c1.251-.207,2.466-.391,3.563-.556C39.859,36.082,46.916,34.932,56.617,34.213Z" fill="#0e8743"/><path d="M51.253,65.822c6.423.034,13.065.07,19.6.07s13.181-.041,19.608-.079c6.257-.036,12.728-.073,19.1-.078,12.452,0,12.1.041,21.294.244.981.021,1.994.043,2.99.057l.749.008c.376,0,.755.009,1.135.012-.849-.22-1.731-.452-2.655-.7-1-.27-2.016-.536-3-.793L128.7,64.2c-1.3-.339-2.72-.694-4.347-1.087-4.429-1.069-7.766-1.723-17.612-2.8a333.02,333.02,0,0,0-35.886-2A332.987,332.987,0,0,0,34.963,60.3c-1.336.146-2.8.314-4.466.516A101.83,101.83,0,0,0,17.348,63.09c-4.649,1.119-7.427,1.915-11.616,3,.461,0,.919-.009,1.371-.015l.757-.008c7.515-.1,7.3-.3,24.28-.312C38.517,65.753,44.992,65.788,51.253,65.822Z" fill="#0e8743"/><path d="M59.351,22.134c3.9-.217,7.823-.238,11.5-.24,3.907,0,7.727.016,11.506.221a78.655,78.655,0,0,1,15.352,2.23,34.224,34.224,0,0,0-7.35-3.358,50.006,50.006,0,0,0-9.606-2.074,81.039,81.039,0,0,0-9.908-.558h-.03a80.886,80.886,0,0,0-9.878.55c-6,.735-12,2.33-17.092,5.5A78.76,78.76,0,0,1,59.351,22.134Z" fill="#0e8743"/><path d="M70.857,27.329a152.669,152.669,0,0,1,32.716,3.307,48.754,48.754,0,0,0-6.367-3.166c-.382-.162-.745-.306-1.313-.533-.436-.174-.881-.336-1.325-.506s-.876-.312-1.323-.47a52.966,52.966,0,0,0-11.006-2.392A98.437,98.437,0,0,0,70.856,23h0a97.692,97.692,0,0,0-11.377.569,53.269,53.269,0,0,0-11.022,2.376A55.067,55.067,0,0,0,38.032,30.7a148.124,148.124,0,0,1,19.927-2.9C62.075,27.486,66.294,27.333,70.857,27.329Z" fill="#0e8743"/><path d="M70.85,40.938a307.369,307.369,0,0,1,30.969,1.645c2.441.245,4.971.52,7.735.841,2.22.259,4.781.566,7.329.96-.465-.253-.964-.509-1.5-.771-.875-.423-1.839-.84-3.124-1.351-2.335-.914-4.764-1.657-6.619-2.2a122.008,122.008,0,0,0-20.688-4.4,119.522,119.522,0,0,0-14.1-.872,117.851,117.851,0,0,0-14.1.857A122.418,122.418,0,0,0,36.068,40.04c-1.851.544-4.276,1.286-6.619,2.206a40.156,40.156,0,0,0-4.721,2.176c2.574-.4,5.172-.714,7.421-.977,2.776-.324,5.305-.6,7.734-.846A307.545,307.545,0,0,1,70.85,40.938Z" fill="#0e8743"/><path d="M88.875,57.368c9.2.154,21.143.491,27.068.653,1.472.043,2.888.134,4.585.249,1.757.135,3.2.26,4.557.391.93.083,1.874.179,2.787.271q.866.088,1.731.173l.8.077c-.815-.394-1.607-.771-2.4-1.124a41.334,41.334,0,0,0-7.551-2.514c-2.474-.6-5.079-1.075-7.6-1.534l-.531-.1c-7.72-1.425-12.151-2.047-18.57-2.756-.7-.077-1.4-.141-2.075-.208-1.548-.15-2.907-.267-4.154-.36-5.4-.423-11.007-.642-16.675-.651a221.067,221.067,0,0,0-33.244,2.544c-4.153.641-6.219,1.048-9.632,1.673-9.015,1.65-11.169,2.382-16.784,5.064l.912-.088c2.309-.224,8.886-.948,13.657-1.089l9.9-.273c5.627-.145,11.446-.294,17.166-.393,5.994-.11,12.058-.169,18.024-.174S82.883,57.261,88.875,57.368Z" fill="#0e8743"/><path d="M91.639,18.634a30.01,30.01,0,0,0-4.4-1.908,41.813,41.813,0,0,0-8.055-1.87,61.738,61.738,0,0,0-8.336-.529h-.019a61.715,61.715,0,0,0-8.318.522,41.816,41.816,0,0,0-8.058,1.861,30.1,30.1,0,0,0-4.515,1.965,117.753,117.753,0,0,1,20.91-1.428A118.647,118.647,0,0,1,91.639,18.634Z" fill="#0e8743"/><path d="M65.192,2.155c-.208.2-.393.393-.56.585l6.216-.033,6.178.019c-.158-.18-.334-.363-.531-.554a9.073,9.073,0,0,0-.847-.686,9.094,9.094,0,0,0-.9-.546,8.414,8.414,0,0,0-3.9-.94h0a8.409,8.409,0,0,0-3.9.926,8.942,8.942,0,0,0-.9.544A9.116,9.116,0,0,0,65.192,2.155Z" fill="#0e8743"/><path d="M70.85,13.219a114.6,114.6,0,0,1,15.866.871A26.248,26.248,0,0,0,84,12.9a33.19,33.19,0,0,0-6.447-1.669,43.092,43.092,0,0,0-6.7-.512h-.012a43.092,43.092,0,0,0-6.689.5A33.229,33.229,0,0,0,57.7,12.885a26.3,26.3,0,0,0-2.821,1.236A114.14,114.14,0,0,1,70.85,13.219Z" fill="#0e8743"/><path d="M70.894,48.83c18.325,0,33.775,1.152,41.846,1.7q1.223.077,2.457.147c1.951.114,3.968.231,5.984.408.349.03.7.062,1.059.1a55.49,55.49,0,0,0-5.955-2.343A137.485,137.485,0,0,0,101.444,45.1a155.156,155.156,0,0,0-61.191-.017,137.616,137.616,0,0,0-14.845,3.736,54.888,54.888,0,0,0-6.085,2.4c2.108-.215,4.6-.359,6.6-.474,5.817-.333,15.314-1.155,28.177-1.6,5.426-.2,11.063-.3,16.754-.311Z" fill="#0e8743"/><path d="M29.444,74.041c6.614.238,13.385.413,20.7.534,6.776.112,13.74.167,20.7.167s13.925-.06,20.7-.175c7.323-.125,14.1-.3,20.7-.543,3.535-.127,7.017-.271,10.35-.43,3.739-.178,7.125-.359,10.35-.555l1.831-.115c1.1-.069,2.229-.139,3.344-.217l1.409-.1,1.9-.134c-1.109-.169-2.18-.337-3.23-.5l-4.814-.776c-7.49-1.221-11.4-1.718-14.322-2.037-3.051-.327-6.283-.623-9.606-.879-6.119-.469-12.428-.8-19.289-1C84.277,67.093,77.956,67,70.85,67s-13.429.087-19.325.265c-6.863.2-13.172.529-19.289,1-3.324.255-6.556.549-9.608.876-2.856.31-5.976.727-9.537,1.275l-1.441.226c-1.1.171-2.229.347-3.344.529l-4.814.774c-1.139.182-2.3.362-3.492.543.726.053,1.449.1,2.159.152.47.033.941.065,1.411.1,1.115.076,2.25.147,3.348.215q.912.055,1.825.114c3.222.194,6.607.374,10.35.551C22.429,73.772,25.911,73.916,29.444,74.041Z" fill="#0e8743"/><path d="M61.575,6.506c3.161-.305,6.207-.455,9.275-.457,3.046,0,6.07.14,9.2.435-.24-.159-.493-.319-.761-.484-.48-.265-1-.525-1.582-.795a17.445,17.445,0,0,0-6.861-1.39A16.624,16.624,0,0,0,61.575,6.506Z" fill="#0e8743"/><path d="M70.85,9.612h.018a103.19,103.19,0,0,1,12.331.641,21.639,21.639,0,0,0-2.41-1.171,26.293,26.293,0,0,0-9.94-1.925,25.428,25.428,0,0,0-12.434,3.122A102.765,102.765,0,0,1,70.85,9.612Z" fill="#0e8743"/><path d="M57.959,122.8a147.238,147.238,0,0,1-19.927-2.9,55.021,55.021,0,0,0,10.421,4.749,53.269,53.269,0,0,0,11.022,2.376,97.643,97.643,0,0,0,11.373.569h.008a98.406,98.406,0,0,0,11.382-.567,52.352,52.352,0,0,0,11.44-2.543c.713-.247.655-.232,1.342-.49.652-.246.707-.269,1.2-.467.323-.129.657-.262.98-.4.454-.187.888-.374,1.293-.556a46.275,46.275,0,0,0,5.077-2.611,152.643,152.643,0,0,1-32.715,3.307C66.294,123.26,62.075,123.107,57.959,122.8Z" fill="#0e8743"/><path d="M70.85,137.374a114.14,114.14,0,0,1-15.971-.9,26.387,26.387,0,0,0,2.821,1.236,33.221,33.221,0,0,0,6.45,1.661,42.636,42.636,0,0,0,6.7.5,43.071,43.071,0,0,0,6.7-.513A33.143,33.143,0,0,0,84,137.692a26.369,26.369,0,0,0,2.72-1.189A114.739,114.739,0,0,1,70.85,137.374Z" fill="#0e8743"/><path d="M141.435,78.118c-.639-.046-1.274-.091-1.9-.134-.469-.033-.938-.065-1.406-.1-1.111-.077-2.242-.147-3.336-.215l-1.839-.116c-3.218-.2-6.6-.377-10.348-.555-3.332-.159-6.814-.3-10.351-.43-6.61-.241-13.382-.418-20.7-.543-6.776-.115-13.742-.174-20.7-.176s-13.931.056-20.7.168c-7.322.121-14.094.3-20.7.534-3.537.125-7.02.269-10.35.426-3.745.176-7.13.356-10.35.551q-.913.059-1.829.114c-1.1.068-2.231.138-3.346.215q-.711.051-1.423.1c-.7.049-1.423.1-2.143.151,1.194.181,2.351.362,3.489.544l4.813.774c1.115.181,2.247.357,3.341.528l1.446.226c3.563.549,6.683.966,9.537,1.276,3.052.327,6.284.621,9.606.876,6.118.466,12.428.792,19.289,1,5.9.178,12.218.265,19.326.265s13.428-.093,19.325-.274c6.863-.206,13.172-.535,19.288-1,3.326-.256,6.558-.552,9.607-.88,2.855-.311,5.975-.73,9.537-1.279l1.455-.229c1.091-.17,2.219-.347,3.329-.528l4.814-.776C139.257,78.454,140.328,78.287,141.435,78.118Z" fill="#0e8743"/><path d="M49.94,131.918a30.13,30.13,0,0,0,4.514,1.965,41.844,41.844,0,0,0,8.059,1.861,61.66,61.66,0,0,0,8.313.522h.024a61.753,61.753,0,0,0,8.336-.53,37.05,37.05,0,0,0,12.453-3.778,118.276,118.276,0,0,1-20.789,1.388A117.743,117.743,0,0,1,49.94,131.918Z" fill="#0e8743"/><path d="M70.856,128.7c-3.682,0-7.6-.022-11.5-.24a82.658,82.658,0,0,1-11.542-1.386c-1.5-.308-2.395-.506-3.959-.882a34.224,34.224,0,0,0,7.483,3.43,50.084,50.084,0,0,0,9.609,2.067,81.61,81.61,0,0,0,9.908.55,81.21,81.21,0,0,0,9.907-.558,50.081,50.081,0,0,0,9.606-2.074,34.21,34.21,0,0,0,7.351-3.358,78.689,78.689,0,0,1-15.352,2.23C78.581,128.684,74.761,128.7,70.856,128.7Z" fill="#0e8743"/><path d="M75.654,149.1a9.193,9.193,0,0,0,.848-.688c.194-.188.367-.369.524-.548l-6.175.019-6.219-.033c.169.194.356.389.567.592a9.219,9.219,0,0,0,.848.682,8.842,8.842,0,0,0,.9.542,8.392,8.392,0,0,0,3.9.924h0a8.417,8.417,0,0,0,3.9-.942A9.111,9.111,0,0,0,75.654,149.1Z" fill="#0e8743"/><path d="M79.292,144.592c.268-.165.521-.325.761-.484-3.133.295-6.158.438-9.2.436-3.069,0-6.115-.152-9.275-.457.259.172.534.346.827.525.48.264,1,.523,1.584.792a17.734,17.734,0,0,0,13.727-.018C78.3,145.116,78.814,144.856,79.292,144.592Z" fill="#0e8743"/><path d="M70.85,140.981a102.765,102.765,0,0,1-12.435-.667,21.729,21.729,0,0,0,2.491,1.213,26.737,26.737,0,0,0,19.883-.016,21.909,21.909,0,0,0,2.41-1.172A102.6,102.6,0,0,1,70.85,140.981Z" fill="#0e8743"/><path d="M52.825,93.217c-5.956-.1-12.027-.261-18.032-.415-10.462-.291-9.751-.239-13.618-.5-4.139-.321-5.967-.536-9.986-.927a52.828,52.828,0,0,0,6.186,2.62c1.084.362,2.276.7,3.862,1.086,2.64.634,5.442,1.116,8.143,1.617,2.025.374,4.281.806,8.226,1.415a221.067,221.067,0,0,0,33.244,2.544c5.668-.009,11.278-.228,16.674-.651,2.079-.154,3.872-.334,4.809-.424,1.162-.113,1.014-.1,3.5-.374,7.11-.831,12-1.7,16.493-2.526l.534-.1c2.518-.459,5.123-.933,7.6-1.534a45.513,45.513,0,0,0,5.734-1.749c.547-.211,1.125-.454,1.814-.763.8-.354,1.589-.731,2.4-1.125l-.805.077c-.578.056-1.157.115-1.736.173-.911.093-1.853.188-2.785.271-7.344.713-10,.663-19.061.909-5.621.142-11.433.288-17.146.384-5.993.107-12.057.163-18.024.166S58.819,93.327,52.825,93.217Z" fill="#0e8743"/><path d="M90.468,84.78c-6.431-.038-13.08-.076-19.618-.079s-13.161.036-19.579.07c-6.267.034-12.748.069-19.131.071-3.681,0-6.765-.012-9.7-.028-2.846-.021-5.731-.09-8.521-.157-.937-.023-4.7-.112-6.814-.136-.452,0-.91-.011-1.37-.015,2.575.665,2.643.7,5.886,1.549L13,86.418c1.3.338,2.72.693,4.347,1.085A101.665,101.665,0,0,0,30.5,89.78a334.838,334.838,0,0,0,40.352,2.5,333.048,333.048,0,0,0,35.886-2c1.333-.146,2.793-.315,4.466-.518a101.728,101.728,0,0,0,13.146-2.283c1.624-.392,3.046-.747,4.347-1.087l1.374-.361c.983-.258,2-.525,3-.8.924-.246,1.806-.478,2.657-.7l-1.136.013-.75.008c-.992.013-2,.036-2.983.057q-.929.021-1.859.039l-1.193.028c-6.194.146-7.43.174-18.247.177C103.189,84.853,96.722,84.816,90.468,84.78Z" fill="#0e8743"/><path d="M70.854,116.91c-4.637,0-9.426-.182-14.237-.53-4.586-.34-9.364-.846-14.2-1.5-2.853-.4-8.414-1.229-10.632-1.6A52.408,52.408,0,0,0,39.6,116.8a83.048,83.048,0,0,0,18.5,4.567,100.548,100.548,0,0,0,12.753.792,87.867,87.867,0,0,0,31.259-5.37,56.8,56.8,0,0,0,5.782-2.424q1.029-.505,1.983-1.047c-1.207.2-2.387.374-3.517.542A228.485,228.485,0,0,1,70.854,116.91Z" fill="#0e8743"/><path d="M70.85,109.655a307.251,307.251,0,0,1-30.968-1.662c-2.429-.245-4.958-.521-7.733-.845-2.353-.275-4.859-.577-7.421-.977.492.27,1.022.543,1.6.822.877.425,1.841.843,3.126,1.354,2.342.919,4.767,1.662,6.618,2.206,1.014.3,2.129.614,3.407.968,1.129.311,2.276.61,3.409.889a120.409,120.409,0,0,0,13.873,2.535,118.038,118.038,0,0,0,14.1.857,119.518,119.518,0,0,0,14.1-.872,122.341,122.341,0,0,0,20.688-4.4c1.854-.545,4.283-1.287,6.62-2.2,1.284-.51,2.247-.927,3.124-1.351.538-.262,1.037-.517,1.5-.771-2.547.394-5.108.7-7.328.96-2.764.322-5.294.6-7.735.842A307.663,307.663,0,0,1,70.85,109.655Z" fill="#0e8743"/><path d="M70.85,101.763c-5.692-.008-11.329-.112-16.755-.311-13.066-.455-21.914-1.244-28.175-1.6-1.758-.1-3.575-.206-5.393-.363q-.6-.05-1.2-.111a54.985,54.985,0,0,0,6.084,2.4c2.068.684,4.331,1.321,7.338,2.065,2.483.614,5.008,1.176,7.507,1.671a157.825,157.825,0,0,0,30.6,3.037,157.737,157.737,0,0,0,30.594-3.054c2.5-.5,5.023-1.059,7.5-1.675,3-.745,5.267-1.383,7.336-2.07a55.268,55.268,0,0,0,5.954-2.342c-.356.036-.71.068-1.06.1-2.012.176-4.028.294-5.977.407q-1.236.072-2.464.148C104.715,100.608,89.214,101.765,70.85,101.763Z" fill="#0e8743"/></svg>