<svg xmlns="http://www.w3.org/2000/svg" viewBox="0 0 151.959 168.178"><path d="M147.854,136.831a24.429,24.429,0,0,1,4.1,3.7,22.839,22.839,0,0,0-5.14-.882,1.571,1.571,0,0,1,.16-3.137,1.555,1.555,0,0,1,.831.29Z" fill="#0e8743"/><path d="M136.772,127.209a23.846,23.846,0,0,1,8.129,1.1,25.9,25.9,0,0,1,7.058,3.671,25.113,25.113,0,0,0-7.389-2.208,21.559,21.559,0,0,0-7.436.419,1.507,1.507,0,1,1-.663-2.941,1.471,1.471,0,0,1,.276-.036Z" fill="#0e8743"/><path d="M125.824,122.9a29.92,29.92,0,0,1,13.323-3.5,22.078,22.078,0,0,1,6.757,1.088,25.677,25.677,0,0,1,6.055,2.936,25.321,25.321,0,0,0-6.247-2.211,20.966,20.966,0,0,0-6.488-.315,27.688,27.688,0,0,0-11.911,4.609,1.5,1.5,0,0,1-1.637-2.52A1.7,1.7,0,0,1,125.824,122.9Z" fill="#0e8743"/><path d="M115.157,122.784a68.515,68.515,0,0,1,8.1-6.158,37.329,37.329,0,0,1,9.227-4.375,23.6,23.6,0,0,1,10.108-.881,24.115,24.115,0,0,1,9.365,3.5,23.711,23.711,0,0,0-9.441-2.751,22.457,22.457,0,0,0-9.546,1.553,35.494,35.494,0,0,0-8.435,4.807,66.027,66.027,0,0,0-7.326,6.494,1.5,1.5,0,0,1-2.136-2.11C115.1,122.835,115.13,122.808,115.157,122.784Z" fill="#0e8743"/><path d="M104.639,125.9c3.034-3.519,6.161-7.015,9.556-10.254a61.349,61.349,0,0,1,11.118-8.639,29.256,29.256,0,0,1,13.335-4.326,23.124,23.124,0,0,1,13.311,3.632A22.738,22.738,0,0,0,138.7,103.43a28.143,28.143,0,0,0-12.6,4.852,59.563,59.563,0,0,0-10.314,8.95c-3.136,3.335-6.008,6.914-8.83,10.568a1.5,1.5,0,0,1-2.375-1.835C104.6,125.945,104.622,125.92,104.639,125.9Z" fill="#0e8743"/><path d="M94.189,131.386c3.6-4.9,7.219-9.834,11.145-14.542a98.985,98.985,0,0,1,12.926-13.081,61.012,61.012,0,0,1,7.5-5.354A30.9,30.9,0,0,1,134.29,94.9a22.756,22.756,0,0,1,9.161-.372,23.881,23.881,0,0,1,8.508,3.236A23.667,23.667,0,0,0,143.4,94.9a22.172,22.172,0,0,0-8.918.726,29.955,29.955,0,0,0-8.13,3.747,59.915,59.915,0,0,0-7.112,5.532,97.13,97.13,0,0,0-12.147,13.35c-3.672,4.792-7.053,9.813-10.447,14.86a1.5,1.5,0,1,1-2.49-1.674C94.163,131.421,94.178,131.4,94.189,131.386Z" fill="#0e8743"/><path d="M83.775,138.38c4.269-6.324,8.493-12.716,13.022-18.912a157.389,157.389,0,0,1,14.752-17.685A96.569,96.569,0,0,1,120.059,94a45.382,45.382,0,0,1,9.845-6.031,25.765,25.765,0,0,1,11.249-2.294,21.514,21.514,0,0,1,10.806,3.531,21.32,21.32,0,0,0-10.816-3.156,25.206,25.206,0,0,0-10.93,2.6,44.375,44.375,0,0,0-9.442,6.219,95.27,95.27,0,0,0-8.135,7.944,155.72,155.72,0,0,0-14,17.949c-4.285,6.283-8.277,12.776-12.346,19.252a1.5,1.5,0,0,1-2.541-1.6Z" fill="#0e8743"/><path d="M73.384,146.019c5.074-7.705,10.014-15.529,15.212-23.2a250.8,250.8,0,0,1,16.659-22.277q4.5-5.319,9.462-10.214A63.921,63.921,0,0,1,125.669,81.7c1.022-.56,2-1.2,3.073-1.665l1.577-.753,1.636-.623a29.1,29.1,0,0,1,3.344-1.016c.562-.151,1.149-.2,1.722-.3a11.61,11.61,0,0,1,1.732-.214,21.1,21.1,0,0,1,13.206,3.528A20.911,20.911,0,0,0,138.786,77.5a11.369,11.369,0,0,0-1.7.256c-.56.118-1.132.18-1.681.344a28.282,28.282,0,0,0-3.254,1.086l-1.587.653-1.53.783c-1.037.486-1.986,1.141-2.974,1.717C118.342,87.344,112.2,94.371,106.41,101.5a249.135,249.135,0,0,0-15.934,22.557c-4.962,7.771-9.682,15.712-14.564,23.583a1.5,1.5,0,1,1-2.55-1.582Z" fill="#0e8743"/><path d="M63.013,153.432c12.143-17.863,23.15-36.652,36.435-53.883q4.959-6.47,10.374-12.572A83.97,83.97,0,0,1,121.712,75.8c4.344-3.251,9.254-6,14.659-6.964a20.614,20.614,0,0,1,8.125.113,22.56,22.56,0,0,1,7.463,3.148,22.443,22.443,0,0,0-7.5-2.964,20.3,20.3,0,0,0-8.018.072c-5.294,1.071-10.06,3.883-14.273,7.189a83.269,83.269,0,0,0-11.5,11.324c-3.5,4.11-6.834,8.369-10.02,12.732-12.81,17.43-23.336,36.386-35.133,54.639a1.5,1.5,0,1,1-2.52-1.628Z" fill="#0e8743"/><path d="M52.668,159.743c7.346-9.871,14.154-20.164,20.882-30.526s13.434-20.772,20.659-30.834c3.608-5.031,7.34-9.98,11.232-14.8A109.424,109.424,0,0,1,118.156,70.02a54.422,54.422,0,0,1,7.477-5.552,32.067,32.067,0,0,1,8.507-3.761,23.925,23.925,0,0,1,4.593-.782,21.036,21.036,0,0,1,4.644.242,22.6,22.6,0,0,1,8.582,3.377,22.5,22.5,0,0,0-8.61-3.192,20.839,20.839,0,0,0-4.595-.146,23.616,23.616,0,0,0-4.513.862,31.6,31.6,0,0,0-8.31,3.877,53.852,53.852,0,0,0-7.276,5.635,108.514,108.514,0,0,0-12.333,13.707c-3.78,4.876-7.393,9.874-10.885,14.958-6.992,10.164-13.455,20.686-19.988,31.18S62.3,151.4,55.09,161.513a1.5,1.5,0,0,1-2.442-1.742Z" fill="#0e8743"/><path d="M42.366,164.067a294.654,294.654,0,0,0,24.685-32.8c7.6-11.435,14.824-23.157,22.554-34.565,3.864-5.709,7.886-11.3,11.983-16.835a130.771,130.771,0,0,1,13.45-15.714c4.949-4.768,10.52-9.172,17.1-11.47a26.478,26.478,0,0,1,5.036-1.22,21.887,21.887,0,0,1,5.173-.016,22.574,22.574,0,0,1,9.617,3.538,22.464,22.464,0,0,0-9.637-3.351,21.668,21.668,0,0,0-5.115.107,26.143,26.143,0,0,0-4.949,1.3c-6.444,2.383-11.874,6.835-16.693,11.649A129.822,129.822,0,0,0,102.5,80.537c-3.984,5.6-7.9,11.247-11.64,17-7.5,11.509-14.5,23.349-21.919,34.964a297.34,297.34,0,0,1-24.311,33.54,1.5,1.5,0,1,1-2.282-1.948l.013-.015Z" fill="#0e8743"/><path d="M32.15,165.516A114.083,114.083,0,0,0,47.64,149.75c4.692-5.734,8.992-11.811,13.177-17.984,8.426-12.321,16.4-24.951,24.669-37.416,4.144-6.228,8.374-12.392,12.746-18.467A153.7,153.7,0,0,1,112.51,58.546a91.7,91.7,0,0,1,8.306-7.577,43.772,43.772,0,0,1,9.617-5.81A25.778,25.778,0,0,1,141.4,43.01a21.65,21.65,0,0,1,10.56,3.426A21.553,21.553,0,0,0,141.392,43.2a25.518,25.518,0,0,0-10.81,2.306,43.3,43.3,0,0,0-9.415,5.906,90.993,90.993,0,0,0-8.116,7.656,152.882,152.882,0,0,0-13.9,17.47q-6.381,9.189-12.406,18.636c-8.046,12.572-15.815,25.354-24.054,37.844-4.094,6.262-8.33,12.471-13.005,18.383a116.956,116.956,0,0,1-15.609,16.42,1.5,1.5,0,0,1-1.952-2.279l.013-.012Z" fill="#0e8743"/><path d="M22.146,163.21a40.946,40.946,0,0,0,9.873-5.947,82.812,82.812,0,0,0,8.57-8.067,182.959,182.959,0,0,0,14.97-18.465C64.9,117.84,73.4,104.323,82.148,90.959c4.392-6.675,8.794-13.332,13.378-19.887a179.428,179.428,0,0,1,14.905-18.8c5.441-5.816,11.347-11.487,18.618-14.992a26.167,26.167,0,0,1,11.583-2.838,21.335,21.335,0,0,1,11.327,3.439,21.239,21.239,0,0,0-11.327-3.251,25.885,25.885,0,0,0-11.419,2.987c-7.138,3.579-12.9,9.288-18.227,15.16C100.354,64.665,92.044,78.372,83.41,91.771c-8.529,13.482-16.822,27.15-26.019,40.266a185.176,185.176,0,0,1-14.88,18.946,85.316,85.316,0,0,1-8.724,8.467,43.8,43.8,0,0,1-10.479,6.525,1.5,1.5,0,1,1-1.184-2.756Z" fill="#0e8743"/><path d="M12.428,156.461a23.637,23.637,0,0,0,11.532-2.409,43.332,43.332,0,0,0,10.091-6.883,113.822,113.822,0,0,0,8.789-8.875c2.8-3.106,5.463-6.339,8.033-9.649,5.145-6.622,9.881-13.574,14.543-20.587S74.654,93.971,79.251,86.9s9.24-14.116,14.062-21.039a220.4,220.4,0,0,1,15.345-20.146,111.138,111.138,0,0,1,8.889-9.036,50.723,50.723,0,0,1,10.317-7.349,34.63,34.63,0,0,1,5.858-2.434,25.516,25.516,0,0,1,6.251-1.02,20.941,20.941,0,0,1,11.986,3.451,20.842,20.842,0,0,0-11.98-3.264,25.279,25.279,0,0,0-6.175,1.1,34.337,34.337,0,0,0-5.764,2.5A50.257,50.257,0,0,0,117.926,37.1a110.414,110.414,0,0,0-8.7,9.111A219.519,219.519,0,0,0,94.241,66.5C89.531,73.478,85,80.577,80.514,87.71S71.561,102,66.985,109.085s-9.223,14.155-14.324,20.926c-2.549,3.385-5.2,6.7-8,9.9a116.354,116.354,0,0,1-8.862,9.213,55.277,55.277,0,0,1-5.022,4.084,36.927,36.927,0,0,1-5.6,3.379,26.549,26.549,0,0,1-12.918,2.868,1.5,1.5,0,1,1,.119-3h.01Z" fill="#0e8743"/><path d="M2.752,144.619a22.151,22.151,0,0,0,5.665,2.509,19.771,19.771,0,0,0,6.143.643,25.3,25.3,0,0,0,6.158-1.2,36.334,36.334,0,0,0,5.825-2.627,49.57,49.57,0,0,0,5.366-3.613c1.689-1.345,3.36-2.783,4.954-4.283a107.681,107.681,0,0,0,9.051-9.572,264.657,264.657,0,0,0,15.749-21.346c5.01-7.315,9.842-14.76,14.674-22.212s9.684-14.9,14.676-22.254a242.585,242.585,0,0,1,15.9-21.425,123.588,123.588,0,0,1,9.151-9.721,56.154,56.154,0,0,1,10.627-8.071A29.4,29.4,0,0,1,139.3,17.32a21.157,21.157,0,0,1,12.662,3.454,21.055,21.055,0,0,0-12.649-3.267,29.129,29.129,0,0,0-12.431,4.265,55.7,55.7,0,0,0-10.425,8.153,122.988,122.988,0,0,0-8.967,9.8A241.643,241.643,0,0,0,91.949,61.289C87.065,68.7,82.323,76.2,77.6,83.726S68.141,98.769,63.217,106.18a265.976,265.976,0,0,1-15.574,21.736,109.927,109.927,0,0,1-9.105,9.9c-1.619,1.566-3.295,3.053-5.06,4.5a52.087,52.087,0,0,1-5.622,3.9,38.929,38.929,0,0,1-6.262,2.928,28.058,28.058,0,0,1-6.861,1.432,22.627,22.627,0,0,1-7.055-.64,25.043,25.043,0,0,1-6.512-2.773,1.5,1.5,0,0,1,1.481-2.607l.013.007Z" fill="#0e8743"/><path d="M2.752,136.065A23.362,23.362,0,0,0,8.111,138.5a20.9,20.9,0,0,0,5.826.74,22.206,22.206,0,0,0,5.876-.923,28.708,28.708,0,0,0,5.6-2.264,50.614,50.614,0,0,0,10-7.173,93.871,93.871,0,0,0,8.762-8.9,246.211,246.211,0,0,0,15.2-20.069c4.819-6.9,9.4-13.964,13.96-21.058,9.112-14.178,18.126-28.5,28.578-41.786l1.959-2.488,2.017-2.442q2.01-2.451,4.085-4.838a94.677,94.677,0,0,1,8.835-9.081,43.116,43.116,0,0,1,10.469-7.086,24.991,24.991,0,0,1,12.292-2.431,24.9,24.9,0,0,0-12.212,2.6,42.838,42.838,0,0,0-10.3,7.2,94.4,94.4,0,0,0-8.658,9.168q-2.039,2.41-4,4.887l-1.974,2.464-1.916,2.51c-10.223,13.4-19,27.809-27.9,42.129-4.452,7.164-8.942,14.317-13.683,21.317a247.524,247.524,0,0,1-15.036,20.473,96.082,96.082,0,0,1-8.843,9.246c-1.578,1.448-3.226,2.813-4.929,4.129a41.649,41.649,0,0,1-5.47,3.547,31.353,31.353,0,0,1-6.065,2.553,24.99,24.99,0,0,1-6.566,1.126,23.727,23.727,0,0,1-6.687-.752,26.234,26.234,0,0,1-6.163-2.69,1.5,1.5,0,1,1,1.521-2.585l.009,0Z" fill="#0e8743"/><path d="M2.759,127.515a19.952,19.952,0,0,0,10.528,3.211,25.241,25.241,0,0,0,10.931-2.678,47.664,47.664,0,0,0,9.684-6.423,106.571,106.571,0,0,0,8.49-8.23A175.066,175.066,0,0,0,57.165,94.749c4.553-6.526,8.96-13.192,13.343-19.852,8.74-13.347,17.251-26.885,26.63-39.831a183.638,183.638,0,0,1,15.093-18.617,84.254,84.254,0,0,1,8.726-8.212,42.459,42.459,0,0,1,10.234-6.163,42.342,42.342,0,0,0-10.116,6.309,84.068,84.068,0,0,0-8.57,8.322A183.037,183.037,0,0,0,97.749,35.5C88.592,48.566,80.309,62.21,71.77,75.709c-4.289,6.743-8.583,13.466-13.063,20.1a176.942,176.942,0,0,1-14.653,19.1,108.479,108.479,0,0,1-8.565,8.564,50.156,50.156,0,0,1-10.118,6.932,27.954,27.954,0,0,1-12.083,3.132,22.885,22.885,0,0,1-12.129-3.486l0,0a1.5,1.5,0,0,1,1.587-2.545Z" fill="#0e8743"/><path d="M2.759,118.961a20.137,20.137,0,0,0,9.815,3.2,24.306,24.306,0,0,0,10.318-2.024,42.045,42.045,0,0,0,9.274-5.605,90.613,90.613,0,0,0,8.155-7.448A152.807,152.807,0,0,0,54.463,89.912c4.354-6.045,8.582-12.206,12.714-18.417,8.256-12.437,16.238-25.087,24.677-37.427,4.194-6.187,8.519-12.3,13.257-18.094A115.661,115.661,0,0,1,120.807,0a115.435,115.435,0,0,0-15.4,16.21c-4.629,5.855-8.84,12.025-12.925,18.274C84.252,46.955,76.5,59.717,68.433,72.316c-4.04,6.3-8.165,12.53-12.443,18.683a154.719,154.719,0,0,1-14.045,17.637,92.77,92.77,0,0,1-8.256,7.8,44.557,44.557,0,0,1-9.757,6.112,27.038,27.038,0,0,1-11.46,2.424A23.075,23.075,0,0,1,1.159,121.5,1.5,1.5,0,0,1,2.74,118.95Z" fill="#0e8743"/><path d="M2.759,110.407a21.06,21.06,0,0,0,8.977,3.315,20.359,20.359,0,0,0,4.809-.01,24.933,24.933,0,0,0,4.739-1.148c6.233-2.166,11.685-6.437,16.541-11.123a129.184,129.184,0,0,0,13.3-15.534c4.081-5.516,8.1-11.094,11.943-16.778C70.77,57.759,77.99,46.039,85.61,34.575A296.087,296.087,0,0,1,110.423,1.613,295.909,295.909,0,0,0,86.238,34.984c-7.4,11.587-14.4,23.43-21.925,34.975-3.76,5.779-7.681,11.441-11.68,17.056a131.1,131.1,0,0,1-13.226,16.026c-4.911,4.9-10.46,9.482-17.245,12a27.665,27.665,0,0,1-5.247,1.368,23.185,23.185,0,0,1-5.479.113,23.983,23.983,0,0,1-10.277-3.574l-.006,0a1.5,1.5,0,1,1,1.584-2.547Z" fill="#0e8743"/><path d="M2.759,101.854a21.115,21.115,0,0,0,8.009,3.163,19.556,19.556,0,0,0,4.307.228,22.365,22.365,0,0,0,4.3-.73,30.537,30.537,0,0,0,8.118-3.589,52.985,52.985,0,0,0,7.272-5.4A107.83,107.83,0,0,0,47.3,82.147c3.873-4.793,7.583-9.714,11.177-14.726C65.675,57.4,72.357,47,79.1,36.643s13.559-20.686,20.938-30.6C92.861,16.1,86.253,26.549,79.733,37.046S66.727,58.076,59.707,68.282c-3.505,5.1-7.138,10.13-10.936,15.029a109.72,109.72,0,0,1-12.509,13.9A55.274,55.274,0,0,1,28.78,103a33.067,33.067,0,0,1-8.7,4.049,25.2,25.2,0,0,1-4.806.913,22.358,22.358,0,0,1-4.931-.16,24.008,24.008,0,0,1-9.184-3.406,1.5,1.5,0,1,1,1.572-2.555Z" fill="#0e8743"/><path d="M2.771,93.307A19.408,19.408,0,0,0,17.25,96.393c5.057-.908,9.789-3.536,14.019-6.707A83.17,83.17,0,0,0,42.955,78.712c3.589-4.015,7.024-8.194,10.312-12.48C66.488,49.1,77.474,30.331,89.655,12.406,77.89,30.606,67.36,49.6,54.466,67.134c-3.209,4.388-6.564,8.668-10.1,12.817A85.121,85.121,0,0,1,32.64,91.47a45.274,45.274,0,0,1-6.957,4.583,29.386,29.386,0,0,1-7.941,2.918,21.6,21.6,0,0,1-8.6.073A23.578,23.578,0,0,1,1.148,95.83l-.01-.006a1.5,1.5,0,1,1,1.6-2.541Z" fill="#0e8743"/><path d="M2.75,84.74a20.256,20.256,0,0,0,12.313,3.246,10.33,10.33,0,0,0,1.62-.191c.537-.1,1.084-.137,1.615-.275a27.169,27.169,0,0,0,3.166-.947l1.557-.585,1.513-.716c1.027-.44,1.972-1.062,2.959-1.595,7.723-4.708,14.057-11.565,20.03-18.524A249.438,249.438,0,0,0,64.076,43.017c5.177-7.644,10.113-15.46,15.2-23.177C74.4,27.692,69.68,35.634,64.7,43.429a250.565,250.565,0,0,1-16.023,22.68c-2.9,3.626-5.952,7.117-9.191,10.479a64.21,64.21,0,0,1-10.809,9c-1.028.593-2,1.27-3.091,1.775l-1.6.809-1.668.681a29.976,29.976,0,0,1-3.438,1.128c-.582.166-1.193.236-1.789.357a12.373,12.373,0,0,1-1.81.262A23.1,23.1,0,0,1,1.168,87.289l-.013-.008a1.5,1.5,0,1,1,1.565-2.56Z" fill="#0e8743"/><path d="M2.76,76.192a20.009,20.009,0,0,0,10.043,3.3A24.279,24.279,0,0,0,23.4,77.329,43.794,43.794,0,0,0,32.911,71.5a95.147,95.147,0,0,0,8.372-7.654A155.935,155.935,0,0,0,55.9,46.334c4.5-6.158,8.717-12.534,12.99-18.865-4.064,6.467-8.066,12.976-12.378,19.3A157,157,0,0,1,42.37,64.883,96.48,96.48,0,0,1,34.1,72.956a45.835,45.835,0,0,1-9.774,6.424,26.71,26.71,0,0,1-11.585,2.735A22.836,22.836,0,0,1,1.159,78.729l-.005,0a1.5,1.5,0,0,1,1.567-2.559Z" fill="#0e8743"/><path d="M2.719,67.613a22.342,22.342,0,0,0,7.963,3.043,21.228,21.228,0,0,0,8.568-.344,29.537,29.537,0,0,0,8.126-3.34,59.359,59.359,0,0,0,7.314-5.2A96.746,96.746,0,0,0,47.42,48.889C51.3,44.228,54.9,39.321,58.5,34.418c-3.394,5.046-6.789,10.1-10.5,14.94a97.69,97.69,0,0,1-12.34,13.551,60.8,60.8,0,0,1-7.313,5.664,31.63,31.63,0,0,1-8.536,3.917,23.686,23.686,0,0,1-9.51.764A25.15,25.15,0,0,1,1.2,70.2a1.5,1.5,0,1,1,1.466-2.617Z" fill="#0e8743"/><path d="M2.715,59.057a21.623,21.623,0,0,0,12.447,3.431,27.723,27.723,0,0,0,12.651-4.1,59.746,59.746,0,0,0,10.846-8.421c3.34-3.185,6.434-6.639,9.459-10.147-2.831,3.665-5.737,7.286-8.927,10.675a60.892,60.892,0,0,1-10.586,9.167,29.578,29.578,0,0,1-13.28,5.074,22.685,22.685,0,0,1-7.291-.46A26.866,26.866,0,0,1,1.2,61.648a1.5,1.5,0,1,1,1.429-2.639c.025.013.05.027.073.042Z" fill="#0e8743"/><path d="M2.711,50.5a22.631,22.631,0,0,0,8.764,3.3,22.055,22.055,0,0,0,9.471-.808,35.757,35.757,0,0,0,8.861-4.189,66.637,66.637,0,0,0,7.927-6.016,67.127,67.127,0,0,1-7.5,6.634,36.893,36.893,0,0,1-8.8,4.99A23.96,23.96,0,0,1,11.25,56.041,25.241,25.241,0,0,1,1.208,53.1,1.5,1.5,0,0,1,2.6,50.437c.032.017.063.034.093.053Z" fill="#0e8743"/><path d="M2.709,41.946A21.952,21.952,0,0,0,14.7,45.769a28.288,28.288,0,0,0,12.655-3.3,29.052,29.052,0,0,1-12.578,4.8,22.517,22.517,0,0,1-6.949-.363,26.91,26.91,0,0,1-6.614-2.361l-.006,0a1.5,1.5,0,1,1,1.506-2.595Z" fill="#0e8743"/><path d="M2.71,33.392A24.626,24.626,0,0,0,9.348,36.9a22.224,22.224,0,0,0,7.618,1.069,22.973,22.973,0,0,1-7.948.394,26.884,26.884,0,0,1-7.81-2.372L1.2,35.984a1.507,1.507,0,0,1,1.266-2.736A1.638,1.638,0,0,1,2.71,33.392Z" fill="#0e8743"/><path d="M2.759,24.868a23.138,23.138,0,0,0,3.823,3.56,24.669,24.669,0,0,1-5.423-1.022l-.045-.014a1.569,1.569,0,1,1,1.645-2.524Z" fill="#0e8743"/></svg>