<?xml version="1.0" encoding="utf-8"?>
<!-- Generator: Adobe Illustrator 24.1.0, SVG Export Plug-In . SVG Version: 6.00 Build 0)  -->
<svg version="1.1" id="Layer_1" xmlns="http://www.w3.org/2000/svg" xmlns:xlink="http://www.w3.org/1999/xlink" x="0px" y="0px"
	 viewBox="0 0 141.4 150.6" style="enable-background:new 0 0 141.4 150.6;" xml:space="preserve">
<style type="text/css">
	.st0{fill:#0E8743;}
	.st1{fill:none;stroke:#0E8743;stroke-width:2;stroke-miterlimit:10;}
	.st2{fill:none;stroke:#0E8743;stroke-width:4;stroke-miterlimit:10;}
	.st3{fill:none;stroke:#0E8743;stroke-miterlimit:10;}
</style>
<g id="XMLID_22290_">
	<g id="XMLID_22169_">
		<g id="XMLID_22170_">
			<path id="XMLID_22196_" class="st0" d="M56.6,34.2c4.8-0.3,9.6-0.5,14.2-0.5c16.3,0,29,2.1,35.5,3.1c1.1,0.2,2.3,0.3,3.5,0.5
				c-0.6-0.4-1.3-0.7-2-1c-1.7-0.8-3.6-1.6-5.8-2.4c-9.4-3.4-18.8-5.4-31.3-5.4c-4.4,0-8.7,0.3-12.8,0.8c-4.8,0.6-8.8,1.5-13,2.7
				c-3.4,1-8,2.7-11.3,4.3c-0.7,0.3-1.4,0.7-2,1.1c1.3-0.2,2.5-0.4,3.6-0.6C39.9,36.1,46.9,34.9,56.6,34.2z"/>
			<path id="XMLID_22195_" class="st0" d="M51.3,65.8c6.4,0,13.1,0.1,19.6,0.1c6.5,0,13.2,0,19.6-0.1c6.3,0,12.7-0.1,19.1-0.1
				c12.5,0,12.1,0,21.3,0.2c1,0,2,0,3,0.1l0.7,0c0.4,0,0.8,0,1.1,0c-0.8-0.2-1.7-0.5-2.7-0.7c-1-0.3-2-0.5-3-0.8
				c-0.5-0.1-0.9-0.2-1.4-0.4c-1.3-0.3-2.7-0.7-4.3-1.1c-4.4-1.1-7.8-1.7-17.6-2.8c-12.1-1.3-24.1-2-35.9-2c-11.7,0-23.8,0.7-35.9,2
				c-1.3,0.1-2.8,0.3-4.5,0.5c-3.8,0.5-7.1,0.8-13.1,2.3c-4.6,1.1-7.4,1.9-11.6,3c0.5,0,0.9,0,1.4,0l0.8,0c7.5-0.1,7.3-0.3,24.3-0.3
				C38.5,65.8,45,65.8,51.3,65.8z"/>
			<path id="XMLID_22194_" class="st0" d="M59.4,22.1c3.9-0.2,7.8-0.2,11.5-0.2c3.9,0,7.7,0,11.5,0.2c6.6,0.4,10.6,1.1,15.4,2.2
				c-2.2-1.4-4.7-2.5-7.4-3.4c-2.9-1-6.1-1.6-9.6-2.1c-3-0.4-6.3-0.6-9.9-0.6c0,0,0,0,0,0c-3.6,0-6.9,0.2-9.9,0.5
				c-6,0.7-12,2.3-17.1,5.5C47.8,23.4,52.1,22.5,59.4,22.1z"/>
			<path id="XMLID_22193_" class="st0" d="M70.9,27.3c11.9,0,21.1,1,32.7,3.3c-2-1.2-4.2-2.3-6.4-3.2c-0.4-0.2-0.7-0.3-1.3-0.5
				c-0.4-0.2-0.9-0.3-1.3-0.5c-0.4-0.2-0.9-0.3-1.3-0.5c-3.3-1.1-7-1.9-11-2.4c-3.3-0.4-6.9-0.6-11.4-0.6c0,0,0,0,0,0
				c-4.4,0-8,0.2-11.4,0.6c-4.1,0.5-7.7,1.3-11,2.4c-3.4,1.2-7.3,2.9-10.4,4.7c6.9-1.4,13-2.4,19.9-2.9
				C62.1,27.5,66.3,27.3,70.9,27.3z"/>
			<path id="XMLID_22192_" class="st0" d="M70.8,40.9c9.8,0,20,0.5,31,1.6c2.4,0.2,5,0.5,7.7,0.8c2.2,0.3,4.8,0.6,7.3,1
				c-0.5-0.3-1-0.5-1.5-0.8c-0.9-0.4-1.8-0.8-3.1-1.4c-2.3-0.9-4.8-1.7-6.6-2.2c-6.3-1.8-12.4-3.4-20.7-4.4
				c-4.7-0.6-9.4-0.9-14.1-0.9c-4.7,0-9.4,0.3-14.1,0.9c-7.8,1-13.9,2.4-20.7,4.4c-1.9,0.5-4.3,1.3-6.6,2.2
				c-1.7,0.7-3.1,1.3-4.7,2.2c2.6-0.4,5.2-0.7,7.4-1c2.8-0.3,5.3-0.6,7.7-0.8C50.9,41.5,61,40.9,70.8,40.9z"/>
			<path id="XMLID_22191_" class="st0" d="M88.9,57.4c9.2,0.2,21.1,0.5,27.1,0.7c1.5,0,2.9,0.1,4.6,0.2c1.8,0.1,3.2,0.3,4.6,0.4
				c0.9,0.1,1.9,0.2,2.8,0.3c0.6,0.1,1.2,0.1,1.7,0.2c0.3,0,0.5,0.1,0.8,0.1c-0.8-0.4-1.6-0.8-2.4-1.1c-2.6-1.2-4.8-1.8-7.6-2.5
				c-2.5-0.6-5.1-1.1-7.6-1.5l-0.5-0.1c-7.7-1.4-12.2-2-18.6-2.8c-0.7-0.1-1.4-0.1-2.1-0.2c-1.5-0.1-2.9-0.3-4.2-0.4
				c-5.4-0.4-11-0.6-16.7-0.7c-11,0-22.2,0.9-33.2,2.5c-4.2,0.6-6.2,1-9.6,1.7c-9,1.7-11.2,2.4-16.8,5.1c0.3,0,0.6-0.1,0.9-0.1
				c2.3-0.2,8.9-0.9,13.7-1.1l9.9-0.3c5.6-0.1,11.4-0.3,17.2-0.4c6-0.1,12.1-0.2,18-0.2C76.8,57.2,82.9,57.3,88.9,57.4z"/>
			<path id="XMLID_22190_" class="st0" d="M91.6,18.6c-1.4-0.7-2.8-1.4-4.4-1.9c-2.4-0.8-5.1-1.5-8.1-1.9c-2.6-0.4-5.3-0.5-8.3-0.5
				c0,0,0,0,0,0c-3,0-5.7,0.2-8.3,0.5c-2.9,0.4-5.6,1-8.1,1.9c-1.6,0.6-3.1,1.2-4.5,2c6.8-1.3,14-1.4,20.9-1.4
				C77.4,17.2,84.7,17.4,91.6,18.6z"/>
			<path id="XMLID_22189_" class="st0" d="M65.2,2.2c-0.2,0.2-0.4,0.4-0.6,0.6l6.2,0l6.2,0c-0.2-0.2-0.3-0.4-0.5-0.6
				c-0.2-0.2-0.5-0.5-0.8-0.7c-0.3-0.2-0.6-0.4-0.9-0.5C73.6,0.3,72.3,0,70.8,0c0,0,0,0,0,0c-1.4,0-2.7,0.3-3.9,0.9
				c-0.3,0.2-0.6,0.4-0.9,0.5C65.7,1.7,65.4,1.9,65.2,2.2z"/>
			<path id="XMLID_22188_" class="st0" d="M70.8,13.2c5,0,10.4,0.1,15.9,0.9c-0.9-0.4-1.8-0.8-2.7-1.2c-2-0.7-4.1-1.3-6.4-1.7
				c-2.1-0.3-4.4-0.5-6.7-0.5c0,0,0,0,0,0c-2.3,0-4.6,0.2-6.7,0.5c-2.3,0.4-4.5,0.9-6.4,1.7c-1,0.4-1.9,0.8-2.8,1.2
				C60.4,13.3,65.8,13.2,70.8,13.2z"/>
			<path id="XMLID_22187_" class="st0" d="M70.9,48.8c18.3,0,33.8,1.2,41.8,1.7c0.8,0.1,1.6,0.1,2.5,0.1c2,0.1,4,0.2,6,0.4
				c0.3,0,0.7,0.1,1.1,0.1c-1.7-0.8-3.7-1.6-6-2.3c-4.4-1.4-10.4-2.9-14.8-3.7c-10.1-2-20.4-3-30.6-3.1c-10.2,0-20.5,1-30.6,3
				c-4.5,0.9-10.5,2.3-14.8,3.7c-2.3,0.8-4.3,1.6-6.1,2.4c2.1-0.2,4.6-0.4,6.6-0.5c5.8-0.3,15.3-1.2,28.2-1.6
				C59.5,48.9,65.2,48.8,70.9,48.8C70.9,48.8,70.9,48.8,70.9,48.8z"/>
			<path id="XMLID_22186_" class="st0" d="M29.4,74c6.6,0.2,13.4,0.4,20.7,0.5c6.8,0.1,13.7,0.2,20.7,0.2c7,0,13.9-0.1,20.7-0.2
				c7.3-0.1,14.1-0.3,20.7-0.5c3.5-0.1,7-0.3,10.4-0.4c3.7-0.2,7.1-0.4,10.3-0.6c0.6,0,1.2-0.1,1.8-0.1c1.1-0.1,2.2-0.1,3.3-0.2
				c0.5,0,0.9-0.1,1.4-0.1c0.6,0,1.3-0.1,1.9-0.1c-1.1-0.2-2.2-0.3-3.2-0.5l-4.8-0.8c-7.5-1.2-11.4-1.7-14.3-2
				c-3.1-0.3-6.3-0.6-9.6-0.9c-6.1-0.5-12.4-0.8-19.3-1C84.3,67.1,78,67,70.8,67c-7.1,0-13.4,0.1-19.3,0.3c-6.9,0.2-13.2,0.5-19.3,1
				c-3.3,0.3-6.6,0.5-9.6,0.9c-2.9,0.3-6,0.7-9.5,1.3c-0.5,0.1-1,0.2-1.4,0.2c-1.1,0.2-2.2,0.3-3.3,0.5l-4.8,0.8
				c-1.1,0.2-2.3,0.4-3.5,0.5c0.7,0.1,1.4,0.1,2.2,0.2c0.5,0,0.9,0.1,1.4,0.1c1.1,0.1,2.3,0.1,3.3,0.2c0.6,0,1.2,0.1,1.8,0.1
				c3.2,0.2,6.6,0.4,10.3,0.6C22.4,73.8,25.9,73.9,29.4,74z"/>
			<path id="XMLID_22185_" class="st0" d="M61.6,6.5c3.2-0.3,6.2-0.5,9.3-0.5c3,0,6.1,0.1,9.2,0.4c-0.2-0.2-0.5-0.3-0.8-0.5
				c-0.5-0.3-1-0.5-1.6-0.8c-2.1-0.9-4.5-1.4-6.9-1.4C67.6,3.8,64.3,4.7,61.6,6.5z"/>
			<path id="XMLID_22184_" class="st0" d="M70.8,9.6C70.9,9.6,70.9,9.6,70.8,9.6c4.7,0,8.7,0.2,12.3,0.6c-0.8-0.4-1.6-0.8-2.4-1.2
				c-3-1.3-6.5-1.9-9.9-1.9c-4.2,0-8.7,1-12.4,3.1C62.1,9.8,66.1,9.6,70.8,9.6z"/>
			<path id="XMLID_22183_" class="st0" d="M58,122.8c-7-0.5-13-1.5-19.9-2.9c3.1,1.9,7,3.6,10.4,4.7c3.3,1.1,6.9,1.9,11,2.4
				c3.3,0.4,7,0.6,11.4,0.6c0,0,0,0,0,0c4.5,0,8.1-0.2,11.4-0.6c4.5-0.5,8.1-1.4,11.4-2.5c0.7-0.2,0.7-0.2,1.3-0.5
				c0.7-0.2,0.7-0.3,1.2-0.5c0.3-0.1,0.7-0.3,1-0.4c0.5-0.2,0.9-0.4,1.3-0.6c1.7-0.8,3.4-1.6,5.1-2.6c-11.5,2.3-20.8,3.3-32.7,3.3
				C66.3,123.3,62.1,123.1,58,122.8z"/>
			<path id="XMLID_22182_" class="st0" d="M70.9,137.4c-5.1,0-10.5-0.1-16-0.9c0.9,0.5,1.8,0.9,2.8,1.2c2,0.7,4.1,1.3,6.4,1.7
				c2.1,0.3,4.4,0.5,6.7,0.5c2.3,0,4.6-0.2,6.7-0.5c2.3-0.4,4.5-0.9,6.4-1.7c0.9-0.4,1.9-0.7,2.7-1.2
				C81.3,137.3,75.9,137.4,70.9,137.4z"/>
			<path id="XMLID_22181_" class="st0" d="M141.4,78.1c-0.6,0-1.3-0.1-1.9-0.1c-0.5,0-0.9-0.1-1.4-0.1c-1.1-0.1-2.2-0.1-3.3-0.2
				c-0.6,0-1.2-0.1-1.8-0.1c-3.2-0.2-6.6-0.4-10.3-0.6c-3.3-0.2-6.8-0.3-10.4-0.4c-6.6-0.2-13.4-0.4-20.7-0.5
				c-6.8-0.1-13.7-0.2-20.7-0.2c-7,0-13.9,0.1-20.7,0.2c-7.3,0.1-14.1,0.3-20.7,0.5c-3.5,0.1-7,0.3-10.4,0.4
				c-3.7,0.2-7.1,0.4-10.3,0.6c-0.6,0-1.2,0.1-1.8,0.1c-1.1,0.1-2.2,0.1-3.3,0.2c-0.5,0-0.9,0.1-1.4,0.1c-0.7,0-1.4,0.1-2.1,0.2
				c1.2,0.2,2.4,0.4,3.5,0.5l4.8,0.8c1.1,0.2,2.2,0.4,3.3,0.5c0.5,0.1,1,0.2,1.4,0.2c3.6,0.5,6.7,1,9.5,1.3c3.1,0.3,6.3,0.6,9.6,0.9
				c6.1,0.5,12.4,0.8,19.3,1c5.9,0.2,12.2,0.3,19.3,0.3c7.1,0,13.4-0.1,19.3-0.3c6.9-0.2,13.2-0.5,19.3-1c3.3-0.3,6.6-0.6,9.6-0.9
				c2.9-0.3,6-0.7,9.5-1.3c0.5-0.1,1-0.2,1.5-0.2c1.1-0.2,2.2-0.3,3.3-0.5l4.8-0.8C139.3,78.5,140.3,78.3,141.4,78.1z"/>
			<path id="XMLID_22180_" class="st0" d="M49.9,131.9c1.4,0.8,2.9,1.4,4.5,2c2.4,0.8,5.1,1.5,8.1,1.9c2.6,0.4,5.3,0.5,8.3,0.5
				c0,0,0,0,0,0c3,0,5.7-0.2,8.3-0.5c4.3-0.6,8.6-1.7,12.5-3.8c-6.8,1.2-13.9,1.4-20.8,1.4C64.1,133.3,56.8,133.2,49.9,131.9z"/>
			<path id="XMLID_22179_" class="st0" d="M70.9,128.7c-3.7,0-7.6,0-11.5-0.2c-4.3-0.2-8.1-0.7-11.5-1.4c-1.5-0.3-2.4-0.5-4-0.9
				c2.2,1.4,4.7,2.5,7.5,3.4c2.9,1,6.1,1.6,9.6,2.1c3,0.4,6.3,0.5,9.9,0.5c3.6,0,6.9-0.2,9.9-0.6c3.6-0.4,6.7-1.1,9.6-2.1
				c2.7-0.9,5.2-2,7.4-3.4c-4.3,1-8.4,1.9-15.4,2.2C78.6,128.7,74.8,128.7,70.9,128.7z"/>
			<path id="XMLID_22178_" class="st0" d="M75.7,149.1c0.3-0.2,0.6-0.5,0.8-0.7c0.2-0.2,0.4-0.4,0.5-0.5l-6.2,0l-6.2,0
				c0.2,0.2,0.4,0.4,0.6,0.6c0.2,0.2,0.5,0.5,0.8,0.7c0.3,0.2,0.6,0.4,0.9,0.5c1.2,0.6,2.5,0.9,3.9,0.9c0,0,0,0,0,0
				c1.4,0,2.7-0.3,3.9-0.9C75.1,149.5,75.4,149.3,75.7,149.1z"/>
			<path id="XMLID_22177_" class="st0" d="M79.3,144.6c0.3-0.2,0.5-0.3,0.8-0.5c-3.1,0.3-6.2,0.4-9.2,0.4c-3.1,0-6.1-0.2-9.3-0.5
				c0.3,0.2,0.5,0.3,0.8,0.5c0.5,0.3,1,0.5,1.6,0.8c2.1,0.9,4.5,1.4,6.9,1.4c2.4,0,4.8-0.5,6.9-1.4
				C78.3,145.1,78.8,144.9,79.3,144.6z"/>
			<path id="XMLID_22176_" class="st0" d="M70.9,141c-4.8,0-8.8-0.2-12.4-0.7c0.8,0.5,1.6,0.9,2.5,1.2c3,1.2,6.5,1.9,9.9,1.9
				c3.5,0,6.9-0.7,9.9-1.9c0.8-0.3,1.6-0.7,2.4-1.2C79.5,140.8,75.6,141,70.9,141z"/>
			<path id="XMLID_22175_" class="st0" d="M52.8,93.2c-6-0.1-12-0.3-18-0.4c-10.5-0.3-9.8-0.2-13.6-0.5c-4.1-0.3-6-0.5-10-0.9
				c2.2,1.1,4.1,1.9,6.2,2.6c1.1,0.4,2.3,0.7,3.9,1.1c2.6,0.6,5.4,1.1,8.1,1.6c2,0.4,4.3,0.8,8.2,1.4c11,1.7,22.2,2.5,33.2,2.5
				c5.7,0,11.3-0.2,16.7-0.7c2.1-0.2,3.9-0.3,4.8-0.4c1.2-0.1,1-0.1,3.5-0.4c7.1-0.8,12-1.7,16.5-2.5l0.5-0.1
				c2.5-0.5,5.1-0.9,7.6-1.5c2.2-0.5,3.8-1,5.7-1.7c0.5-0.2,1.1-0.5,1.8-0.8c0.8-0.4,1.6-0.7,2.4-1.1c-0.3,0-0.5,0.1-0.8,0.1
				c-0.6,0.1-1.2,0.1-1.7,0.2c-0.9,0.1-1.9,0.2-2.8,0.3c-7.3,0.7-10,0.7-19.1,0.9c-5.6,0.1-11.4,0.3-17.1,0.4
				c-6,0.1-12.1,0.2-18,0.2C64.9,93.4,58.8,93.3,52.8,93.2z"/>
			<path id="XMLID_22174_" class="st0" d="M90.5,84.8c-6.4,0-13.1-0.1-19.6-0.1c-6.5,0-13.2,0-19.6,0.1c-6.3,0-12.7,0.1-19.1,0.1
				c-3.7,0-6.8,0-9.7,0c-2.8,0-5.7-0.1-8.5-0.2c-0.9,0-4.7-0.1-6.8-0.1c-0.5,0-0.9,0-1.4,0c2.6,0.7,2.6,0.7,5.9,1.5
				c0.5,0.1,0.9,0.2,1.4,0.4c1.3,0.3,2.7,0.7,4.3,1.1c5.9,1.4,9.2,1.8,13.2,2.3c13.5,1.6,26.8,2.5,40.4,2.5c11.7,0,23.8-0.7,35.9-2
				c1.3-0.1,2.8-0.3,4.5-0.5c3.8-0.5,7.1-0.8,13.1-2.3c1.6-0.4,3-0.7,4.3-1.1c0.5-0.1,0.9-0.2,1.4-0.4c1-0.3,2-0.5,3-0.8
				c0.9-0.2,1.8-0.5,2.7-0.7c-0.4,0-0.8,0-1.1,0l-0.8,0c-1,0-2,0-3,0.1c-0.6,0-1.2,0-1.9,0l-1.2,0c-6.2,0.1-7.4,0.2-18.2,0.2
				C103.2,84.9,96.7,84.8,90.5,84.8z"/>
			<path id="XMLID_22173_" class="st0" d="M70.9,116.9c-4.6,0-9.4-0.2-14.2-0.5c-4.6-0.3-9.4-0.8-14.2-1.5
				c-2.9-0.4-8.4-1.2-10.6-1.6c2.4,1.4,5.2,2.6,7.8,3.5c6.3,2.3,12.4,3.8,18.5,4.6c4.1,0.5,8.4,0.8,12.8,0.8c12.5,0,22-2,31.3-5.4
				c2.2-0.8,4.1-1.6,5.8-2.4c0.7-0.3,1.3-0.7,2-1c-1.2,0.2-2.4,0.4-3.5,0.5C100.2,114.8,87.3,116.9,70.9,116.9z"/>
			<path id="XMLID_22172_" class="st0" d="M70.8,109.7c-9.8,0-20-0.6-31-1.7c-2.4-0.2-5-0.5-7.7-0.8c-2.4-0.3-4.9-0.6-7.4-1
				c0.5,0.3,1,0.5,1.6,0.8c0.9,0.4,1.8,0.8,3.1,1.4c2.3,0.9,4.8,1.7,6.6,2.2c1,0.3,2.1,0.6,3.4,1c1.1,0.3,2.3,0.6,3.4,0.9
				c4.5,1.1,9.2,2,13.9,2.5c4.7,0.6,9.4,0.9,14.1,0.9c4.7,0,9.4-0.3,14.1-0.9c7.8-1,13.8-2.4,20.7-4.4c1.9-0.5,4.3-1.3,6.6-2.2
				c1.3-0.5,2.2-0.9,3.1-1.4c0.5-0.3,1-0.5,1.5-0.8c-2.5,0.4-5.1,0.7-7.3,1c-2.8,0.3-5.3,0.6-7.7,0.8
				C90.8,109.1,80.7,109.7,70.8,109.7z"/>
			<path id="XMLID_22171_" class="st0" d="M70.9,101.8c-5.7,0-11.3-0.1-16.8-0.3c-13.1-0.5-21.9-1.2-28.2-1.6
				c-1.8-0.1-3.6-0.2-5.4-0.4c-0.4,0-0.8-0.1-1.2-0.1c1.8,0.8,3.8,1.6,6.1,2.4c2.1,0.7,4.3,1.3,7.3,2.1c2.5,0.6,5,1.2,7.5,1.7
				c10.1,2,20.4,3,30.6,3c10.2,0,20.5-1,30.6-3.1c2.5-0.5,5-1.1,7.5-1.7c3-0.7,5.3-1.4,7.3-2.1c2.3-0.8,4.2-1.5,6-2.3
				c-0.4,0-0.7,0.1-1.1,0.1c-2,0.2-4,0.3-6,0.4c-0.8,0-1.6,0.1-2.5,0.1C104.7,100.6,89.2,101.8,70.9,101.8z"/>
		</g>
	</g>
</g>
</svg>
