<?xml version="1.0" encoding="utf-8"?>
<!-- Generator: Adobe Illustrator 24.1.0, SVG Export Plug-In . SVG Version: 6.00 Build 0)  -->
<svg version="1.1" id="Layer_1" xmlns="http://www.w3.org/2000/svg" xmlns:xlink="http://www.w3.org/1999/xlink" x="0px" y="0px"
	 viewBox="0 0 152 76.8" style="enable-background:new 0 0 152 76.8;" xml:space="preserve">
<style type="text/css">
	.st0{fill:#0E8743;}
	.st1{fill:none;stroke:#0E8743;stroke-width:2;stroke-miterlimit:10;}
	.st2{fill:none;stroke:#0E8743;stroke-width:4;stroke-miterlimit:10;}
	.st3{fill:none;stroke:#0E8743;stroke-miterlimit:10;}
</style>
<g id="XMLID_10640_">
	<g id="XMLID_10650_">
		<path class="st0" d="M60.7,60.1c-12.4-5.4-24.3-12.2-34.9-20.8c-2.6-2.2-5.2-4.5-7.5-7c-2.3-2.5-4.5-5.2-6.4-8.1
			c-1.8-3-3.3-6.2-3.5-9.9c-0.1-1.8,0.2-3.7,1-5.4c0.8-1.7,2-3.1,3.5-4.2c1.4-1.1,3.1-1.9,4.7-2.5c0.8-0.3,1.7-0.5,2.5-0.8
			c0.9-0.2,1.7-0.4,2.6-0.5C26,0.1,29.5-0.1,32.9,0c6.9,0.2,13.6,1.2,20.3,2.7c6.6,1.5,13.2,3.5,19.5,5.9c6.4,2.4,12.6,5.1,18.6,8.2
			c-6.2-2.7-12.5-5.2-19-7.2C66,7.4,59.5,5.6,52.8,4.2c-6.6-1.3-13.3-2.3-20-2.4c-3.3,0-6.7,0.2-9.9,0.8c-0.8,0.1-1.6,0.4-2.4,0.5
			c-0.8,0.3-1.6,0.4-2.3,0.8c-1.5,0.6-3,1.3-4.2,2.3c-1.2,0.9-2.3,2.1-2.9,3.5c-0.7,1.4-0.9,2.9-0.9,4.5c0.2,3.1,1.5,6.2,3.2,9.1
			c3.5,5.7,8.3,10.4,13.3,14.9c5.1,4.4,10.6,8.3,16.3,12C48.7,53.7,54.6,57,60.7,60.1z"/>
	</g>
	<g id="XMLID_10649_">
		<path class="st0" d="M91.3,16.7c12.4,5.4,24.3,12.2,34.9,20.8c2.6,2.2,5.2,4.5,7.5,7c2.3,2.5,4.5,5.2,6.4,8.1
			c1.8,3,3.3,6.2,3.5,9.9c0.1,1.8-0.2,3.7-1,5.4c-0.8,1.7-2,3.1-3.5,4.2c-1.4,1.1-3.1,1.9-4.7,2.5c-0.8,0.3-1.7,0.5-2.5,0.8
			c-0.9,0.2-1.7,0.4-2.6,0.5c-3.4,0.6-6.9,0.8-10.3,0.7c-6.9-0.2-13.6-1.2-20.3-2.7c-6.6-1.5-13.2-3.5-19.5-5.9
			c-6.4-2.4-12.6-5.1-18.6-8.2c6.2,2.7,12.5,5.2,19,7.2c6.4,2.1,12.9,3.9,19.5,5.3c6.6,1.3,13.3,2.3,20,2.4c3.3,0,6.7-0.2,9.9-0.8
			c0.8-0.1,1.6-0.4,2.4-0.5c0.8-0.3,1.6-0.4,2.3-0.8c1.5-0.6,3-1.3,4.2-2.3c1.2-0.9,2.3-2.1,2.9-3.5c0.7-1.4,0.9-2.9,0.9-4.5
			c-0.2-3.1-1.5-6.2-3.2-9.1c-3.5-5.7-8.3-10.4-13.3-14.9c-5.1-4.4-10.6-8.3-16.3-12C103.3,23.1,97.4,19.8,91.3,16.7z"/>
	</g>
	<g id="XMLID_10648_">
		<path class="st0" d="M68.1,62.6c-6.8-1.3-13.5-3-20.2-5c-6.6-2-13.1-4.5-19.4-7.4c-3.2-1.5-6.3-3.1-9.2-4.9
			c-3-1.8-5.9-3.8-8.6-6.1C8,37,5.5,34.4,3.7,31.2c-0.8-1.6-1.5-3.4-1.6-5.3c-0.1-1.9,0.4-3.9,1.3-5.5c1-1.6,2.3-3,3.7-4.1
			c1.5-1.1,3.1-1.9,4.7-2.7c3.3-1.4,6.7-2.4,10.1-3.1c6.9-1.4,13.9-1.8,20.8-1.7c6.9,0.1,13.9,0.6,20.7,1.6c6.9,1,13.7,2.3,20.4,3.9
			c-6.8-1.2-13.6-2.3-20.5-3c-6.9-0.7-13.8-1.1-20.6-1c-6.9,0.2-13.8,0.6-20.4,2c-3.3,0.7-6.6,1.7-9.7,3c-1.5,0.7-3,1.5-4.3,2.5
			c-1.3,1-2.4,2.2-3.2,3.5c-0.8,1.3-1.2,2.9-1.1,4.4c0.1,1.5,0.6,3.1,1.3,4.5c1.5,2.9,3.9,5.4,6.4,7.6c5.1,4.4,11.2,7.9,17.3,11
			c6.2,3,12.6,5.6,19.1,7.9C54.7,59,61.4,60.9,68.1,62.6z"/>
	</g>
	<g id="XMLID_10647_">
		<path class="st0" d="M83.9,14.2c6.8,1.3,13.5,3,20.2,5c6.6,2,13.1,4.5,19.4,7.4c3.2,1.5,6.3,3.1,9.2,4.9c3,1.8,5.9,3.8,8.6,6.1
			c2.7,2.3,5.2,4.9,6.9,8.1c0.8,1.6,1.5,3.4,1.6,5.3c0.1,1.9-0.4,3.9-1.3,5.5c-1,1.6-2.3,3-3.7,4.1c-1.5,1.1-3.1,1.9-4.7,2.7
			c-3.3,1.4-6.7,2.4-10.1,3.1c-6.9,1.4-13.9,1.8-20.8,1.7c-6.9-0.1-13.9-0.6-20.7-1.6c-6.9-1-13.7-2.3-20.4-3.9
			c6.8,1.2,13.6,2.3,20.5,3c6.9,0.7,13.8,1.1,20.6,1c6.9-0.2,13.8-0.6,20.4-2c3.3-0.7,6.6-1.7,9.7-3c1.5-0.7,3-1.5,4.3-2.5
			c1.3-1,2.4-2.2,3.2-3.5c0.8-1.3,1.2-2.9,1.1-4.4c-0.1-1.5-0.6-3.1-1.3-4.5c-1.5-2.9-3.9-5.4-6.4-7.6c-5.1-4.4-11.2-7.9-17.3-11
			c-6.2-3-12.6-5.6-19.1-7.9C97.3,17.8,90.6,15.9,83.9,14.2z"/>
	</g>
	<g id="XMLID_10646_">
		<path class="st0" d="M76,63.4c-7,0.2-13.9,0-20.9-0.5c-7-0.6-13.9-1.5-20.7-2.9c-6.9-1.4-13.6-3.4-20-6.4C11.1,52.1,8,50.4,5.2,48
			c-1.4-1.2-2.6-2.5-3.6-4.1c-1-1.6-1.6-3.5-1.6-5.4c0-2,0.6-3.9,1.6-5.4c1-1.6,2.3-2.9,3.6-4.1c2.7-2.4,5.9-4.1,9.1-5.6
			c6.4-3,13.2-4.9,20-6.4c6.9-1.4,13.8-2.4,20.7-2.9c7-0.5,13.9-0.7,20.9-0.5c-7,0.2-13.9,0.6-20.8,1.5c-6.9,0.8-13.8,1.9-20.5,3.5
			c-6.7,1.6-13.4,3.6-19.6,6.5C12,26.3,9,28,6.5,30.2c-1.2,1.1-2.4,2.3-3.2,3.7C2.5,35.3,2,36.9,2,38.4c0,1.5,0.5,3.1,1.3,4.4
			c0.8,1.4,2,2.6,3.2,3.7c2.5,2.2,5.5,4,8.6,5.4c6.2,3,12.9,4.9,19.6,6.5c6.7,1.6,13.6,2.7,20.5,3.5C62.1,62.8,69,63.2,76,63.4z"/>
	</g>
	<g id="XMLID_10645_">
		<path class="st0" d="M76,13.4c7-0.2,13.9,0,20.9,0.5c7,0.6,13.9,1.5,20.7,2.9c6.9,1.4,13.6,3.4,20,6.4c3.2,1.5,6.3,3.3,9.1,5.6
			c1.4,1.2,2.6,2.5,3.6,4.1c1,1.6,1.6,3.5,1.6,5.4c0,2-0.6,3.9-1.6,5.4c-1,1.6-2.3,2.9-3.6,4.1c-2.7,2.4-5.9,4.1-9.1,5.6
			c-6.4,3-13.2,4.9-20,6.4c-6.9,1.4-13.8,2.4-20.7,2.9c-7,0.5-13.9,0.7-20.9,0.5c7-0.2,13.9-0.6,20.8-1.5c6.9-0.8,13.8-1.9,20.5-3.5
			c6.7-1.6,13.4-3.6,19.6-6.5c3.1-1.5,6.1-3.2,8.6-5.4c1.2-1.1,2.4-2.3,3.2-3.7c0.8-1.4,1.3-2.9,1.3-4.4c0-1.5-0.5-3.1-1.3-4.4
			c-0.8-1.4-2-2.6-3.2-3.7c-2.5-2.2-5.5-4-8.6-5.4c-6.2-3-12.9-4.9-19.6-6.5c-6.7-1.6-13.6-2.7-20.5-3.5C89.9,14,83,13.6,76,13.4z"
			/>
	</g>
	<g id="XMLID_10644_">
		<path class="st0" d="M83.9,62.6c-6.7,1.7-13.5,3-20.4,3.9c-6.9,0.9-13.8,1.5-20.7,1.6c-6.9,0.1-13.9-0.4-20.8-1.7
			c-3.4-0.7-6.8-1.6-10.1-3.1c-1.6-0.8-3.2-1.6-4.7-2.7c-1.4-1.1-2.8-2.4-3.7-4.1c-1-1.6-1.4-3.6-1.3-5.5c0.1-1.9,0.7-3.7,1.6-5.3
			c1.7-3.2,4.3-5.8,6.9-8.1c2.7-2.3,5.6-4.3,8.6-6.1c3-1.8,6.1-3.4,9.2-4.9c6.3-2.9,12.8-5.4,19.4-7.4c6.6-2,13.4-3.7,20.2-4.9
			c-6.7,1.7-13.4,3.6-19.9,5.9c-6.5,2.2-12.9,4.8-19.1,7.9c-6.1,3.1-12.1,6.5-17.3,11c-2.5,2.2-4.9,4.7-6.4,7.6
			c-0.7,1.4-1.2,3-1.3,4.5c-0.1,1.5,0.3,3.1,1.1,4.4C6,56.9,7.1,58,8.4,59c1.3,1,2.8,1.8,4.3,2.5c3.1,1.4,6.3,2.3,9.7,3
			c6.7,1.4,13.6,1.8,20.4,2c6.9,0.1,13.8-0.3,20.6-1C70.3,64.9,77.1,63.8,83.9,62.6z"/>
	</g>
	<g id="XMLID_10643_">
		<path class="st0" d="M68.1,14.2c6.7-1.7,13.5-3,20.4-3.9c6.9-0.9,13.8-1.5,20.7-1.6c6.9-0.1,13.9,0.4,20.8,1.7
			c3.4,0.7,6.8,1.6,10.1,3.1c1.6,0.8,3.2,1.6,4.7,2.7c1.4,1.1,2.8,2.4,3.7,4.1c1,1.6,1.4,3.6,1.3,5.5c-0.1,1.9-0.7,3.7-1.6,5.3
			c-1.7,3.2-4.3,5.8-6.9,8.1c-2.7,2.3-5.6,4.3-8.6,6.1c-3,1.8-6.1,3.4-9.2,4.9c-6.3,2.9-12.8,5.4-19.4,7.4c-6.6,2-13.4,3.7-20.2,4.9
			c6.7-1.7,13.4-3.6,19.9-5.9c6.5-2.2,12.9-4.8,19.1-7.9c6.1-3.1,12.1-6.5,17.3-11c2.5-2.2,4.9-4.7,6.4-7.6c0.7-1.4,1.2-3,1.3-4.5
			c0.1-1.5-0.3-3.1-1.1-4.4c-0.8-1.4-1.9-2.5-3.2-3.5c-1.3-1-2.8-1.8-4.3-2.5c-3.1-1.4-6.3-2.3-9.7-3c-6.7-1.4-13.6-1.8-20.4-2
			c-6.9-0.1-13.8,0.3-20.6,1C81.7,11.9,74.9,13,68.1,14.2z"/>
	</g>
	<g id="XMLID_10642_">
		<path class="st0" d="M91.3,60.1c-6,3.1-12.3,5.8-18.6,8.2c-6.4,2.3-12.9,4.3-19.5,5.9c-6.6,1.5-13.4,2.5-20.3,2.7
			c-3.4,0.1-6.9-0.1-10.3-0.7c-0.9-0.1-1.7-0.4-2.6-0.5c-0.8-0.3-1.7-0.5-2.5-0.8c-1.7-0.6-3.3-1.4-4.7-2.5
			c-1.4-1.1-2.7-2.5-3.5-4.2c-0.8-1.7-1.1-3.6-1-5.4c0.2-3.7,1.8-7,3.5-9.9c1.8-3,4-5.6,6.4-8.1c2.3-2.5,4.9-4.8,7.5-7
			c10.6-8.6,22.5-15.4,34.9-20.8c-6,3.1-12,6.4-17.6,10c-5.7,3.6-11.2,7.6-16.3,12c-5,4.4-9.9,9.2-13.3,14.9c-1.7,2.8-3,5.9-3.2,9.1
			c-0.1,1.6,0.2,3.1,0.9,4.5c0.7,1.4,1.7,2.5,2.9,3.5c1.2,1,2.7,1.7,4.2,2.3c0.7,0.3,1.5,0.5,2.3,0.8c0.8,0.2,1.6,0.4,2.4,0.5
			c3.2,0.6,6.6,0.8,9.9,0.8c6.7-0.1,13.4-1.1,20-2.4c6.6-1.3,13.1-3.1,19.5-5.3C78.8,65.3,85.1,62.8,91.3,60.1z"/>
	</g>
	<g id="XMLID_10641_">
		<path class="st0" d="M60.7,16.7c6-3.1,12.3-5.8,18.6-8.2c6.4-2.3,12.9-4.3,19.5-5.9c6.6-1.5,13.4-2.5,20.3-2.7
			c3.4-0.1,6.9,0.1,10.3,0.7c0.9,0.1,1.7,0.4,2.6,0.5c0.8,0.3,1.7,0.5,2.5,0.8c1.7,0.6,3.3,1.4,4.7,2.5c1.4,1.1,2.7,2.5,3.5,4.2
			c0.8,1.7,1.1,3.6,1,5.4c-0.2,3.7-1.8,7-3.5,9.9c-1.8,3-4,5.6-6.4,8.1c-2.3,2.5-4.9,4.8-7.5,7c-10.6,8.6-22.5,15.4-34.9,20.8
			c6-3.1,12-6.4,17.6-10c5.7-3.6,11.2-7.6,16.3-12c5-4.4,9.9-9.2,13.3-14.9c1.7-2.8,3-5.9,3.2-9.1c0.1-1.6-0.2-3.1-0.9-4.5
			c-0.7-1.4-1.7-2.5-2.9-3.5c-1.2-1-2.7-1.7-4.2-2.3c-0.7-0.3-1.5-0.5-2.3-0.8c-0.8-0.2-1.6-0.4-2.4-0.5c-3.2-0.6-6.6-0.8-9.9-0.8
			c-6.7,0.1-13.4,1.1-20,2.4C92.5,5.6,86,7.4,79.6,9.5C73.2,11.6,66.9,14.1,60.7,16.7z"/>
	</g>
</g>
</svg>
