<svg xmlns="http://www.w3.org/2000/svg" viewBox="0 0 151.998 76.82"><path d="M60.658,60.089A149.84,149.84,0,0,1,25.75,39.254a77.58,77.58,0,0,1-7.526-6.962,52.273,52.273,0,0,1-6.372-8.126A22.132,22.132,0,0,1,8.307,14.26a11.3,11.3,0,0,1,1.02-5.4,11.848,11.848,0,0,1,3.478-4.243,17.12,17.12,0,0,1,4.716-2.532c.819-.341,1.673-.541,2.511-.8.852-.181,1.7-.427,2.555-.55A53.239,53.239,0,0,1,32.893.012a100.424,100.424,0,0,1,20.279,2.7A164.588,164.588,0,0,1,72.7,8.57,183.207,183.207,0,0,1,91.34,16.731C85.108,14.068,78.817,11.562,72.379,9.5A165.633,165.633,0,0,0,52.847,4.215,110.675,110.675,0,0,0,32.865,1.832a51.4,51.4,0,0,0-9.928.776c-.819.124-1.6.364-2.406.54-.774.253-1.576.445-2.318.766A15.354,15.354,0,0,0,14.028,6.2a9.872,9.872,0,0,0-2.937,3.5,9.364,9.364,0,0,0-.879,4.473,20.363,20.363,0,0,0,3.193,9.053c3.464,5.652,8.3,10.434,13.333,14.861A135.9,135.9,0,0,0,43.025,50.048C48.7,53.724,54.634,56.984,60.658,60.089Z" fill="#0e8743"/><path d="M91.34,16.731a149.81,149.81,0,0,1,34.908,20.836,77.57,77.57,0,0,1,7.526,6.961,52.207,52.207,0,0,1,6.371,8.126,22.132,22.132,0,0,1,3.545,9.906,11.28,11.28,0,0,1-1.02,5.4,11.846,11.846,0,0,1-3.477,4.243,17.135,17.135,0,0,1-4.716,2.532c-.82.341-1.673.541-2.511.8-.852.181-1.7.427-2.555.55a53.239,53.239,0,0,1-10.306.717,100.363,100.363,0,0,1-20.28-2.7A164.629,164.629,0,0,1,79.3,68.25a182.888,182.888,0,0,1-18.637-8.161c6.231,2.663,12.523,5.169,18.961,7.235a165.633,165.633,0,0,0,19.532,5.281,110.575,110.575,0,0,0,19.982,2.383,51.4,51.4,0,0,0,9.928-.776c.819-.123,1.6-.364,2.406-.539.774-.254,1.576-.446,2.318-.767a15.348,15.348,0,0,0,4.184-2.281,9.856,9.856,0,0,0,2.938-3.5,9.352,9.352,0,0,0,.878-4.473,20.361,20.361,0,0,0-3.192-9.053c-3.464-5.652-8.3-10.434-13.333-14.861a135.984,135.984,0,0,0-16.287-11.965C103.3,23.1,97.363,19.837,91.34,16.731Z" fill="#0e8743"/><path d="M68.058,62.589A192.734,192.734,0,0,1,47.9,57.637a157.846,157.846,0,0,1-19.447-7.4,92.986,92.986,0,0,1-9.236-4.883,64.41,64.41,0,0,1-8.563-6.081,29.391,29.391,0,0,1-6.913-8.113,13.065,13.065,0,0,1-1.566-5.33,9.957,9.957,0,0,1,1.326-5.5,14.159,14.159,0,0,1,3.744-4.087,27.338,27.338,0,0,1,4.67-2.688,49.612,49.612,0,0,1,10.1-3.08,100.449,100.449,0,0,1,20.8-1.732A173.2,173.2,0,0,1,63.557,10.3,198.014,198.014,0,0,1,83.94,14.231c-6.8-1.235-13.628-2.325-20.5-2.961a174.355,174.355,0,0,0-20.627-.992,110.2,110.2,0,0,0-20.436,1.975A47.862,47.862,0,0,0,12.7,15.291,25.572,25.572,0,0,0,8.422,17.8a12.352,12.352,0,0,0-3.191,3.522,7.968,7.968,0,0,0-1.108,4.412,11.158,11.158,0,0,0,1.307,4.54,27.614,27.614,0,0,0,6.41,7.62C16.98,42.341,23,45.748,29.115,48.852A159.057,159.057,0,0,0,48.2,56.71C54.7,59.016,61.359,60.875,68.058,62.589Z" fill="#0e8743"/><path d="M83.94,14.231a193.046,193.046,0,0,1,20.16,4.952,157.813,157.813,0,0,1,19.447,7.405,92.643,92.643,0,0,1,9.235,4.882,64.28,64.28,0,0,1,8.563,6.081,29.381,29.381,0,0,1,6.914,8.114,13.071,13.071,0,0,1,1.566,5.329,9.957,9.957,0,0,1-1.326,5.5,14.162,14.162,0,0,1-3.745,4.087,27.291,27.291,0,0,1-4.669,2.688,49.706,49.706,0,0,1-10.1,3.081,100.5,100.5,0,0,1-20.8,1.731,173.392,173.392,0,0,1-20.745-1.557,198.234,198.234,0,0,1-20.383-3.935c6.8,1.236,13.628,2.325,20.5,2.961a174.376,174.376,0,0,0,20.627.992,110.218,110.218,0,0,0,20.437-1.975,47.77,47.77,0,0,0,9.674-3.038,25.532,25.532,0,0,0,4.281-2.509,12.351,12.351,0,0,0,3.192-3.521,7.962,7.962,0,0,0,1.107-4.413,11.141,11.141,0,0,0-1.306-4.54,27.614,27.614,0,0,0-6.41-7.62c-5.14-4.447-11.164-7.854-17.275-10.958A159.124,159.124,0,0,0,103.8,20.11C97.3,17.8,90.639,15.945,83.94,14.231Z" fill="#0e8743"/><path d="M76,63.442a201.743,201.743,0,0,1-20.9-.5,170.81,170.81,0,0,1-20.748-2.928A92.892,92.892,0,0,1,14.3,53.641a38.657,38.657,0,0,1-9.06-5.636,18.656,18.656,0,0,1-3.609-4.147,9.914,9.914,0,0,1,0-10.9A18.605,18.605,0,0,1,5.24,28.814a38.591,38.591,0,0,1,9.06-5.636,92.9,92.9,0,0,1,20.047-6.372A171.22,171.22,0,0,1,55.1,13.878a202.02,202.02,0,0,1,20.9-.5c-6.961.246-13.91.633-20.809,1.476a172.352,172.352,0,0,0-20.509,3.454,100.753,100.753,0,0,0-19.6,6.515A36.832,36.832,0,0,0,6.5,30.248a16.73,16.73,0,0,0-3.194,3.72,8.189,8.189,0,0,0,0,8.886,16.757,16.757,0,0,0,3.2,3.72A36.872,36.872,0,0,0,15.079,52a100.906,100.906,0,0,0,19.6,6.517,172.772,172.772,0,0,0,20.51,3.453C62.088,62.811,69.038,63.2,76,63.442Z" fill="#0e8743"/><path d="M76,13.378a201.743,201.743,0,0,1,20.9.5A170.812,170.812,0,0,1,117.65,16.81,92.834,92.834,0,0,1,137.7,23.179a38.677,38.677,0,0,1,9.06,5.636,18.626,18.626,0,0,1,3.608,4.147,9.911,9.911,0,0,1,0,10.9,18.608,18.608,0,0,1-3.609,4.147,38.591,38.591,0,0,1-9.06,5.636,92.86,92.86,0,0,1-20.047,6.372A171.22,171.22,0,0,1,96.9,62.942a201.741,201.741,0,0,1-20.9.5c6.96-.246,13.91-.633,20.809-1.476a172.386,172.386,0,0,0,20.509-3.454A100.7,100.7,0,0,0,136.918,52a36.839,36.839,0,0,0,8.577-5.425,16.748,16.748,0,0,0,3.194-3.719,8.191,8.191,0,0,0,0-8.887,16.752,16.752,0,0,0-3.195-3.719,36.842,36.842,0,0,0-8.577-5.426,100.836,100.836,0,0,0-19.6-6.516,172.606,172.606,0,0,0-20.51-3.454C89.909,14.009,82.959,13.623,76,13.378Z" fill="#0e8743"/><path d="M83.94,62.589a197.975,197.975,0,0,1-20.384,3.932,172.755,172.755,0,0,1-20.744,1.556,100.362,100.362,0,0,1-20.8-1.729,49.64,49.64,0,0,1-10.1-3.08A27.454,27.454,0,0,1,7.245,60.58,14.242,14.242,0,0,1,3.5,56.494a9.929,9.929,0,0,1-1.328-5.5,13.065,13.065,0,0,1,1.566-5.33,29.367,29.367,0,0,1,6.914-8.114,64.355,64.355,0,0,1,8.564-6.081,92.653,92.653,0,0,1,9.234-4.885,158.138,158.138,0,0,1,19.448-7.4,192.8,192.8,0,0,1,20.161-4.95c-6.7,1.715-13.355,3.575-19.857,5.882a158.893,158.893,0,0,0-19.085,7.858c-6.11,3.105-12.137,6.507-17.275,10.956a27.608,27.608,0,0,0-6.409,7.62,11.159,11.159,0,0,0-1.307,4.539A8,8,0,0,0,5.231,55.5a12.251,12.251,0,0,0,3.19,3.522,25.478,25.478,0,0,0,4.282,2.51,47.842,47.842,0,0,0,9.675,3.038,110.372,110.372,0,0,0,20.436,1.977,175.025,175.025,0,0,0,20.628-.993C70.312,64.916,77.136,63.826,83.94,62.589Z" fill="#0e8743"/><path d="M68.058,14.231A197.737,197.737,0,0,1,88.441,10.3a172.772,172.772,0,0,1,20.745-1.557,100.362,100.362,0,0,1,20.8,1.729,49.678,49.678,0,0,1,10.1,3.081,27.291,27.291,0,0,1,4.669,2.688,14.226,14.226,0,0,1,3.746,4.085,9.931,9.931,0,0,1,1.328,5.5,13.071,13.071,0,0,1-1.566,5.33,29.405,29.405,0,0,1-6.914,8.115,64.347,64.347,0,0,1-8.564,6.08,92.445,92.445,0,0,1-9.234,4.885,158.143,158.143,0,0,1-19.448,7.4A192.8,192.8,0,0,1,83.94,62.589c6.7-1.715,13.355-3.575,19.857-5.881a158.9,158.9,0,0,0,19.085-7.859c6.11-3.1,12.136-6.507,17.275-10.956a27.642,27.642,0,0,0,6.409-7.62,11.141,11.141,0,0,0,1.306-4.539,7.993,7.993,0,0,0-1.105-4.412,12.282,12.282,0,0,0-3.19-3.523,25.518,25.518,0,0,0-4.282-2.51,47.9,47.9,0,0,0-9.675-3.038,110.383,110.383,0,0,0-20.437-1.977,175.008,175.008,0,0,0-20.627.993C81.685,11.9,74.861,12.994,68.058,14.231Z" fill="#0e8743"/><path d="M91.34,60.089A183.2,183.2,0,0,1,72.7,68.247a164.442,164.442,0,0,1-19.53,5.859,100.355,100.355,0,0,1-20.28,2.7,53.156,53.156,0,0,1-10.305-.717c-.858-.123-1.7-.369-2.555-.55-.837-.263-1.691-.463-2.511-.8a17.225,17.225,0,0,1-4.716-2.53,11.794,11.794,0,0,1-3.48-4.242,11.31,11.31,0,0,1-1.02-5.4,22.137,22.137,0,0,1,3.546-9.907,52.213,52.213,0,0,1,6.372-8.126,77.223,77.223,0,0,1,7.525-6.963,149.721,149.721,0,0,1,34.91-20.833C54.635,19.838,48.7,23.1,43.027,26.775A135.708,135.708,0,0,0,26.74,38.739c-5.031,4.428-9.872,9.207-13.334,14.86a20.362,20.362,0,0,0-3.192,9.052,9.36,9.36,0,0,0,.879,4.472,9.907,9.907,0,0,0,2.935,3.5,15.245,15.245,0,0,0,4.184,2.283c.742.321,1.544.513,2.318.767.8.175,1.587.416,2.406.539a51.417,51.417,0,0,0,9.929.776,110.772,110.772,0,0,0,19.983-2.381A166.078,166.078,0,0,0,72.38,67.327C78.817,65.26,85.109,62.754,91.34,60.089Z" fill="#0e8743"/><path d="M60.658,16.731A183.105,183.105,0,0,1,79.3,8.573a164.251,164.251,0,0,1,19.53-5.858,100.285,100.285,0,0,1,20.279-2.7,53.224,53.224,0,0,1,10.3.717c.859.123,1.7.369,2.555.55.838.263,1.692.463,2.511.8a17.27,17.27,0,0,1,4.717,2.53,11.8,11.8,0,0,1,3.479,4.242,11.286,11.286,0,0,1,1.02,5.4,22.136,22.136,0,0,1-3.545,9.907,52.273,52.273,0,0,1-6.372,8.126,77.1,77.1,0,0,1-7.525,6.963A149.721,149.721,0,0,1,91.34,60.089c6.023-3.107,11.96-6.366,17.631-10.044a135.617,135.617,0,0,0,16.286-11.964c5.032-4.428,9.872-9.206,13.335-14.859a20.38,20.38,0,0,0,3.191-9.053,9.348,9.348,0,0,0-.878-4.472,9.9,9.9,0,0,0-2.936-3.5,15.239,15.239,0,0,0-4.183-2.283c-.743-.321-1.545-.513-2.319-.766-.8-.176-1.587-.416-2.406-.54a51.4,51.4,0,0,0-9.928-.776A110.851,110.851,0,0,0,99.15,4.211,166.273,166.273,0,0,0,79.618,9.493C73.18,11.56,66.889,14.066,60.658,16.731Z" fill="#0e8743"/></svg>