<svg xmlns="http://www.w3.org/2000/svg" viewBox="0 0 152 101.999"><path d="M148.638,54.124C140.311,70.3,110.947,82.249,76,82.249c-39.315,0-71.567-15.126-74.744-34.374a19.2,19.2,0,0,1,0-6.249,20.125,20.125,0,0,0,.781,3.121v0a22.572,22.572,0,0,0,1.325,3.126A25.953,25.953,0,0,0,5.268,51C15.563,65.565,43.345,76,76,76s60.437-10.435,70.732-25A25.865,25.865,0,0,1,148.638,54.124Z" fill="none" stroke="#0e8743" stroke-miterlimit="10" stroke-width="2"/><path d="M149.963,57.25v0C144.01,74.986,113.161,88.5,76,88.5,36.683,88.5,4.432,73.372,1.256,54.124a19.2,19.2,0,0,1,0-6.249C4.433,67.123,36.685,82.249,76,82.249c34.947,0,64.311-11.95,72.638-28.125A22.572,22.572,0,0,1,149.963,57.25Z" fill="none" stroke="#0e8743" stroke-miterlimit="10" stroke-width="2"/><path d="M150.744,60.373v0C147.567,79.624,115.315,94.75,76,94.75S4.432,79.622,1.256,60.375a19.208,19.208,0,0,1,0-6.251C4.432,73.372,36.683,88.5,76,88.5c37.161,0,68.01-13.514,73.963-31.248A20.153,20.153,0,0,1,150.744,60.373Z" fill="none" stroke="#0e8743" stroke-miterlimit="10" stroke-width="2"/><path d="M151,63.5c0,20.71-33.579,37.5-75,37.5S1,84.209,1,63.5a19.27,19.27,0,0,1,.256-3.124C4.432,79.622,36.683,94.75,76,94.75s71.567-15.126,74.744-34.374A19.249,19.249,0,0,1,151,63.5Z" fill="none" stroke="#0e8743" stroke-miterlimit="10" stroke-width="2"/><path d="M151,57.25a19.249,19.249,0,0,1-.256,3.123,20.153,20.153,0,0,0-.781-3.121v0a22.572,22.572,0,0,0-1.325-3.126A25.865,25.865,0,0,0,146.732,51C136.437,36.434,108.655,26,76,26S15.563,36.434,5.268,51a25.953,25.953,0,0,1-1.906-3.125C11.689,31.7,41.053,19.75,76,19.75c39.315,0,71.567,15.126,74.744,34.374A19.3,19.3,0,0,1,151,57.25Z" fill="none" stroke="#0e8743" stroke-miterlimit="10" stroke-width="2"/><path d="M151,51a19.261,19.261,0,0,1-.256,3.124C147.567,34.876,115.315,19.75,76,19.75c-34.947,0-64.311,11.95-72.638,28.125a22.572,22.572,0,0,1-1.325-3.126v0C7.99,27.013,38.839,13.5,76,13.5c39.317,0,71.568,15.127,74.744,34.375A19.282,19.282,0,0,1,151,51Z" fill="none" stroke="#0e8743" stroke-miterlimit="10" stroke-width="2"/><path d="M151,44.749a19.3,19.3,0,0,1-.256,3.126C147.568,28.627,115.317,13.5,76,13.5,38.839,13.5,7.99,27.013,2.037,44.747a20.125,20.125,0,0,1-.781-3.121v0C4.433,22.375,36.685,7.249,76,7.249s71.568,15.128,74.744,34.376A19.261,19.261,0,0,1,151,44.749Z" fill="none" stroke="#0e8743" stroke-miterlimit="10" stroke-width="2"/><path d="M151,38.5a19.292,19.292,0,0,1-.256,3.125C147.568,22.377,115.317,7.249,76,7.249S4.433,22.375,1.256,41.623A19.249,19.249,0,0,1,1,38.5C1,17.79,34.579,1,76,1S151,17.79,151,38.5Z" fill="none" stroke="#0e8743" stroke-miterlimit="10" stroke-width="2"/></svg>