<svg xmlns="http://www.w3.org/2000/svg" viewBox="0 0 150 149.226"><path d="M82.668,149.226a20.043,20.043,0,0,1-2.52-.518c-.379-.1-.788-.218-1.221-.356l-.667-.223c-.194-.048-.368-.1-.573-.139a15.224,15.224,0,0,0-5.374,0c-.2.036-.379.091-.573.139l-.667.223c-.433.138-.842.256-1.221.356a20.043,20.043,0,0,1-2.52.518,19.989,19.989,0,0,1,1.756-1.881c.283-.271.6-.559.941-.856l.537-.453a6.651,6.651,0,0,1,.749-.487,7.818,7.818,0,0,1,7.37,0,6.651,6.651,0,0,1,.749.487l.537.453c.344.3.658.585.941.856A19.989,19.989,0,0,1,82.668,149.226Z" fill="#0e8743"/><path d="M59.885,148.089s1.44-1.188,3.88-2.9c.61-.427,1.283-.886,2.011-1.367l1.135-.738a12.819,12.819,0,0,1,1.4-.736,17.029,17.029,0,0,1,13.384,0,12.819,12.819,0,0,1,1.4.736l1.135.738c.728.481,1.4.94,2.011,1.367,2.44,1.708,3.88,2.9,3.88,2.9s-1.8-.5-4.6-1.509c-.7-.254-1.463-.54-2.275-.859l-1.253-.5c-.394-.137-.787-.289-1.218-.4a23.663,23.663,0,0,0-11.538,0c-.431.11-.824.262-1.218.4l-1.253.5c-.812.319-1.575.6-2.275.859C61.685,147.594,59.885,148.089,59.885,148.089Z" fill="#0e8743"/><path d="M97.3,146.241s-2.573-.8-6.63-2.311c-1.014-.378-2.12-.8-3.3-1.266l-1.823-.723-.9-.323c-.3-.11-.629-.186-.946-.284a35.55,35.55,0,0,0-17.4,0c-.317.1-.644.174-.946.284l-.9.323-1.823.723c-1.183.466-2.289.888-3.3,1.266-4.057,1.511-6.63,2.311-6.63,2.311s2.236-1.505,5.954-3.72c.93-.554,1.952-1.153,3.055-1.783.556-.315,1.116-.639,1.722-.967l.985-.494c.335-.165.685-.29,1.036-.439a27.528,27.528,0,0,1,19.1,0c.351.149.7.274,1.036.439l.985.494c.606.328,1.166.652,1.722.967,1.1.63,2.125,1.229,3.055,1.783C95.067,144.736,97.3,146.241,97.3,146.241Z" fill="#0e8743"/><path d="M45.807,143.719s3.006-1.751,7.963-4.361c1.239-.652,2.6-1.358,4.067-2.1.739-.372,1.481-.759,2.29-1.145l1.279-.574c.436-.181.887-.333,1.341-.5a39.375,39.375,0,0,1,24.506,0c.454.17.905.322,1.341.5l1.279.574c.809.386,1.551.773,2.29,1.145,1.466.746,2.828,1.452,4.067,2.1,4.957,2.61,7.963,4.361,7.963,4.361s-3.321-1.036-8.593-2.931c-1.318-.473-2.758-1-4.3-1.579l-2.377-.894-1.2-.41c-.408-.129-.834-.233-1.257-.355a49.49,49.49,0,0,0-22.944,0c-.423.122-.849.226-1.257.355l-1.2.41-2.377.894c-1.54.578-2.98,1.106-4.3,1.579C49.128,142.683,45.807,143.719,45.807,143.719Z" fill="#0e8743"/><path d="M110.749,140.561s-4.038-1.2-10.477-3.374l-5.255-1.806c-.938-.322-1.924-.689-2.908-1.015l-1.479-.472-1.552-.4a52.415,52.415,0,0,0-6.727-1.143c-2.364-.24-4.826-.372-7.351-.384-2.525.012-4.987.144-7.351.384a52.415,52.415,0,0,0-6.727,1.143l-1.552.4-1.479.472c-.984.326-1.97.693-2.908,1.015l-5.255,1.806c-6.439,2.17-10.477,3.374-10.477,3.374s3.746-1.929,9.894-4.824l5.04-2.337c.916-.412,1.832-.847,2.835-1.27l1.56-.632,1.63-.546a45.26,45.26,0,0,1,7.069-1.572,55.265,55.265,0,0,1,15.442,0,45.26,45.26,0,0,1,7.069,1.572l1.63.546,1.56.632c1,.423,1.919.858,2.835,1.27l5.04,2.337C107,138.632,110.749,140.561,110.749,140.561Z" fill="#0e8743"/><path d="M33.067,136.8s4.452-2.042,11.733-5.117l5.966-2.485c1.083-.437,2.166-.9,3.353-1.348l1.825-.664,1.9-.57a58.7,58.7,0,0,1,8.212-1.634,71.4,71.4,0,0,1,17.882,0,58.7,58.7,0,0,1,8.212,1.634l1.9.57,1.825.664c1.187.444,2.27.911,3.353,1.348l5.966,2.485c7.281,3.075,11.733,5.117,11.733,5.117s-4.72-1.308-12.269-3.65L98.5,131.209c-1.1-.346-2.258-.746-3.414-1.09l-1.749-.511-1.83-.431a68.462,68.462,0,0,0-7.9-1.219c-2.77-.255-5.652-.395-8.607-.409-2.955.014-5.837.154-8.607.409a68.462,68.462,0,0,0-7.9,1.219l-1.83.431-1.749.511c-1.156.344-2.313.744-3.414,1.09l-6.163,1.945C37.787,135.5,33.067,136.8,33.067,136.8Z" fill="#0e8743"/><path d="M122.707,132.486s-5.361-1.351-13.954-3.765l-7.017-2.005c-1.255-.356-2.571-.772-3.89-1.12-.66-.17-1.323-.357-2-.524l-2.089-.445a87.748,87.748,0,0,0-8.989-1.242c-3.145-.258-6.414-.4-9.765-.414-3.351.014-6.62.156-9.765.414a87.748,87.748,0,0,0-8.989,1.242l-2.089.445c-.68.167-1.343.354-2,.524-1.319.348-2.635.764-3.89,1.12l-7.017,2.005c-8.593,2.414-13.954,3.765-13.954,3.765s5.117-2.093,13.466-5.25l6.838-2.55c1.24-.447,2.482-.932,3.84-1.381.68-.221,1.37-.457,2.074-.671l2.155-.579a74.49,74.49,0,0,1,9.27-1.646,90.232,90.232,0,0,1,20.128,0,74.49,74.49,0,0,1,9.27,1.646l2.155.579c.7.214,1.394.45,2.074.671,1.358.449,2.6.934,3.84,1.381l6.838,2.55C117.59,130.393,122.707,132.486,122.707,132.486Z" fill="#0e8743"/><path d="M21.967,127.646s5.736-2.087,15.077-5.23l7.649-2.54c1.387-.443,2.778-.93,4.292-1.371.756-.216,1.521-.458,2.3-.659l2.388-.572a93.22,93.22,0,0,1,10.237-1.611c3.572-.344,7.284-.535,11.086-.55,3.8.015,7.514.206,11.086.55a93.22,93.22,0,0,1,10.237,1.611l2.388.572c.783.2,1.548.443,2.3.659,1.514.441,2.905.928,4.292,1.371l7.649,2.54c9.341,3.143,15.077,5.23,15.077,5.23s-5.956-1.338-15.517-3.731l-7.81-1.988c-1.4-.352-2.862-.768-4.332-1.109-.737-.167-1.477-.36-2.239-.516l-2.326-.442c-3.157-.533-6.5-.948-9.987-1.218-3.488-.251-7.11-.389-10.822-.4-3.712.015-7.334.153-10.822.4-3.486.27-6.83.685-9.987,1.218l-2.326.442c-.762.156-1.5.349-2.239.516-1.47.341-2.935.757-4.332,1.109l-7.81,1.988C27.922,126.308,21.967,127.646,21.967,127.646Z" fill="#0e8743"/><path d="M132.874,122.32s-6.5-1.269-16.944-3.554l-8.535-1.9c-1.527-.334-3.128-.736-4.736-1.058-.808-.158-1.618-.35-2.455-.491l-2.542-.422c-3.448-.505-7.094-.893-10.888-1.151-3.8-.236-7.737-.365-11.774-.38-4.037.015-7.977.144-11.774.38-3.794.258-7.44.646-10.888,1.151l-2.542.422c-.837.141-1.647.333-2.455.491-1.608.322-3.209.724-4.736,1.058l-8.535,1.9c-10.446,2.285-16.944,3.554-16.944,3.554s6.3-2.026,16.555-5.067l8.391-2.456c1.52-.428,3.05-.9,4.7-1.322.825-.206,1.659-.445,2.512-.63l2.6-.549c3.519-.666,7.239-1.186,11.109-1.535,3.87-.327,7.888-.508,12-.523,4.116.015,8.134.2,12,.523,3.87.349,7.59.869,11.109,1.535l2.6.549c.853.185,1.687.424,2.512.63,1.655.419,3.185.894,4.7,1.322l8.391,2.456C126.57,120.294,132.874,122.32,132.874,122.32Z" fill="#0e8743"/><path d="M12.809,116.546s6.814-1.913,17.882-4.771l9.06-2.305c1.639-.4,3.294-.849,5.074-1.237.886-.19,1.782-.418,2.7-.583l2.785-.512c3.768-.617,7.745-1.1,11.878-1.422,4.134-.3,8.421-.471,12.814-.485,4.393.014,8.68.182,12.814.485,4.133.326,8.11.805,11.878,1.422l2.785.512c.916.165,1.812.393,2.7.583,1.78.388,3.435.837,5.074,1.237l9.06,2.305c11.068,2.858,17.882,4.771,17.882,4.771s-6.983-1.15-18.221-3.245l-9.184-1.746c-1.644-.307-3.366-.68-5.1-.972-.871-.144-1.745-.326-2.647-.449l-2.736-.388c-3.708-.46-7.62-.81-11.688-1.046-4.071-.213-8.291-.33-12.616-.344-4.325.014-8.545.131-12.616.344-4.068.236-7.981.586-11.688,1.046l-2.736.388c-.9.123-1.776.3-2.647.449-1.733.292-3.455.665-5.1.972L31.03,113.3C19.792,115.4,12.809,116.546,12.809,116.546Z" fill="#0e8743"/><path d="M140.948,110.362s-7.406-.985-19.335-2.815l-9.75-1.528c-3.521-.568-7.206-1.178-11.137-1.586s-8.077-.7-12.382-.907c-4.307-.183-8.77-.284-13.344-.3-4.574.013-9.037.114-13.344.3-4.3.206-8.449.507-12.383.907s-7.615,1.018-11.136,1.586l-9.75,1.528c-11.929,1.83-19.335,2.815-19.335,2.815s7.263-1.753,19.049-4.351l9.644-2.092c3.45-.741,7.215-1.541,11.2-2.1s8.182-.982,12.542-1.276c4.36-.272,8.88-.423,13.51-.436,4.63.013,9.15.164,13.51.436,4.36.294,8.558.723,12.542,1.276s7.753,1.362,11.2,2.1l9.644,2.092C133.685,108.609,140.948,110.362,140.948,110.362Z" fill="#0e8743"/><path d="M5.894,103.806s7.644-1.55,20.038-3.818l10.141-1.823c3.631-.647,7.578-1.331,11.744-1.819s8.547-.845,13.1-1.1c4.548-.234,9.261-.365,14.088-.376,4.827.011,9.54.142,14.088.376,4.548.257,8.93.625,13.1,1.1s8.113,1.172,11.744,1.819l10.141,1.823c12.394,2.268,20.038,3.818,20.038,3.818s-7.76-.778-20.271-2.273l-10.227-1.256c-3.689-.47-7.568-.97-11.689-1.307s-8.461-.569-12.965-.738c-4.5-.147-9.172-.228-13.954-.239-4.782.011-9.449.092-13.954.239-4.5.169-8.842.412-12.965.738s-8,.837-11.689,1.307l-10.227,1.256C13.654,103.028,5.894,103.806,5.894,103.806Z" fill="#0e8743"/><path d="M146.628,96.916s-8.042-.532-21.017-1.632L115,94.353c-3.823-.354-7.858-.728-12.132-.98s-8.768-.417-13.431-.542c-4.663-.106-9.493-.164-14.441-.173-4.948.009-9.778.067-14.441.173-4.663.125-9.157.3-13.431.542S38.819,94,35,94.353l-10.607.931c-12.975,1.1-21.017,1.632-21.017,1.632s7.953-1.309,20.838-3.184l10.542-1.5c3.778-.532,7.868-1.085,12.175-1.486s8.834-.691,13.53-.9c4.7-.192,9.56-.3,14.543-.309,4.983.009,9.847.117,14.543.309,4.7.211,9.223.513,13.53.9s8.4.954,12.175,1.486l10.542,1.5C138.675,95.607,146.628,96.916,146.628,96.916Z" fill="#0e8743"/><path d="M1.524,89.728S9.708,88.7,22.959,87.27L33.8,86.135c3.889-.4,8.081-.809,12.49-1.11s9.041-.519,13.843-.679,9.775-.229,14.869-.235,10.067.089,14.869.235,9.434.387,13.843.679,8.6.71,12.49,1.11l10.839,1.135c13.251,1.427,21.435,2.458,21.435,2.458s-8.245-.252-21.557-.9l-10.884-.563c-3.919-.219-8.072-.453-12.459-.606s-9-.249-13.776-.323-9.73-.094-14.8-.1-10.02.04-14.8.1-9.388.178-13.776.323-8.54.387-12.459.606l-10.884.563C9.769,89.476,1.524,89.728,1.524,89.728Z" fill="#0e8743"/><path d="M149.613,82.281s-8.365.057-21.878-.092L104.02,81.84c-8.917-.083-18.725-.1-29.02-.1s-20.1.019-29.02.1l-23.715.349c-13.513.149-21.878.092-21.878.092S8.72,81.557,22.2,80.628L33.231,79.9c3.96-.253,8.21-.505,12.68-.7,8.939-.377,18.77-.587,29.089-.591s20.15.214,29.089.591c4.47.191,8.72.443,12.68.7l11.028.728C141.28,81.557,149.613,82.281,149.613,82.281Z" fill="#0e8743"/><path d="M149.613,66.944s-8.333.724-21.816,1.654l-11.028.728c-3.96.252-8.21.5-12.68.7-8.939.376-18.77.587-29.089.59s-20.15-.214-29.089-.59c-4.47-.192-8.72-.444-12.68-.7L22.2,68.6C8.72,67.668.387,66.944.387,66.944s8.365-.056,21.878.093l23.715.349c8.917.083,18.725.1,29.02.1s20.1-.018,29.02-.1l23.715-.349C141.248,66.888,149.613,66.944,149.613,66.944Z" fill="#0e8743"/><path d="M1.524,59.5s8.245.252,21.557.9l10.884.563c3.919.219,8.072.453,12.459.606s9,.249,13.776.323,9.73.093,14.8.1,10.02-.039,14.8-.1,9.389-.178,13.776-.323,8.54-.387,12.459-.606l10.884-.563c13.312-.648,21.557-.9,21.557-.9s-8.184,1.031-21.435,2.458L116.2,63.09c-3.889.4-8.081.809-12.49,1.11s-9.041.52-13.843.68-9.775.228-14.869.234-10.067-.088-14.869-.234-9.434-.387-13.843-.68-8.6-.709-12.49-1.11L22.959,61.956C9.708,60.529,1.524,59.5,1.524,59.5Z" fill="#0e8743"/><path d="M146.628,52.31s-7.953,1.308-20.838,3.184L115.248,57c-3.778.533-7.868,1.086-12.175,1.486s-8.834.691-13.53.9c-4.7.193-9.56.3-14.543.309-4.983-.008-9.847-.116-14.543-.309-4.7-.211-9.223-.512-13.53-.9S38.53,57.528,34.752,57l-10.542-1.5C11.325,53.618,3.372,52.31,3.372,52.31s8.042.532,21.017,1.632L35,54.873c3.823.353,7.858.728,12.132.979s8.768.418,13.431.542c4.663.106,9.493.165,14.441.173,4.948-.008,9.778-.067,14.441-.173,4.663-.124,9.157-.3,13.431-.542s8.309-.626,12.132-.979l10.607-.931C138.586,52.842,146.628,52.31,146.628,52.31Z" fill="#0e8743"/><path d="M5.894,45.419s7.76.778,20.271,2.274l10.227,1.255c3.689.47,7.568.971,11.689,1.308s8.461.569,12.965.738c4.505.147,9.172.228,13.954.239,4.782-.011,9.449-.092,13.954-.239,4.5-.169,8.842-.413,12.965-.738s8-.838,11.689-1.308l10.227-1.255c12.511-1.5,20.271-2.274,20.271-2.274s-7.644,1.551-20.038,3.819L113.927,51.06c-3.631.647-7.578,1.331-11.744,1.819s-8.547.846-13.1,1.1c-4.548.235-9.261.366-14.088.377-4.827-.011-9.54-.142-14.088-.377-4.548-.256-8.93-.625-13.095-1.1S39.7,51.707,36.073,51.06L25.932,49.238C13.538,46.97,5.894,45.419,5.894,45.419Z" fill="#0e8743"/><path d="M140.948,38.863s-7.263,1.754-19.049,4.351l-9.644,2.093c-3.45.741-7.215,1.54-11.2,2.1s-8.182.982-12.542,1.277c-4.36.272-8.88.423-13.51.435-4.63-.012-9.15-.163-13.51-.435-4.36-.3-8.558-.723-12.542-1.277s-7.753-1.361-11.2-2.1L28.1,43.214c-11.786-2.6-19.049-4.351-19.049-4.351s7.406.986,19.335,2.815l9.75,1.529c3.521.568,7.206,1.178,11.136,1.586s8.078.7,12.383.907c4.307.183,8.77.284,13.344.3,4.574-.012,9.037-.113,13.344-.3,4.305-.206,8.449-.508,12.382-.907s7.616-1.018,11.137-1.586l9.75-1.529C133.542,39.849,140.948,38.863,140.948,38.863Z" fill="#0e8743"/><path d="M12.809,32.68s6.983,1.15,18.221,3.245l9.184,1.745c1.644.307,3.366.68,5.1.972.871.145,1.745.327,2.647.45l2.736.387c3.707.46,7.62.81,11.688,1.046,4.071.213,8.291.33,12.616.344,4.325-.014,8.545-.131,12.616-.344,4.068-.236,7.98-.586,11.688-1.046l2.736-.387c.9-.123,1.776-.3,2.647-.45,1.733-.292,3.455-.665,5.1-.972l9.184-1.745c11.238-2.095,18.221-3.245,18.221-3.245s-6.814,1.913-17.882,4.77l-9.06,2.306c-1.639.4-3.294.848-5.074,1.236-.886.191-1.782.419-2.7.584l-2.785.511c-3.768.617-7.745,1.1-11.878,1.423-4.134.3-8.421.47-12.814.484-4.393-.014-8.68-.182-12.814-.484-4.133-.326-8.11-.806-11.878-1.423l-2.785-.511c-.916-.165-1.812-.393-2.7-.584-1.78-.388-3.435-.837-5.074-1.236l-9.06-2.306C19.623,34.593,12.809,32.68,12.809,32.68Z" fill="#0e8743"/><path d="M132.874,26.906s-6.3,2.025-16.555,5.067l-8.391,2.456c-1.52.427-3.05.9-4.7,1.322-.825.206-1.659.445-2.512.63l-2.6.548C94.594,37.6,90.874,38.115,87,38.464c-3.87.327-7.888.509-12,.524-4.116-.015-8.134-.2-12-.524-3.87-.349-7.59-.869-11.109-1.535l-2.6-.548c-.853-.185-1.687-.424-2.512-.63-1.655-.419-3.185-.895-4.7-1.322l-8.391-2.456c-10.251-3.042-16.555-5.067-16.555-5.067s6.5,1.269,16.944,3.554l8.535,1.9c1.527.335,3.128.737,4.736,1.058.808.159,1.618.35,2.455.492l2.542.421c3.448.5,7.094.894,10.888,1.151,3.8.236,7.737.366,11.774.381,4.037-.015,7.977-.145,11.774-.381,3.794-.257,7.44-.646,10.888-1.151l2.542-.421c.837-.142,1.647-.333,2.455-.492,1.608-.321,3.209-.723,4.736-1.058l8.535-1.9C126.376,28.175,132.874,26.906,132.874,26.906Z" fill="#0e8743"/><path d="M21.967,21.58s5.955,1.337,15.517,3.73l7.81,1.989c1.4.351,2.862.768,4.332,1.108.737.168,1.477.361,2.239.517l2.326.441c3.157.534,6.5.949,9.987,1.218,3.488.251,7.11.39,10.822.4,3.712-.014,7.334-.153,10.822-.4,3.486-.269,6.83-.684,9.987-1.218l2.326-.441c.762-.156,1.5-.349,2.239-.517,1.47-.34,2.935-.757,4.332-1.108l7.81-1.989c9.561-2.393,15.517-3.73,15.517-3.73s-5.736,2.087-15.077,5.23l-7.649,2.539c-1.387.443-2.778.931-4.292,1.371-.756.217-1.521.458-2.3.66l-2.388.571a92.981,92.981,0,0,1-10.237,1.611c-3.572.345-7.284.536-11.086.55-3.8-.014-7.514-.205-11.086-.55a92.981,92.981,0,0,1-10.237-1.611l-2.388-.571c-.783-.2-1.548-.443-2.3-.66-1.514-.44-2.905-.928-4.292-1.371L37.044,26.81C27.7,23.667,21.967,21.58,21.967,21.58Z" fill="#0e8743"/><path d="M122.707,16.739s-5.117,2.094-13.466,5.25l-6.838,2.55c-1.24.447-2.482.932-3.84,1.381-.68.221-1.37.458-2.074.672l-2.155.579a74.49,74.49,0,0,1-9.27,1.646A97,97,0,0,1,75,29.38a97,97,0,0,1-10.064-.563,74.49,74.49,0,0,1-9.27-1.646l-2.155-.579c-.7-.214-1.394-.451-2.074-.672-1.358-.449-2.6-.934-3.84-1.381l-6.838-2.55c-8.349-3.156-13.466-5.25-13.466-5.25s5.361,1.352,13.954,3.766l7.017,2.005c1.255.355,2.571.771,3.89,1.12.66.17,1.323.357,2,.524l2.089.444a88.021,88.021,0,0,0,8.989,1.243c3.145.258,6.414.4,9.765.414,3.351-.015,6.62-.156,9.765-.414A88.021,88.021,0,0,0,93.754,24.6l2.089-.444c.68-.167,1.343-.354,2-.524,1.319-.349,2.635-.765,3.89-1.12l7.017-2.005C117.346,18.091,122.707,16.739,122.707,16.739Z" fill="#0e8743"/><path d="M33.067,12.422s4.72,1.308,12.269,3.649L51.5,18.017c1.1.346,2.258.746,3.414,1.089l1.749.512,1.83.431a68.9,68.9,0,0,0,7.9,1.219c2.77.255,5.652.394,8.607.408,2.955-.014,5.837-.153,8.607-.408a68.9,68.9,0,0,0,7.9-1.219l1.83-.431,1.749-.512c1.156-.343,2.313-.743,3.414-1.089l6.163-1.946c7.549-2.341,12.269-3.649,12.269-3.649s-4.452,2.042-11.733,5.117l-5.966,2.484c-1.083.437-2.166.905-3.353,1.349l-1.825.664-1.9.569a58.551,58.551,0,0,1-8.212,1.635A76.407,76.407,0,0,1,75,24.8a76.407,76.407,0,0,1-8.941-.561,58.551,58.551,0,0,1-8.212-1.635l-1.9-.569-1.825-.664c-1.187-.444-2.27-.912-3.353-1.349L44.8,17.539C37.519,14.464,33.067,12.422,33.067,12.422Z" fill="#0e8743"/><path d="M110.749,8.665s-3.746,1.929-9.894,4.824l-5.04,2.337c-.916.412-1.832.847-2.835,1.27l-1.56.631-1.63.546a45.146,45.146,0,0,1-7.069,1.572A58.928,58.928,0,0,1,75,20.387a58.928,58.928,0,0,1-7.721-.542,45.146,45.146,0,0,1-7.069-1.572l-1.63-.546L57.02,17.1c-1-.423-1.919-.858-2.835-1.27l-5.04-2.337c-6.148-2.9-9.894-4.824-9.894-4.824s4.038,1.2,10.477,3.374l5.255,1.8c.938.323,1.924.69,2.908,1.015l1.479.473,1.552.4a52.415,52.415,0,0,0,6.727,1.143c2.364.241,4.826.372,7.351.385,2.525-.013,4.987-.144,7.351-.385a52.415,52.415,0,0,0,6.727-1.143l1.552-.4,1.479-.473c.984-.325,1.97-.692,2.908-1.015l5.255-1.8C106.711,9.869,110.749,8.665,110.749,8.665Z" fill="#0e8743"/><path d="M45.807,5.507s3.321,1.035,8.593,2.93c1.318.474,2.758,1,4.3,1.58l2.377.894,1.2.41c.408.129.834.233,1.257.354A46.414,46.414,0,0,0,75,13.024a46.414,46.414,0,0,0,11.472-1.349c.423-.121.849-.225,1.257-.354l1.2-.41,2.377-.894c1.54-.579,2.98-1.106,4.3-1.58,5.272-1.895,8.593-2.93,8.593-2.93s-3.006,1.75-7.963,4.36c-1.239.653-2.6,1.359-4.067,2.1-.739.372-1.481.759-2.29,1.144l-1.279.574c-.436.182-.887.334-1.341.5A37.87,37.87,0,0,1,75,16.149a37.87,37.87,0,0,1-12.253-1.955c-.454-.17-.905-.322-1.341-.5l-1.279-.574c-.809-.385-1.551-.772-2.29-1.144-1.466-.746-2.828-1.452-4.067-2.1C48.813,7.257,45.807,5.507,45.807,5.507Z" fill="#0e8743"/><path d="M97.3,2.985s-2.236,1.5-5.954,3.72c-.93.554-1.952,1.152-3.055,1.783-.556.314-1.116.638-1.722.967l-.985.493c-.335.166-.685.291-1.036.439A26.531,26.531,0,0,1,75,12.1a26.531,26.531,0,0,1-9.551-1.71c-.351-.148-.7-.273-1.036-.439l-.985-.493c-.606-.329-1.166-.653-1.722-.967-1.1-.631-2.125-1.229-3.055-1.783C54.933,4.489,52.7,2.985,52.7,2.985s2.573.8,6.63,2.311c1.014.378,2.12.8,3.3,1.265l1.823.724.9.323c.3.11.629.185.946.283A33.256,33.256,0,0,0,75,8.972a33.256,33.256,0,0,0,8.7-1.081c.317-.1.644-.173.946-.283l.9-.323,1.823-.724c1.183-.465,2.289-.887,3.3-1.265C94.73,3.785,97.3,2.985,97.3,2.985Z" fill="#0e8743"/><path d="M59.885,1.136s1.8.5,4.6,1.51c.7.253,1.463.539,2.275.858l1.253.5c.394.137.787.289,1.218.4A22.024,22.024,0,0,0,75,5.119,22.024,22.024,0,0,0,80.769,4.4c.431-.11.824-.262,1.218-.4l1.253-.5c.812-.319,1.575-.6,2.275-.858,2.8-1.014,4.6-1.51,4.6-1.51s-1.44,1.189-3.88,2.9c-.61.427-1.283.887-2.011,1.368l-1.135.737a13,13,0,0,1-1.4.737A16.494,16.494,0,0,1,75,8.244a16.494,16.494,0,0,1-6.692-1.37,13,13,0,0,1-1.4-.737L65.776,5.4c-.728-.481-1.4-.941-2.011-1.368C61.325,2.325,59.885,1.136,59.885,1.136Z" fill="#0e8743"/><path d="M82.668,0a19.989,19.989,0,0,1-1.756,1.881c-.283.27-.6.558-.941.856l-.537.453a6.51,6.51,0,0,1-.749.486A7.679,7.679,0,0,1,75,4.6a7.679,7.679,0,0,1-3.685-.924,6.51,6.51,0,0,1-.749-.486l-.537-.453c-.344-.3-.658-.586-.941-.856A19.989,19.989,0,0,1,67.332,0a20.043,20.043,0,0,1,2.52.518c.379.1.788.218,1.221.356l.667.222c.194.049.368.1.573.139A13.744,13.744,0,0,0,75,1.475a13.744,13.744,0,0,0,2.687-.24c.2-.036.379-.09.573-.139l.667-.222c.433-.138.842-.256,1.221-.356A20.043,20.043,0,0,1,82.668,0Z" fill="#0e8743"/><path d="M0,74.613S33.579,73.05,75,73.05s75,1.563,75,1.563-33.579,1.562-75,1.562S0,74.613,0,74.613Z" fill="#0e8743"/></svg>