<?xml version="1.0" encoding="utf-8"?>
<!-- Generator: Adobe Illustrator 24.1.0, SVG Export Plug-In . SVG Version: 6.00 Build 0)  -->
<svg version="1.1" id="Layer_1" xmlns="http://www.w3.org/2000/svg" xmlns:xlink="http://www.w3.org/1999/xlink" x="0px" y="0px"
	 viewBox="0 0 152 168.2" style="enable-background:new 0 0 152 168.2;" xml:space="preserve">
<style type="text/css">
	.st0{fill:#0E8743;}
	.st1{fill:none;stroke:#0E8743;stroke-width:2;stroke-miterlimit:10;}
	.st2{fill:none;stroke:#0E8743;stroke-width:4;stroke-miterlimit:10;}
	.st3{fill:none;stroke:#0E8743;stroke-miterlimit:10;}
</style>
<g id="XMLID_67_">
	<g id="XMLID_68_">
		<g id="XMLID_69_">
			<g id="XMLID_132_">
				<path class="st0" d="M147.9,136.8c1.6,1.1,2.9,2.4,4.1,3.7c-1.7-0.5-3.5-0.8-5.1-0.9c-0.9,0-1.5-0.8-1.5-1.6
					c0-0.9,0.8-1.5,1.6-1.5C147.3,136.5,147.6,136.6,147.9,136.8L147.9,136.8z"/>
			</g>
			<g id="XMLID_130_">
				<path class="st0" d="M136.8,127.2c2.8-0.1,5.5,0.2,8.1,1.1c2.6,0.8,4.9,2.2,7.1,3.7c-2.4-1.1-4.9-1.9-7.4-2.2
					c-2.5-0.3-5-0.1-7.4,0.4c-0.8,0.2-1.6-0.3-1.8-1.1c-0.2-0.8,0.3-1.6,1.1-1.8C136.6,127.2,136.7,127.2,136.8,127.2L136.8,127.2z"
					/>
			</g>
			<g id="XMLID_128_">
				<path class="st0" d="M125.8,122.9c4.1-2.1,8.7-3.5,13.3-3.5c2.3,0,4.6,0.4,6.8,1.1c2.2,0.7,4.2,1.7,6.1,2.9
					c-2-1-4.1-1.8-6.2-2.2c-2.2-0.4-4.3-0.5-6.5-0.3c-4.3,0.5-8.3,2.3-11.9,4.6c-0.7,0.5-1.6,0.3-2.1-0.4s-0.3-1.6,0.4-2.1
					C125.7,123,125.8,122.9,125.8,122.9z"/>
			</g>
			<g id="XMLID_126_">
				<path class="st0" d="M115.2,122.8c2.6-2.2,5.2-4.3,8.1-6.2c2.9-1.8,5.9-3.4,9.2-4.4c3.3-1,6.7-1.4,10.1-0.9
					c3.4,0.5,6.5,1.7,9.4,3.5c-3-1.5-6.2-2.6-9.4-2.8c-3.3-0.2-6.5,0.4-9.5,1.6c-3,1.2-5.8,2.9-8.4,4.8c-2.6,2-5,4.2-7.3,6.5
					c-0.6,0.6-1.5,0.6-2.1,0S114.5,123.5,115.2,122.8C115.1,122.8,115.1,122.8,115.2,122.8z"/>
			</g>
			<g id="XMLID_124_">
				<path class="st0" d="M104.6,125.9c3-3.5,6.2-7,9.6-10.3c3.4-3.2,7-6.2,11.1-8.6c4.1-2.4,8.6-4.1,13.3-4.3
					c4.7-0.3,9.4,1.2,13.3,3.6c-4.1-2.2-8.7-3.4-13.3-2.9c-4.5,0.5-8.8,2.4-12.6,4.9c-3.8,2.5-7.2,5.6-10.3,8.9
					c-3.1,3.3-6,6.9-8.8,10.6c-0.5,0.7-1.4,0.8-2.1,0.3C104.2,127.6,104.1,126.6,104.6,125.9C104.6,125.9,104.6,125.9,104.6,125.9z"
					/>
			</g>
			<g id="XMLID_118_">
				<path class="st0" d="M94.2,131.4c3.6-4.9,7.2-9.8,11.1-14.5c3.9-4.7,8.2-9.2,12.9-13.1c2.4-1.9,4.8-3.8,7.5-5.4
					c2.7-1.5,5.5-2.8,8.5-3.5c3-0.7,6.1-0.9,9.2-0.4c3,0.5,5.9,1.6,8.5,3.2c-2.7-1.5-5.6-2.5-8.6-2.9c-3-0.4-6-0.1-8.9,0.7
					c-2.9,0.8-5.6,2.1-8.1,3.7c-2.5,1.6-4.9,3.5-7.1,5.5c-4.5,4-8.5,8.6-12.1,13.3c-3.7,4.8-7.1,9.8-10.4,14.9
					c-0.5,0.7-1.4,0.9-2.1,0.4C93.9,133.1,93.7,132.1,94.2,131.4C94.2,131.4,94.2,131.4,94.2,131.4z"/>
			</g>
			<g id="XMLID_116_">
				<path class="st0" d="M83.8,138.4c4.3-6.3,8.5-12.7,13-18.9c4.5-6.2,9.4-12.2,14.8-17.7c2.7-2.7,5.5-5.4,8.5-7.8
					c3-2.4,6.3-4.5,9.8-6c3.5-1.5,7.4-2.5,11.2-2.3c3.9,0.2,7.6,1.4,10.8,3.5c-3.3-2-7-3.1-10.8-3.2c-3.8-0.1-7.5,1-10.9,2.6
					c-3.4,1.6-6.5,3.8-9.4,6.2c-2.9,2.5-5.6,5.2-8.1,7.9c-5.2,5.6-9.7,11.7-14,17.9c-4.3,6.3-8.3,12.8-12.3,19.3
					c-0.4,0.7-1.4,0.9-2.1,0.5C83.5,140,83.3,139.1,83.8,138.4C83.8,138.4,83.8,138.4,83.8,138.4z"/>
			</g>
			<g id="XMLID_114_">
				<path class="st0" d="M73.4,146c5.1-7.7,10-15.5,15.2-23.2c5.2-7.7,10.6-15.2,16.7-22.3c3-3.5,6.1-7,9.5-10.2
					c3.4-3.2,7-6.2,11-8.6c1-0.6,2-1.2,3.1-1.7l1.6-0.8l1.6-0.6c1.1-0.5,2.2-0.7,3.3-1c0.6-0.2,1.1-0.2,1.7-0.3
					c0.6-0.1,1.1-0.2,1.7-0.2c4.7-0.3,9.4,1,13.2,3.5c-3.9-2.5-8.6-3.6-13.2-3.2c-0.6,0-1.1,0.2-1.7,0.3c-0.6,0.1-1.1,0.2-1.7,0.3
					c-1.1,0.4-2.2,0.6-3.3,1.1l-1.6,0.7l-1.5,0.8c-1,0.5-2,1.1-3,1.7c-7.7,5-13.9,12-19.7,19.2c-5.8,7.2-11,14.8-15.9,22.6
					c-5,7.8-9.7,15.7-14.6,23.6c-0.4,0.7-1.4,0.9-2.1,0.5C73.1,147.7,72.9,146.8,73.4,146C73.4,146,73.4,146,73.4,146z"/>
			</g>
			<g id="XMLID_112_">
				<path class="st0" d="M63,153.4c12.1-17.9,23.2-36.7,36.4-53.9c3.3-4.3,6.8-8.5,10.4-12.6c3.6-4,7.5-7.9,11.9-11.2
					c4.3-3.3,9.3-6,14.7-7c2.7-0.5,5.5-0.5,8.1,0.1c2.7,0.6,5.2,1.7,7.5,3.1c-2.3-1.4-4.9-2.5-7.5-3c-2.6-0.5-5.4-0.5-8,0.1
					c-5.3,1.1-10.1,3.9-14.3,7.2c-4.2,3.3-8,7.2-11.5,11.3c-3.5,4.1-6.8,8.4-10,12.7c-12.8,17.4-23.3,36.4-35.1,54.6
					c-0.4,0.7-1.4,0.9-2.1,0.4S62.5,154.2,63,153.4C63,153.5,63,153.4,63,153.4z"/>
			</g>
			<g id="XMLID_109_">
				<path class="st0" d="M52.7,159.7c7.3-9.9,14.2-20.2,20.9-30.5c6.7-10.4,13.4-20.8,20.7-30.8c3.6-5,7.3-10,11.2-14.8
					c3.9-4.8,8-9.5,12.7-13.6c2.3-2,4.8-3.9,7.5-5.6c2.7-1.6,5.5-3,8.5-3.8c1.5-0.4,3-0.6,4.6-0.8c1.6-0.1,3.1,0,4.6,0.2
					c3.1,0.5,6,1.7,8.6,3.4c-2.6-1.6-5.6-2.8-8.6-3.2c-1.5-0.2-3.1-0.2-4.6-0.1c-1.5,0.2-3,0.4-4.5,0.9c-3,0.8-5.7,2.2-8.3,3.9
					c-2.6,1.7-5,3.6-7.3,5.6c-4.5,4.1-8.6,8.8-12.3,13.7c-3.8,4.9-7.4,9.9-10.9,15c-7,10.2-13.5,20.7-20,31.2
					c-6.5,10.5-13.1,21-20.4,31.1c-0.5,0.7-1.4,0.8-2.1,0.4C52.3,161.4,52.2,160.4,52.7,159.7C52.7,159.8,52.7,159.7,52.7,159.7z"/>
			</g>
			<g id="XMLID_107_">
				<path class="st0" d="M42.4,164.1c9.1-10.2,17.1-21.4,24.7-32.8c7.6-11.4,14.8-23.2,22.6-34.6c3.9-5.7,7.9-11.3,12-16.8
					c4.1-5.5,8.5-10.9,13.5-15.7c4.9-4.8,10.5-9.2,17.1-11.5c1.6-0.6,3.3-1,5-1.2c1.7-0.2,3.5-0.3,5.2,0c3.4,0.4,6.7,1.7,9.6,3.5
					c-2.9-1.8-6.2-3-9.6-3.4c-1.7-0.2-3.4-0.1-5.1,0.1c-1.7,0.3-3.4,0.7-4.9,1.3c-6.4,2.4-11.9,6.8-16.7,11.6
					c-4.8,4.9-9.1,10.3-13.1,15.8c-4,5.6-7.9,11.2-11.6,17c-7.5,11.5-14.5,23.3-21.9,35c-7.4,11.6-15.3,23-24.3,33.5
					c-0.5,0.6-1.5,0.7-2.1,0.2C41.9,165.7,41.8,164.7,42.4,164.1C42.3,164.1,42.4,164.1,42.4,164.1L42.4,164.1z"/>
			</g>
			<g id="XMLID_105_">
				<path class="st0" d="M32.1,165.5c5.7-4.7,10.8-10,15.5-15.8c4.7-5.7,9-11.8,13.2-18c8.4-12.3,16.4-25,24.7-37.4
					c4.1-6.2,8.4-12.4,12.7-18.5c4.4-6.1,9-12,14.3-17.3c2.6-2.7,5.4-5.2,8.3-7.6c3-2.3,6.2-4.3,9.6-5.8c3.5-1.4,7.2-2.3,11-2.1
					c3.8,0.2,7.4,1.4,10.6,3.4c-3.2-2-6.8-3.1-10.6-3.2c-3.7-0.1-7.4,0.8-10.8,2.3c-3.4,1.5-6.5,3.6-9.4,5.9c-2.9,2.4-5.6,5-8.1,7.7
					c-5.1,5.4-9.6,11.4-13.9,17.5c-4.3,6.1-8.4,12.4-12.4,18.6c-8,12.6-15.8,25.4-24.1,37.8c-4.1,6.3-8.3,12.5-13,18.4
					c-4.7,5.9-9.8,11.5-15.6,16.4c-0.6,0.5-1.6,0.5-2.1-0.2S31.5,166.1,32.1,165.5C32.1,165.5,32.1,165.5,32.1,165.5L32.1,165.5z"/>
			</g>
			<g id="XMLID_103_">
				<path class="st0" d="M22.1,163.2c3.5-1.5,6.8-3.5,9.9-5.9c3-2.4,5.9-5.2,8.6-8.1c5.4-5.7,10.3-12,15-18.5
					c9.3-12.9,17.8-26.4,26.6-39.8c4.4-6.7,8.8-13.3,13.4-19.9c4.6-6.5,9.5-12.9,14.9-18.8c5.4-5.8,11.3-11.5,18.6-15
					c3.6-1.7,7.6-2.9,11.6-2.8c4,0,8,1.3,11.3,3.4c-3.4-2.1-7.4-3.3-11.3-3.3c-4,0-7.9,1.3-11.4,3c-7.1,3.6-12.9,9.3-18.2,15.2
					c-10.6,11.9-18.9,25.6-27.6,39c-8.5,13.5-16.8,27.2-26,40.3c-4.6,6.6-9.4,13-14.9,18.9c-2.7,3-5.6,5.9-8.7,8.5
					c-3.2,2.6-6.6,4.9-10.5,6.5c-0.8,0.3-1.6,0-2-0.8S21.4,163.5,22.1,163.2C22.1,163.2,22.1,163.2,22.1,163.2z"/>
			</g>
			<g id="XMLID_101_">
				<path class="st0" d="M12.4,156.5c3.9,0.2,7.9-0.6,11.5-2.4c3.7-1.7,7-4.2,10.1-6.9c3.1-2.7,6-5.8,8.8-8.9c2.8-3.1,5.5-6.3,8-9.6
					c5.1-6.6,9.9-13.6,14.5-20.6c4.7-7,9.2-14.1,13.8-21.2c4.6-7.1,9.2-14.1,14.1-21c4.8-6.9,9.8-13.8,15.3-20.1
					c2.8-3.2,5.8-6.2,8.9-9c3.1-2.8,6.6-5.4,10.3-7.3c1.9-1,3.8-1.8,5.9-2.4c2-0.6,4.1-1,6.3-1c4.2-0.2,8.5,1.2,12,3.5
					c-3.6-2.2-7.8-3.5-12-3.3c-2.1,0.1-4.2,0.5-6.2,1.1c-2,0.7-3.9,1.5-5.8,2.5c-3.7,2-7,4.6-10.1,7.4c-3.1,2.9-6,5.9-8.7,9.1
					c-5.5,6.4-10.3,13.3-15,20.3c-4.7,7-9.2,14.1-13.7,21.2c-4.5,7.1-9,14.3-13.5,21.4c-4.6,7.1-9.2,14.2-14.3,20.9
					c-2.5,3.4-5.2,6.7-8,9.9c-2.8,3.2-5.7,6.3-8.9,9.2c-1.6,1.4-3.2,2.8-5,4.1c-1.8,1.3-3.6,2.4-5.6,3.4c-3.9,2-8.4,3-12.9,2.9
					c-0.8,0-1.5-0.7-1.4-1.6C10.9,157.1,11.5,156.4,12.4,156.5C12.4,156.5,12.4,156.5,12.4,156.5L12.4,156.5z"/>
			</g>
			<g id="XMLID_99_">
				<path class="st0" d="M2.8,144.6c1.8,1,3.7,2,5.7,2.5c2,0.5,4.1,0.8,6.1,0.6c2.1-0.1,4.1-0.5,6.2-1.2c2-0.7,3.9-1.6,5.8-2.6
					c1.9-1.1,3.6-2.3,5.4-3.6c1.7-1.3,3.4-2.8,5-4.3c3.2-3,6.2-6.2,9.1-9.6c5.7-6.7,10.7-14,15.7-21.3c5-7.3,9.8-14.8,14.7-22.2
					C81.2,75.5,86,68,91,60.7c5-7.4,10.1-14.6,15.9-21.4c2.9-3.4,5.9-6.7,9.2-9.7c3.2-3.1,6.7-5.9,10.6-8.1
					c3.8-2.3,8.1-3.8,12.6-4.1c4.5-0.3,8.9,1,12.7,3.5c-3.8-2.4-8.2-3.6-12.6-3.3c-4.4,0.4-8.7,2-12.4,4.3
					c-3.8,2.2-7.3,5.1-10.4,8.2c-3.2,3.1-6.1,6.4-9,9.8c-5.7,6.8-10.7,14.2-15.5,21.6c-4.9,7.4-9.6,14.9-14.3,22.4
					c-4.7,7.5-9.5,15-14.4,22.5c-4.9,7.4-9.9,14.8-15.6,21.7c-2.8,3.5-5.9,6.8-9.1,9.9c-1.6,1.6-3.3,3.1-5.1,4.5
					c-1.8,1.4-3.7,2.7-5.6,3.9c-2,1.1-4.1,2.1-6.3,2.9c-2.2,0.8-4.5,1.2-6.9,1.4c-2.4,0.2-4.8-0.1-7.1-0.6c-2.3-0.6-4.5-1.6-6.5-2.8
					c-0.7-0.4-1-1.3-0.6-2c0.4-0.7,1.3-1,2-0.6L2.8,144.6L2.8,144.6z"/>
			</g>
			<g id="XMLID_96_">
				<path class="st0" d="M2.8,136.1c1.7,1,3.5,1.9,5.4,2.4c1.9,0.5,3.9,0.8,5.8,0.7c2,0,4-0.4,5.9-0.9c1.9-0.5,3.8-1.3,5.6-2.3
					c3.6-1.9,6.9-4.4,10-7.2c3.1-2.8,6-5.7,8.8-8.9c5.5-6.3,10.4-13.2,15.2-20.1c4.8-6.9,9.4-14,14-21.1
					c9.1-14.2,18.1-28.5,28.6-41.8l2-2.5l2-2.4c1.3-1.6,2.7-3.2,4.1-4.8c2.8-3.2,5.7-6.3,8.8-9.1c3.2-2.8,6.6-5.3,10.5-7.1
					c3.8-1.8,8.1-2.7,12.3-2.4c-4.2-0.3-8.4,0.8-12.2,2.6c-3.8,1.8-7.2,4.4-10.3,7.2c-3.1,2.8-6,5.9-8.7,9.2c-1.4,1.6-2.7,3.2-4,4.9
					l-2,2.5l-1.9,2.5c-10.2,13.4-19,27.8-27.9,42.1C70.2,86.8,65.7,94,60.9,101c-4.8,7-9.5,14-15,20.5c-2.7,3.3-5.7,6.4-8.8,9.2
					c-1.6,1.4-3.2,2.8-4.9,4.1c-1.7,1.3-3.6,2.5-5.5,3.5c-1.9,1.1-3.9,1.9-6.1,2.6c-2.1,0.6-4.3,1.1-6.6,1.1
					c-2.2,0.1-4.5-0.2-6.7-0.8c-2.2-0.6-4.2-1.6-6.2-2.7c-0.7-0.4-1-1.3-0.5-2.1S2,135.6,2.8,136.1C2.7,136,2.7,136,2.8,136.1
					L2.8,136.1z"/>
			</g>
			<g id="XMLID_94_">
				<path class="st0" d="M2.8,127.5c3.2,2,6.8,3.2,10.5,3.2c3.7,0.1,7.5-1.1,10.9-2.7c3.5-1.7,6.7-3.9,9.7-6.4
					c3-2.6,5.8-5.3,8.5-8.2c5.4-5.8,10.2-12.1,14.8-18.6c4.6-6.5,9-13.2,13.3-19.9C79.2,61.6,87.8,48,97.1,35.1
					c4.7-6.5,9.6-12.8,15.1-18.6c2.7-2.9,5.6-5.7,8.7-8.2c3.1-2.5,6.5-4.6,10.2-6.2c-3.7,1.6-7,3.8-10.1,6.3
					c-3.1,2.5-5.9,5.4-8.6,8.3c-5.4,5.9-10.2,12.3-14.8,18.8c-9.2,13.1-17.4,26.7-26,40.2c-4.3,6.7-8.6,13.5-13.1,20.1
					c-4.5,6.6-9.3,13.1-14.7,19.1c-2.7,3-5.5,5.9-8.6,8.6c-3.1,2.7-6.4,5.1-10.1,6.9c-3.7,1.8-7.8,3.1-12.1,3.1
					c-4.3,0-8.5-1.2-12.1-3.5l0,0c-0.7-0.4-0.9-1.4-0.5-2.1S2,127.1,2.8,127.5C2.7,127.5,2.8,127.5,2.8,127.5z"/>
			</g>
			<g id="XMLID_92_">
				<path class="st0" d="M2.8,119c3,1.9,6.3,3,9.8,3.2c3.5,0.2,7-0.7,10.3-2c3.3-1.4,6.4-3.4,9.3-5.6c2.9-2.3,5.6-4.8,8.2-7.4
					c5.2-5.3,9.8-11.1,14.1-17.2c4.4-6,8.6-12.2,12.7-18.4c8.3-12.4,16.2-25.1,24.7-37.4c4.2-6.2,8.5-12.3,13.3-18.1
					c4.7-5.8,9.9-11.2,15.7-16c-5.7,4.9-10.8,10.4-15.4,16.2c-4.6,5.9-8.8,12-12.9,18.3c-8.2,12.5-16,25.2-24,37.8
					c-4,6.3-8.2,12.5-12.4,18.7c-4.3,6.1-8.9,12.1-14,17.6c-2.6,2.7-5.3,5.4-8.3,7.8c-3,2.4-6.2,4.5-9.8,6.1
					c-3.6,1.5-7.5,2.5-11.5,2.4c-4-0.1-7.9-1.4-11.3-3.5c-0.7-0.4-0.9-1.4-0.5-2.1S2,118.5,2.8,119C2.7,119,2.8,119,2.8,119z"/>
			</g>
			<g id="XMLID_90_">
				<path class="st0" d="M2.8,110.4c2.7,1.8,5.8,2.9,9,3.3c1.6,0.2,3.2,0.1,4.8,0c1.6-0.3,3.2-0.6,4.7-1.1
					c6.2-2.2,11.7-6.4,16.5-11.1c4.9-4.7,9.2-10,13.3-15.5c4.1-5.5,8.1-11.1,11.9-16.8C70.8,57.8,78,46,85.6,34.6
					c7.6-11.5,15.7-22.7,24.8-33C101.5,12.1,93.6,23.4,86.2,35c-7.4,11.6-14.4,23.4-21.9,35c-3.8,5.8-7.7,11.4-11.7,17.1
					c-4,5.6-8.3,11.1-13.2,16c-4.9,4.9-10.5,9.5-17.2,12c-1.7,0.6-3.5,1.1-5.2,1.4c-1.8,0.2-3.7,0.3-5.5,0.1
					c-3.7-0.4-7.2-1.7-10.3-3.6l0,0c-0.7-0.4-0.9-1.4-0.5-2.1S2,110,2.8,110.4C2.7,110.4,2.8,110.4,2.8,110.4z"/>
			</g>
			<g id="XMLID_88_">
				<path class="st0" d="M2.8,101.9c2.5,1.6,5.2,2.7,8,3.2c1.4,0.3,2.9,0.3,4.3,0.2c1.4-0.1,2.9-0.3,4.3-0.7c2.8-0.7,5.6-2,8.1-3.6
					c2.6-1.6,5-3.4,7.3-5.4c4.6-4,8.7-8.6,12.5-13.4c3.9-4.8,7.6-9.7,11.2-14.7c7.2-10,13.9-20.4,20.6-30.8C85.8,26.3,92.7,16,100,6
					c-7.2,10.1-13.8,20.5-20.3,31c-6.5,10.5-13,21-20,31.2c-3.5,5.1-7.1,10.1-10.9,15C45,88.2,40.9,93,36.3,97.2
					c-2.3,2.1-4.8,4.1-7.5,5.8c-2.7,1.7-5.6,3.2-8.7,4c-1.6,0.5-3.2,0.7-4.8,0.9c-1.6,0.1-3.3,0.1-4.9-0.2c-3.3-0.5-6.4-1.7-9.2-3.4
					c-0.7-0.4-0.9-1.4-0.5-2.1C1.1,101.6,2,101.4,2.8,101.9C2.7,101.8,2.8,101.8,2.8,101.9z"/>
			</g>
			<g id="XMLID_86_">
				<path class="st0" d="M2.8,93.3c4.2,2.8,9.4,4.1,14.5,3.1c5.1-0.9,9.8-3.5,14-6.7c4.3-3.2,8.1-7,11.7-11c3.6-4,7-8.2,10.3-12.5
					c13.2-17.1,24.2-35.9,36.4-53.8C77.9,30.6,67.4,49.6,54.5,67.1c-3.2,4.4-6.6,8.7-10.1,12.8c-3.6,4.1-7.4,8.1-11.7,11.5
					c-2.2,1.7-4.5,3.3-7,4.6c-2.5,1.3-5.1,2.4-7.9,2.9c-2.8,0.6-5.8,0.7-8.6,0.1c-2.9-0.6-5.6-1.7-8-3.2l0,0
					c-0.7-0.4-0.9-1.4-0.5-2.1S2,92.8,2.8,93.3C2.7,93.3,2.8,93.3,2.8,93.3z"/>
			</g>
			<g id="XMLID_84_">
				<path class="st0" d="M2.8,84.7c3.7,2.4,8,3.5,12.3,3.2c0.5,0,1.1-0.1,1.6-0.2c0.5-0.1,1.1-0.1,1.6-0.3c1.1-0.3,2.1-0.5,3.2-0.9
					L23,86l1.5-0.7c1-0.4,2-1.1,3-1.6c7.7-4.7,14.1-11.6,20-18.5c6-7,11.4-14.5,16.6-22.1c5.2-7.6,10.1-15.5,15.2-23.2
					c-4.9,7.9-9.6,15.8-14.6,23.6c-5,7.8-10.2,15.5-16,22.7c-2.9,3.6-6,7.1-9.2,10.5c-3.3,3.3-6.8,6.4-10.8,9c-1,0.6-2,1.3-3.1,1.8
					L24,88.2l-1.7,0.7c-1.1,0.5-2.3,0.8-3.4,1.1c-0.6,0.2-1.2,0.2-1.8,0.4c-0.6,0.1-1.2,0.3-1.8,0.3c-4.9,0.5-9.9-0.8-14.1-3.3l0,0
					c-0.7-0.4-0.9-1.4-0.5-2.1C1.1,84.5,2,84.3,2.8,84.7C2.7,84.7,2.7,84.7,2.8,84.7z"/>
			</g>
			<g id="XMLID_82_">
				<path class="st0" d="M2.8,76.2c3,2,6.5,3.1,10,3.3c3.6,0.2,7.2-0.7,10.6-2.2c3.4-1.5,6.6-3.5,9.5-5.8c2.9-2.3,5.7-5,8.4-7.7
					c5.3-5.4,10.1-11.4,14.6-17.5c4.5-6.2,8.7-12.5,13-18.9c-4.1,6.5-8.1,13-12.4,19.3c-4.3,6.3-8.9,12.5-14.1,18.1
					c-2.6,2.8-5.3,5.5-8.3,8.1c-3,2.5-6.2,4.7-9.8,6.4c-3.6,1.6-7.5,2.8-11.6,2.7c-4.1,0-8.1-1.3-11.6-3.4l0,0
					c-0.7-0.4-0.9-1.4-0.5-2.1S2,75.7,2.8,76.2C2.7,76.2,2.7,76.2,2.8,76.2z"/>
			</g>
			<g id="XMLID_80_">
				<path class="st0" d="M2.7,67.6c2.4,1.5,5.1,2.6,8,3c2.8,0.5,5.7,0.3,8.6-0.3c2.8-0.6,5.6-1.9,8.1-3.3c2.6-1.5,5-3.3,7.3-5.2
					c4.7-3.8,8.8-8.2,12.7-12.9c3.9-4.7,7.5-9.6,11.1-14.5c-3.4,5-6.8,10.1-10.5,14.9c-3.7,4.8-7.7,9.5-12.3,13.6
					c-2.3,2-4.7,4-7.3,5.7c-2.6,1.7-5.5,3.1-8.5,3.9c-3,0.9-6.3,1.2-9.5,0.8c-3.2-0.4-6.3-1.5-9.1-3.1c-0.7-0.4-1-1.3-0.6-2
					S1.9,67.2,2.7,67.6C2.7,67.6,2.7,67.6,2.7,67.6z"/>
			</g>
			<g id="XMLID_78_">
				<path class="st0" d="M2.7,59.1c3.7,2.3,8,3.7,12.4,3.4c4.4-0.2,8.7-1.8,12.7-4.1c3.9-2.3,7.5-5.2,10.8-8.4
					c3.3-3.2,6.4-6.6,9.5-10.1c-2.8,3.7-5.7,7.3-8.9,10.7c-3.2,3.4-6.6,6.6-10.6,9.2c-3.9,2.6-8.4,4.6-13.3,5.1
					c-2.4,0.2-4.9,0.1-7.3-0.5c-2.4-0.5-4.7-1.5-6.8-2.6c-0.7-0.4-1-1.3-0.6-2C1,58.9,1.9,58.6,2.7,59.1C2.7,59,2.7,59,2.7,59.1
					L2.7,59.1z"/>
			</g>
			<g id="XMLID_76_">
				<path class="st0" d="M2.7,50.5c2.7,1.7,5.6,2.9,8.8,3.3c3.1,0.5,6.4,0.1,9.5-0.8c3.1-0.9,6.1-2.4,8.9-4.2c2.8-1.8,5.4-3.8,7.9-6
					c-2.3,2.4-4.8,4.6-7.5,6.6c-2.7,2-5.6,3.8-8.8,5c-3.2,1.2-6.7,1.9-10.2,1.6c-3.5-0.2-6.9-1.3-10-2.9c-0.7-0.4-1-1.3-0.6-2
					c0.4-0.7,1.3-1,2-0.6C2.6,50.5,2.7,50.5,2.7,50.5L2.7,50.5z"/>
			</g>
			<g id="XMLID_74_">
				<path class="st0" d="M2.7,41.9c3.5,2.3,7.7,3.8,12,3.8c4.3,0,8.7-1.3,12.7-3.3c-3.7,2.4-8,4.3-12.6,4.8
					c-2.3,0.2-4.7,0.1-6.9-0.4c-2.3-0.5-4.5-1.3-6.6-2.4l0,0c-0.7-0.4-1-1.3-0.7-2c0.4-0.7,1.3-1,2-0.7C2.6,41.9,2.7,41.9,2.7,41.9z
					"/>
			</g>
			<g id="XMLID_72_">
				<path class="st0" d="M2.7,33.4c2,1.5,4.2,2.7,6.6,3.5c2.4,0.8,5,1.1,7.6,1.1c-2.6,0.6-5.3,0.8-7.9,0.4C6.3,38,3.7,37.1,1.2,36
					l0,0c-0.8-0.3-1.1-1.2-0.7-2s1.2-1.1,2-0.7C2.5,33.3,2.6,33.3,2.7,33.4z"/>
			</g>
			<g id="XMLID_70_">
				<path class="st0" d="M2.8,24.9c1.1,1.3,2.4,2.5,3.8,3.6c-1.8-0.1-3.6-0.5-5.4-1l0,0c-0.8-0.3-1.3-1.1-1-2c0.3-0.8,1.1-1.3,2-1
					C2.3,24.5,2.6,24.6,2.8,24.9z"/>
			</g>
		</g>
	</g>
</g>
</svg>
