<?xml version="1.0" encoding="utf-8"?>
<!-- Generator: Adobe Illustrator 24.1.0, SVG Export Plug-In . SVG Version: 6.00 Build 0)  -->
<svg version="1.1" id="Layer_1" xmlns="http://www.w3.org/2000/svg" xmlns:xlink="http://www.w3.org/1999/xlink" x="0px" y="0px"
	 viewBox="0 0 150 149.2" style="enable-background:new 0 0 150 149.2;" xml:space="preserve">
<style type="text/css">
	.st0{fill:#0E8743;}
	.st1{fill:none;stroke:#0E8743;stroke-width:2;stroke-miterlimit:10;}
	.st2{fill:none;stroke:#0E8743;stroke-width:4;stroke-miterlimit:10;}
	.st3{fill:none;stroke:#0E8743;stroke-miterlimit:10;}
</style>
<g>
	<g id="XMLID_44979_">
		<path id="XMLID_44980_" class="st0" d="M82.7,149.2c0,0-1-0.1-2.5-0.5c-0.4-0.1-0.8-0.2-1.2-0.4c-0.2-0.1-0.4-0.1-0.7-0.2
			c-0.2,0-0.4-0.1-0.6-0.1c-0.8-0.2-1.7-0.2-2.7-0.2c-1,0-1.9,0.1-2.7,0.2c-0.2,0-0.4,0.1-0.6,0.1c-0.2,0.1-0.4,0.1-0.7,0.2
			c-0.4,0.1-0.8,0.3-1.2,0.4c-1.5,0.4-2.5,0.5-2.5,0.5s0.6-0.8,1.8-1.9c0.3-0.3,0.6-0.6,0.9-0.9c0.2-0.2,0.4-0.3,0.5-0.5
			c0.2-0.2,0.5-0.3,0.7-0.5c1.1-0.6,2.3-0.9,3.7-0.9c1.3,0,2.6,0.3,3.7,0.9c0.3,0.1,0.5,0.3,0.7,0.5c0.2,0.2,0.4,0.3,0.5,0.5
			c0.3,0.3,0.7,0.6,0.9,0.9C82,148.4,82.7,149.2,82.7,149.2z"/>
	</g>
	<g id="XMLID_44977_">
		<path id="XMLID_44978_" class="st0" d="M59.9,148.1c0,0,1.4-1.2,3.9-2.9c0.6-0.4,1.3-0.9,2-1.4c0.4-0.2,0.7-0.5,1.1-0.7
			c0.4-0.3,0.9-0.5,1.4-0.7c2-0.9,4.3-1.4,6.7-1.4c2.4,0,4.7,0.5,6.7,1.4c0.5,0.2,1,0.5,1.4,0.7c0.4,0.3,0.8,0.5,1.1,0.7
			c0.7,0.5,1.4,0.9,2,1.4c2.4,1.7,3.9,2.9,3.9,2.9s-1.8-0.5-4.6-1.5c-0.7-0.3-1.5-0.5-2.3-0.9c-0.4-0.2-0.8-0.3-1.3-0.5
			c-0.4-0.1-0.8-0.3-1.2-0.4c-1.7-0.5-3.7-0.7-5.8-0.7c-2.1,0-4.1,0.2-5.8,0.7c-0.4,0.1-0.8,0.3-1.2,0.4c-0.4,0.2-0.8,0.3-1.3,0.5
			c-0.8,0.3-1.6,0.6-2.3,0.9C61.7,147.6,59.9,148.1,59.9,148.1z"/>
	</g>
	<g id="XMLID_44975_">
		<path id="XMLID_44976_" class="st0" d="M97.3,146.2c0,0-2.6-0.8-6.6-2.3c-1-0.4-2.1-0.8-3.3-1.3c-0.6-0.2-1.2-0.5-1.8-0.7
			c-0.3-0.1-0.6-0.2-0.9-0.3c-0.3-0.1-0.6-0.2-0.9-0.3c-2.6-0.7-5.6-1.1-8.7-1.1c-3.1,0-6.1,0.4-8.7,1.1c-0.3,0.1-0.6,0.2-0.9,0.3
			c-0.3,0.1-0.6,0.2-0.9,0.3c-0.6,0.2-1.2,0.5-1.8,0.7c-1.2,0.5-2.3,0.9-3.3,1.3c-4.1,1.5-6.6,2.3-6.6,2.3s2.2-1.5,6-3.7
			c0.9-0.6,2-1.2,3.1-1.8c0.6-0.3,1.1-0.6,1.7-1c0.3-0.2,0.7-0.3,1-0.5c0.3-0.2,0.7-0.3,1-0.4c2.8-1.1,6.1-1.7,9.6-1.7
			c3.4,0,6.7,0.6,9.6,1.7c0.4,0.1,0.7,0.3,1,0.4c0.3,0.2,0.7,0.3,1,0.5c0.6,0.3,1.2,0.7,1.7,1c1.1,0.6,2.1,1.2,3.1,1.8
			C95.1,144.7,97.3,146.2,97.3,146.2z"/>
	</g>
	<g id="XMLID_44973_">
		<path id="XMLID_44974_" class="st0" d="M45.8,143.7c0,0,3-1.8,8-4.4c1.2-0.7,2.6-1.4,4.1-2.1c0.7-0.4,1.5-0.8,2.3-1.1
			c0.4-0.2,0.8-0.4,1.3-0.6c0.4-0.2,0.9-0.3,1.3-0.5c3.6-1.3,7.9-1.9,12.3-2c4.4,0,8.6,0.7,12.3,2c0.5,0.2,0.9,0.3,1.3,0.5
			c0.4,0.2,0.9,0.4,1.3,0.6c0.8,0.4,1.6,0.8,2.3,1.1c1.5,0.7,2.8,1.5,4.1,2.1c5,2.6,8,4.4,8,4.4s-3.3-1-8.6-2.9
			c-1.3-0.5-2.8-1-4.3-1.6c-0.8-0.3-1.6-0.6-2.4-0.9c-0.4-0.1-0.8-0.3-1.2-0.4c-0.4-0.1-0.8-0.2-1.3-0.4c-3.4-0.9-7.4-1.3-11.5-1.3
			c-4.1,0-8.1,0.4-11.5,1.3c-0.4,0.1-0.8,0.2-1.3,0.4c-0.4,0.1-0.8,0.3-1.2,0.4c-0.8,0.3-1.6,0.6-2.4,0.9c-1.5,0.6-3,1.1-4.3,1.6
			C49.1,142.7,45.8,143.7,45.8,143.7z"/>
	</g>
	<g id="XMLID_44971_">
		<path id="XMLID_44972_" class="st0" d="M110.7,140.6c0,0-4-1.2-10.5-3.4c-1.6-0.6-3.4-1.2-5.3-1.8c-0.9-0.3-1.9-0.7-2.9-1
			c-0.5-0.2-1-0.3-1.5-0.5c-0.5-0.1-1-0.3-1.6-0.4c-2.1-0.5-4.4-0.9-6.7-1.1c-2.4-0.2-4.8-0.4-7.4-0.4c-2.5,0-5,0.1-7.4,0.4
			c-2.4,0.2-4.6,0.6-6.7,1.1c-0.5,0.1-1,0.3-1.6,0.4c-0.5,0.2-1,0.3-1.5,0.5c-1,0.3-2,0.7-2.9,1c-1.9,0.6-3.6,1.3-5.3,1.8
			c-6.4,2.2-10.5,3.4-10.5,3.4s3.7-1.9,9.9-4.8c1.5-0.7,3.2-1.5,5-2.3c0.9-0.4,1.8-0.8,2.8-1.3c0.5-0.2,1-0.4,1.6-0.6
			c0.5-0.2,1.1-0.4,1.6-0.5c2.2-0.7,4.6-1.2,7.1-1.6c2.5-0.3,5.1-0.5,7.7-0.5c2.7,0,5.2,0.2,7.7,0.5c2.5,0.3,4.9,0.9,7.1,1.6
			c0.6,0.2,1.1,0.4,1.6,0.5c0.5,0.2,1,0.4,1.6,0.6c1,0.4,1.9,0.9,2.8,1.3c1.8,0.8,3.5,1.6,5,2.3C107,138.6,110.7,140.6,110.7,140.6z
			"/>
	</g>
	<g id="XMLID_44968_">
		<path id="XMLID_44970_" class="st0" d="M33.1,136.8c0,0,4.5-2,11.7-5.1c1.8-0.8,3.8-1.6,6-2.5c1.1-0.4,2.2-0.9,3.4-1.3
			c0.6-0.2,1.2-0.4,1.8-0.7c0.6-0.2,1.3-0.4,1.9-0.6c2.6-0.7,5.3-1.3,8.2-1.6c2.9-0.4,5.9-0.5,8.9-0.6c3.1,0,6.1,0.2,8.9,0.6
			c2.9,0.4,5.6,0.9,8.2,1.6c0.6,0.2,1.3,0.4,1.9,0.6c0.6,0.2,1.2,0.4,1.8,0.7c1.2,0.4,2.3,0.9,3.4,1.3c2.1,0.9,4.1,1.7,6,2.5
			c7.3,3.1,11.7,5.1,11.7,5.1s-4.7-1.3-12.3-3.6c-1.9-0.6-4-1.2-6.2-1.9c-1.1-0.3-2.3-0.7-3.4-1.1c-0.6-0.2-1.2-0.3-1.7-0.5
			c-0.6-0.1-1.2-0.3-1.8-0.4c-2.5-0.5-5.1-1-7.9-1.2c-2.8-0.3-5.7-0.4-8.6-0.4c-3,0-5.8,0.2-8.6,0.4c-2.8,0.3-5.4,0.7-7.9,1.2
			c-0.6,0.1-1.2,0.3-1.8,0.4c-0.6,0.2-1.2,0.3-1.7,0.5c-1.2,0.3-2.3,0.7-3.4,1.1c-2.2,0.7-4.3,1.3-6.2,1.9
			C37.8,135.5,33.1,136.8,33.1,136.8z"/>
	</g>
	<g id="XMLID_44966_">
		<path id="XMLID_44967_" class="st0" d="M122.7,132.5c0,0-5.4-1.4-14-3.8c-2.2-0.6-4.5-1.3-7-2c-1.3-0.4-2.6-0.8-3.9-1.1
			c-0.7-0.2-1.3-0.4-2-0.5c-0.7-0.1-1.4-0.3-2.1-0.4c-2.8-0.5-5.8-1-9-1.2c-3.1-0.3-6.4-0.4-9.8-0.4c-3.4,0-6.6,0.2-9.8,0.4
			c-3.1,0.3-6.2,0.7-9,1.2c-0.7,0.2-1.4,0.3-2.1,0.4c-0.7,0.2-1.3,0.4-2,0.5c-1.3,0.3-2.6,0.8-3.9,1.1c-2.5,0.7-4.9,1.4-7,2
			c-8.6,2.4-14,3.8-14,3.8s5.1-2.1,13.5-5.2c2.1-0.8,4.4-1.6,6.8-2.6c1.2-0.4,2.5-0.9,3.8-1.4c0.7-0.2,1.4-0.5,2.1-0.7
			c0.7-0.2,1.4-0.4,2.2-0.6c2.9-0.7,6-1.3,9.3-1.6c3.2-0.4,6.6-0.5,10.1-0.6c3.5,0,6.8,0.2,10.1,0.6c3.2,0.4,6.3,0.9,9.3,1.6
			c0.7,0.2,1.4,0.4,2.2,0.6c0.7,0.2,1.4,0.5,2.1,0.7c1.4,0.4,2.6,0.9,3.8,1.4c2.5,0.9,4.7,1.8,6.8,2.6
			C117.6,130.4,122.7,132.5,122.7,132.5z"/>
	</g>
	<g id="XMLID_44964_">
		<path id="XMLID_44965_" class="st0" d="M22,127.6c0,0,5.7-2.1,15.1-5.2c2.3-0.8,4.9-1.6,7.6-2.5c1.4-0.4,2.8-0.9,4.3-1.4
			c0.8-0.2,1.5-0.5,2.3-0.7c0.8-0.2,1.6-0.4,2.4-0.6c3.2-0.7,6.7-1.2,10.2-1.6c3.6-0.3,7.3-0.5,11.1-0.6c3.8,0,7.5,0.2,11.1,0.6
			c3.6,0.4,7,0.9,10.2,1.6c0.8,0.2,1.6,0.4,2.4,0.6c0.8,0.2,1.5,0.4,2.3,0.7c1.5,0.4,2.9,0.9,4.3,1.4c2.7,0.9,5.3,1.8,7.6,2.5
			c9.3,3.1,15.1,5.2,15.1,5.2s-6-1.3-15.5-3.7c-2.4-0.6-5-1.3-7.8-2c-1.4-0.4-2.9-0.8-4.3-1.1c-0.7-0.2-1.5-0.4-2.2-0.5
			c-0.8-0.1-1.5-0.3-2.3-0.4c-3.2-0.5-6.5-0.9-10-1.2c-3.5-0.3-7.1-0.4-10.8-0.4c-3.7,0-7.3,0.2-10.8,0.4c-3.5,0.3-6.8,0.7-10,1.2
			c-0.8,0.1-1.6,0.3-2.3,0.4c-0.8,0.2-1.5,0.3-2.2,0.5c-1.5,0.3-2.9,0.8-4.3,1.1c-2.8,0.7-5.4,1.4-7.8,2
			C27.9,126.3,22,127.6,22,127.6z"/>
	</g>
	<g id="XMLID_44962_">
		<path id="XMLID_44963_" class="st0" d="M132.9,122.3c0,0-6.5-1.3-16.9-3.6c-2.6-0.6-5.5-1.2-8.5-1.9c-1.5-0.3-3.1-0.7-4.7-1.1
			c-0.8-0.2-1.6-0.4-2.5-0.5c-0.8-0.1-1.7-0.3-2.5-0.4c-3.4-0.5-7.1-0.9-10.9-1.2c-3.8-0.2-7.7-0.4-11.8-0.4c-4,0-8,0.1-11.8,0.4
			c-3.8,0.3-7.4,0.6-10.9,1.2c-0.9,0.1-1.7,0.3-2.5,0.4c-0.8,0.1-1.6,0.3-2.5,0.5c-1.6,0.3-3.2,0.7-4.7,1.1
			c-3.1,0.7-5.9,1.3-8.5,1.9c-10.4,2.3-16.9,3.6-16.9,3.6s6.3-2,16.6-5.1c2.6-0.8,5.4-1.6,8.4-2.5c1.5-0.4,3-0.9,4.7-1.3
			c0.8-0.2,1.7-0.4,2.5-0.6c0.9-0.2,1.7-0.4,2.6-0.5c3.5-0.7,7.2-1.2,11.1-1.5c3.9-0.3,7.9-0.5,12-0.5c4.1,0,8.1,0.2,12,0.5
			c3.9,0.3,7.6,0.9,11.1,1.5c0.9,0.2,1.7,0.4,2.6,0.5c0.9,0.2,1.7,0.4,2.5,0.6c1.7,0.4,3.2,0.9,4.7,1.3c3,0.9,5.8,1.7,8.4,2.5
			C126.6,120.3,132.9,122.3,132.9,122.3z"/>
	</g>
	<g id="XMLID_44960_">
		<path id="XMLID_44961_" class="st0" d="M12.8,116.5c0,0,6.8-1.9,17.9-4.8c2.8-0.7,5.8-1.5,9.1-2.3c1.6-0.4,3.3-0.8,5.1-1.2
			c0.9-0.2,1.8-0.4,2.7-0.6c0.9-0.2,1.8-0.3,2.8-0.5c3.8-0.6,7.7-1.1,11.9-1.4c4.1-0.3,8.4-0.5,12.8-0.5c4.4,0,8.7,0.2,12.8,0.5
			c4.1,0.3,8.1,0.8,11.9,1.4c0.9,0.2,1.9,0.3,2.8,0.5c0.9,0.2,1.8,0.4,2.7,0.6c1.8,0.4,3.4,0.8,5.1,1.2c3.3,0.8,6.3,1.6,9.1,2.3
			c11.1,2.9,17.9,4.8,17.9,4.8s-7-1.2-18.2-3.2c-2.8-0.5-5.9-1.1-9.2-1.7c-1.6-0.3-3.4-0.7-5.1-1c-0.9-0.1-1.7-0.3-2.6-0.4
			c-0.9-0.1-1.8-0.3-2.7-0.4c-3.7-0.5-7.6-0.8-11.7-1c-4.1-0.2-8.3-0.3-12.6-0.3c-4.3,0-8.5,0.1-12.6,0.3c-4.1,0.2-8,0.6-11.7,1
			c-0.9,0.1-1.8,0.3-2.7,0.4c-0.9,0.1-1.8,0.3-2.6,0.4c-1.7,0.3-3.5,0.7-5.1,1c-3.3,0.6-6.4,1.2-9.2,1.7
			C19.8,115.4,12.8,116.5,12.8,116.5z"/>
	</g>
	<g id="XMLID_44958_">
		<path id="XMLID_44959_" class="st0" d="M140.9,110.4c0,0-7.4-1-19.3-2.8c-3-0.5-6.3-1-9.8-1.5c-3.5-0.6-7.2-1.2-11.1-1.6
			c-3.9-0.4-8.1-0.7-12.4-0.9c-4.3-0.2-8.8-0.3-13.3-0.3c-4.6,0-9,0.1-13.3,0.3c-4.3,0.2-8.4,0.5-12.4,0.9c-3.9,0.4-7.6,1-11.1,1.6
			c-3.5,0.5-6.8,1.1-9.8,1.5c-11.9,1.8-19.3,2.8-19.3,2.8s7.3-1.8,19-4.4c3-0.6,6.2-1.3,9.6-2.1c3.4-0.7,7.2-1.5,11.2-2.1
			c4-0.6,8.2-1,12.5-1.3c4.4-0.3,8.9-0.4,13.5-0.4c4.6,0,9.2,0.2,13.5,0.4c4.4,0.3,8.6,0.7,12.5,1.3c4,0.6,7.8,1.4,11.2,2.1
			c3.5,0.8,6.7,1.5,9.6,2.1C133.7,108.6,140.9,110.4,140.9,110.4z"/>
	</g>
	<g id="XMLID_44956_">
		<path id="XMLID_44957_" class="st0" d="M5.9,103.8c0,0,7.6-1.6,20-3.8c3.1-0.6,6.5-1.2,10.1-1.8c3.6-0.6,7.6-1.3,11.7-1.8
			c4.2-0.5,8.5-0.8,13.1-1.1c4.5-0.2,9.3-0.4,14.1-0.4c4.8,0,9.5,0.1,14.1,0.4c4.5,0.3,8.9,0.6,13.1,1.1c4.2,0.5,8.1,1.2,11.7,1.8
			c3.6,0.7,7,1.3,10.1,1.8c12.4,2.3,20,3.8,20,3.8s-7.8-0.8-20.3-2.3c-3.1-0.4-6.6-0.8-10.2-1.3c-3.7-0.5-7.6-1-11.7-1.3
			c-4.1-0.3-8.5-0.6-13-0.7c-4.5-0.1-9.2-0.2-14-0.2c-4.8,0-9.4,0.1-14,0.2c-4.5,0.2-8.8,0.4-13,0.7c-4.1,0.3-8,0.8-11.7,1.3
			c-3.7,0.5-7.1,0.9-10.2,1.3C13.7,103,5.9,103.8,5.9,103.8z"/>
	</g>
	<g id="XMLID_44954_">
		<path id="XMLID_44955_" class="st0" d="M146.6,96.9c0,0-8-0.5-21-1.6c-3.2-0.3-6.8-0.6-10.6-0.9c-3.8-0.4-7.9-0.7-12.1-1
			c-4.3-0.2-8.8-0.4-13.4-0.5c-4.7-0.1-9.5-0.2-14.4-0.2c-4.9,0-9.8,0.1-14.4,0.2c-4.7,0.1-9.2,0.3-13.4,0.5
			c-4.3,0.3-8.3,0.6-12.1,1c-3.8,0.3-7.4,0.6-10.6,0.9c-13,1.1-21,1.6-21,1.6s8-1.3,20.8-3.2c3.2-0.5,6.8-1,10.5-1.5
			c3.8-0.5,7.9-1.1,12.2-1.5c4.3-0.4,8.8-0.7,13.5-0.9c4.7-0.2,9.6-0.3,14.5-0.3c5,0,9.8,0.1,14.5,0.3c4.7,0.2,9.2,0.5,13.5,0.9
			c4.3,0.4,8.4,1,12.2,1.5c3.8,0.5,7.3,1,10.5,1.5C138.7,95.6,146.6,96.9,146.6,96.9z"/>
	</g>
	<g id="XMLID_44952_">
		<path id="XMLID_44953_" class="st0" d="M1.5,89.7c0,0,8.2-1,21.4-2.5c3.3-0.3,6.9-0.7,10.8-1.1c3.9-0.4,8.1-0.8,12.5-1.1
			c4.4-0.3,9-0.5,13.8-0.7c4.8-0.1,9.8-0.2,14.9-0.2c5.1,0,10.1,0.1,14.9,0.2c4.8,0.2,9.4,0.4,13.8,0.7c4.4,0.3,8.6,0.7,12.5,1.1
			c3.9,0.4,7.5,0.8,10.8,1.1c13.3,1.4,21.4,2.5,21.4,2.5s-8.2-0.3-21.6-0.9c-3.3-0.2-7-0.4-10.9-0.6c-3.9-0.2-8.1-0.5-12.5-0.6
			c-4.4-0.1-9-0.2-13.8-0.3c-4.8-0.1-9.7-0.1-14.8-0.1c-5.1,0-10,0-14.8,0.1c-4.8,0.1-9.4,0.2-13.8,0.3C42,87.8,37.9,88,34,88.3
			c-3.9,0.2-7.6,0.4-10.9,0.6C9.8,89.5,1.5,89.7,1.5,89.7z"/>
	</g>
	<g id="XMLID_44950_">
		<path id="XMLID_44951_" class="st0" d="M149.6,82.3c0,0-8.4,0.1-21.9-0.1c-6.8-0.1-14.8-0.2-23.7-0.3c-8.9-0.1-18.7-0.1-29-0.1
			c-10.3,0-20.1,0-29,0.1C37.1,82,29,82.1,22.3,82.2C8.8,82.3,0.4,82.3,0.4,82.3s8.3-0.7,21.8-1.7c3.4-0.2,7.1-0.5,11-0.7
			c4-0.3,8.2-0.5,12.7-0.7c8.9-0.4,18.8-0.6,29.1-0.6c10.3,0,20.1,0.2,29.1,0.6c4.5,0.2,8.7,0.4,12.7,0.7c4,0.3,7.7,0.5,11,0.7
			C141.3,81.6,149.6,82.3,149.6,82.3z"/>
	</g>
	<g id="XMLID_44948_">
		<path id="XMLID_44949_" class="st0" d="M149.6,66.9c0,0-8.3,0.7-21.8,1.7c-3.4,0.2-7.1,0.5-11,0.7c-4,0.3-8.2,0.5-12.7,0.7
			c-8.9,0.4-18.8,0.6-29.1,0.6c-10.3,0-20.1-0.2-29.1-0.6c-4.5-0.2-8.7-0.4-12.7-0.7c-4-0.3-7.7-0.5-11-0.7
			C8.7,67.7,0.4,66.9,0.4,66.9s8.4-0.1,21.9,0.1c6.8,0.1,14.8,0.2,23.7,0.3c8.9,0.1,18.7,0.1,29,0.1c10.3,0,20.1,0,29-0.1
			c8.9-0.1,16.9-0.2,23.7-0.3C141.2,66.9,149.6,66.9,149.6,66.9z"/>
	</g>
	<g id="XMLID_44945_">
		<path id="XMLID_44947_" class="st0" d="M1.5,59.5c0,0,8.2,0.3,21.6,0.9c3.3,0.2,7,0.4,10.9,0.6c3.9,0.2,8.1,0.5,12.5,0.6
			c4.4,0.1,9,0.2,13.8,0.3C65,62,69.9,62,75,62c5.1,0,10,0,14.8-0.1c4.8-0.1,9.4-0.2,13.8-0.3c4.4-0.2,8.5-0.4,12.5-0.6
			c3.9-0.2,7.6-0.4,10.9-0.6c13.3-0.6,21.6-0.9,21.6-0.9s-8.2,1-21.4,2.5c-3.3,0.3-6.9,0.7-10.8,1.1c-3.9,0.4-8.1,0.8-12.5,1.1
			c-4.4,0.3-9,0.5-13.8,0.7c-4.8,0.1-9.8,0.2-14.9,0.2c-5.1,0-10.1-0.1-14.9-0.2c-4.8-0.2-9.4-0.4-13.8-0.7
			c-4.4-0.3-8.6-0.7-12.5-1.1c-3.9-0.4-7.5-0.8-10.8-1.1C9.7,60.5,1.5,59.5,1.5,59.5z"/>
	</g>
	<g id="XMLID_44943_">
		<path id="XMLID_44944_" class="st0" d="M146.6,52.3c0,0-8,1.3-20.8,3.2c-3.2,0.5-6.8,1-10.5,1.5c-3.8,0.5-7.9,1.1-12.2,1.5
			c-4.3,0.4-8.8,0.7-13.5,0.9c-4.7,0.2-9.6,0.3-14.5,0.3c-5,0-9.8-0.1-14.5-0.3c-4.7-0.2-9.2-0.5-13.5-0.9c-4.3-0.4-8.4-1-12.2-1.5
			c-3.8-0.5-7.3-1-10.5-1.5c-12.9-1.9-20.8-3.2-20.8-3.2s8,0.5,21,1.6c3.2,0.3,6.8,0.6,10.6,0.9c3.8,0.4,7.9,0.7,12.1,1
			c4.3,0.2,8.8,0.4,13.4,0.5c4.7,0.1,9.5,0.2,14.4,0.2c4.9,0,9.8-0.1,14.4-0.2c4.7-0.1,9.2-0.3,13.4-0.5c4.3-0.3,8.3-0.6,12.1-1
			c3.8-0.3,7.4-0.6,10.6-0.9C138.6,52.8,146.6,52.3,146.6,52.3z"/>
	</g>
	<g id="XMLID_44941_">
		<path id="XMLID_44942_" class="st0" d="M5.9,45.4c0,0,7.8,0.8,20.3,2.3c3.1,0.4,6.6,0.8,10.2,1.3c3.7,0.5,7.6,1,11.7,1.3
			c4.1,0.3,8.5,0.6,13,0.7c4.5,0.1,9.2,0.2,14,0.2c4.8,0,9.4-0.1,14-0.2c4.5-0.2,8.8-0.4,13-0.7c4.1-0.3,8-0.8,11.7-1.3
			c3.7-0.5,7.1-0.9,10.2-1.3c12.5-1.5,20.3-2.3,20.3-2.3s-7.6,1.6-20,3.8c-3.1,0.6-6.5,1.2-10.1,1.8c-3.6,0.6-7.6,1.3-11.7,1.8
			c-4.2,0.5-8.5,0.8-13.1,1.1c-4.5,0.2-9.3,0.4-14.1,0.4c-4.8,0-9.5-0.1-14.1-0.4c-4.5-0.3-8.9-0.6-13.1-1.1
			c-4.2-0.5-8.1-1.2-11.7-1.8c-3.6-0.7-7-1.3-10.1-1.8C13.5,47,5.9,45.4,5.9,45.4z"/>
	</g>
	<g id="XMLID_44939_">
		<path id="XMLID_44940_" class="st0" d="M140.9,38.9c0,0-7.3,1.8-19,4.4c-3,0.6-6.2,1.3-9.6,2.1c-3.4,0.7-7.2,1.5-11.2,2.1
			c-4,0.6-8.2,1-12.5,1.3c-4.4,0.3-8.9,0.4-13.5,0.4c-4.6,0-9.2-0.2-13.5-0.4c-4.4-0.3-8.6-0.7-12.5-1.3c-4-0.6-7.8-1.4-11.2-2.1
			c-3.5-0.8-6.7-1.5-9.6-2.1c-11.8-2.6-19-4.4-19-4.4s7.4,1,19.3,2.8c3,0.5,6.3,1,9.8,1.5c3.5,0.6,7.2,1.2,11.1,1.6
			c3.9,0.4,8.1,0.7,12.4,0.9C66,45.9,70.4,46,75,46c4.6,0,9-0.1,13.3-0.3c4.3-0.2,8.4-0.5,12.4-0.9c3.9-0.4,7.6-1,11.1-1.6
			c3.5-0.5,6.8-1.1,9.8-1.5C133.5,39.8,140.9,38.9,140.9,38.9z"/>
	</g>
	<g id="XMLID_44937_">
		<path id="XMLID_44938_" class="st0" d="M12.8,32.7c0,0,7,1.2,18.2,3.2c2.8,0.5,5.9,1.1,9.2,1.7c1.6,0.3,3.4,0.7,5.1,1
			c0.9,0.1,1.7,0.3,2.6,0.4c0.9,0.1,1.8,0.3,2.7,0.4c3.7,0.5,7.6,0.8,11.7,1c4.1,0.2,8.3,0.3,12.6,0.3c4.3,0,8.5-0.1,12.6-0.3
			c4.1-0.2,8-0.6,11.7-1c0.9-0.1,1.8-0.3,2.7-0.4c0.9-0.1,1.8-0.3,2.6-0.4c1.7-0.3,3.5-0.7,5.1-1c3.3-0.6,6.4-1.2,9.2-1.7
			c11.2-2.1,18.2-3.2,18.2-3.2s-6.8,1.9-17.9,4.8c-2.8,0.7-5.8,1.5-9.1,2.3c-1.6,0.4-3.3,0.8-5.1,1.2c-0.9,0.2-1.8,0.4-2.7,0.6
			c-0.9,0.2-1.8,0.3-2.8,0.5c-3.8,0.6-7.7,1.1-11.9,1.4C83.7,43.8,79.4,44,75,44c-4.4,0-8.7-0.2-12.8-0.5c-4.1-0.3-8.1-0.8-11.9-1.4
			c-0.9-0.2-1.9-0.3-2.8-0.5c-0.9-0.2-1.8-0.4-2.7-0.6c-1.8-0.4-3.4-0.8-5.1-1.2c-3.3-0.8-6.3-1.6-9.1-2.3
			C19.6,34.6,12.8,32.7,12.8,32.7z"/>
	</g>
	<g id="XMLID_44935_">
		<path id="XMLID_44936_" class="st0" d="M132.9,26.9c0,0-6.3,2-16.6,5.1c-2.6,0.8-5.4,1.6-8.4,2.5c-1.5,0.4-3,0.9-4.7,1.3
			c-0.8,0.2-1.7,0.4-2.5,0.6c-0.9,0.2-1.7,0.4-2.6,0.5c-3.5,0.7-7.2,1.2-11.1,1.5c-3.9,0.3-7.9,0.5-12,0.5c-4.1,0-8.1-0.2-12-0.5
			c-3.9-0.3-7.6-0.9-11.1-1.5c-0.9-0.2-1.7-0.4-2.6-0.5c-0.9-0.2-1.7-0.4-2.5-0.6c-1.7-0.4-3.2-0.9-4.7-1.3c-3-0.9-5.8-1.7-8.4-2.5
			c-10.3-3-16.6-5.1-16.6-5.1s6.5,1.3,16.9,3.6c2.6,0.6,5.5,1.2,8.5,1.9c1.5,0.3,3.1,0.7,4.7,1.1c0.8,0.2,1.6,0.4,2.5,0.5
			c0.8,0.1,1.7,0.3,2.5,0.4c3.4,0.5,7.1,0.9,10.9,1.2C67,35.7,71,35.8,75,35.9c4,0,8-0.1,11.8-0.4c3.8-0.3,7.4-0.6,10.9-1.2
			c0.9-0.1,1.7-0.3,2.5-0.4c0.8-0.1,1.6-0.3,2.5-0.5c1.6-0.3,3.2-0.7,4.7-1.1c3.1-0.7,5.9-1.3,8.5-1.9
			C126.4,28.2,132.9,26.9,132.9,26.9z"/>
	</g>
	<g id="XMLID_44933_">
		<path id="XMLID_44934_" class="st0" d="M22,21.6c0,0,6,1.3,15.5,3.7c2.4,0.6,5,1.3,7.8,2c1.4,0.4,2.9,0.8,4.3,1.1
			c0.7,0.2,1.5,0.4,2.2,0.5c0.8,0.1,1.5,0.3,2.3,0.4c3.2,0.5,6.5,0.9,10,1.2C67.7,30.8,71.3,31,75,31c3.7,0,7.3-0.2,10.8-0.4
			c3.5-0.3,6.8-0.7,10-1.2c0.8-0.1,1.6-0.3,2.3-0.4c0.8-0.2,1.5-0.3,2.2-0.5c1.5-0.3,2.9-0.8,4.3-1.1c2.8-0.7,5.4-1.4,7.8-2
			c9.6-2.4,15.5-3.7,15.5-3.7s-5.7,2.1-15.1,5.2c-2.3,0.8-4.9,1.6-7.6,2.5c-1.4,0.4-2.8,0.9-4.3,1.4c-0.8,0.2-1.5,0.5-2.3,0.7
			c-0.8,0.2-1.6,0.4-2.4,0.6c-3.2,0.7-6.7,1.2-10.2,1.6c-3.6,0.3-7.3,0.5-11.1,0.6c-3.8,0-7.5-0.2-11.1-0.6c-3.6-0.4-7-0.9-10.2-1.6
			c-0.8-0.2-1.6-0.4-2.4-0.6c-0.8-0.2-1.5-0.4-2.3-0.7c-1.5-0.4-2.9-0.9-4.3-1.4c-2.7-0.9-5.3-1.8-7.6-2.5
			C27.7,23.7,22,21.6,22,21.6z"/>
	</g>
	<g id="XMLID_44931_">
		<path id="XMLID_44932_" class="st0" d="M122.7,16.7c0,0-5.1,2.1-13.5,5.2c-2.1,0.8-4.4,1.6-6.8,2.6c-1.2,0.4-2.5,0.9-3.8,1.4
			c-0.7,0.2-1.4,0.5-2.1,0.7c-0.7,0.2-1.4,0.4-2.2,0.6c-2.9,0.7-6,1.3-9.3,1.6c-3.2,0.4-6.6,0.5-10.1,0.6c-3.5,0-6.8-0.2-10.1-0.6
			c-3.2-0.4-6.3-0.9-9.3-1.6c-0.7-0.2-1.4-0.4-2.2-0.6c-0.7-0.2-1.4-0.5-2.1-0.7c-1.4-0.4-2.6-0.9-3.8-1.4c-2.5-0.9-4.7-1.8-6.8-2.6
			c-8.3-3.2-13.5-5.2-13.5-5.2s5.4,1.4,14,3.8c2.2,0.6,4.5,1.3,7,2c1.3,0.4,2.6,0.8,3.9,1.1c0.7,0.2,1.3,0.4,2,0.5
			c0.7,0.1,1.4,0.3,2.1,0.4c2.8,0.5,5.8,1,9,1.2c3.1,0.3,6.4,0.4,9.8,0.4c3.4,0,6.6-0.2,9.8-0.4c3.1-0.3,6.2-0.7,9-1.2
			c0.7-0.2,1.4-0.3,2.1-0.4c0.7-0.2,1.3-0.4,2-0.5c1.3-0.3,2.6-0.8,3.9-1.1c2.5-0.7,4.9-1.4,7-2C117.3,18.1,122.7,16.7,122.7,16.7z"
			/>
	</g>
	<g id="XMLID_44929_">
		<path id="XMLID_44930_" class="st0" d="M33.1,12.4c0,0,4.7,1.3,12.3,3.6c1.9,0.6,4,1.2,6.2,1.9c1.1,0.3,2.3,0.7,3.4,1.1
			c0.6,0.2,1.2,0.3,1.7,0.5c0.6,0.1,1.2,0.3,1.8,0.4c2.5,0.5,5.1,1,7.9,1.2c2.8,0.3,5.7,0.4,8.6,0.4c3,0,5.8-0.2,8.6-0.4
			c2.8-0.3,5.4-0.7,7.9-1.2c0.6-0.1,1.2-0.3,1.8-0.4c0.6-0.2,1.2-0.3,1.7-0.5c1.2-0.3,2.3-0.7,3.4-1.1c2.2-0.7,4.3-1.3,6.2-1.9
			c7.5-2.3,12.3-3.6,12.3-3.6s-4.5,2-11.7,5.1c-1.8,0.8-3.8,1.6-6,2.5c-1.1,0.4-2.2,0.9-3.4,1.3c-0.6,0.2-1.2,0.4-1.8,0.7
			c-0.6,0.2-1.3,0.4-1.9,0.6c-2.6,0.7-5.3,1.3-8.2,1.6c-2.9,0.4-5.9,0.5-8.9,0.6c-3.1,0-6.1-0.2-8.9-0.6c-2.9-0.4-5.6-0.9-8.2-1.6
			c-0.6-0.2-1.3-0.4-1.9-0.6c-0.6-0.2-1.2-0.4-1.8-0.7c-1.2-0.4-2.3-0.9-3.4-1.3c-2.1-0.9-4.1-1.7-6-2.5
			C37.5,14.5,33.1,12.4,33.1,12.4z"/>
	</g>
	<g id="XMLID_44927_">
		<path id="XMLID_44928_" class="st0" d="M110.7,8.7c0,0-3.7,1.9-9.9,4.8c-1.5,0.7-3.2,1.5-5,2.3c-0.9,0.4-1.8,0.8-2.8,1.3
			c-0.5,0.2-1,0.4-1.6,0.6c-0.5,0.2-1.1,0.4-1.6,0.5c-2.2,0.7-4.6,1.2-7.1,1.6c-2.5,0.3-5.1,0.5-7.7,0.5c-2.7,0-5.2-0.2-7.7-0.5
			c-2.5-0.3-4.9-0.9-7.1-1.6c-0.6-0.2-1.1-0.4-1.6-0.5c-0.5-0.2-1-0.4-1.6-0.6c-1-0.4-1.9-0.9-2.8-1.3c-1.8-0.8-3.5-1.6-5-2.3
			c-6.1-2.9-9.9-4.8-9.9-4.8s4,1.2,10.5,3.4c1.6,0.6,3.4,1.2,5.3,1.8c0.9,0.3,1.9,0.7,2.9,1c0.5,0.2,1,0.3,1.5,0.5
			c0.5,0.1,1,0.3,1.6,0.4c2.1,0.5,4.4,0.9,6.7,1.1c2.4,0.2,4.8,0.4,7.4,0.4c2.5,0,5-0.1,7.4-0.4c2.4-0.2,4.6-0.6,6.7-1.1
			c0.5-0.1,1-0.3,1.6-0.4c0.5-0.2,1-0.3,1.5-0.5c1-0.3,2-0.7,2.9-1c1.9-0.6,3.6-1.3,5.3-1.8C106.7,9.9,110.7,8.7,110.7,8.7z"/>
	</g>
	<g id="XMLID_44925_">
		<path id="XMLID_44926_" class="st0" d="M45.8,5.5c0,0,3.3,1,8.6,2.9c1.3,0.5,2.8,1,4.3,1.6c0.8,0.3,1.6,0.6,2.4,0.9
			c0.4,0.1,0.8,0.3,1.2,0.4c0.4,0.1,0.8,0.2,1.3,0.4C66.9,12.6,70.9,13,75,13c4.1,0,8.1-0.4,11.5-1.3c0.4-0.1,0.8-0.2,1.3-0.4
			c0.4-0.1,0.8-0.3,1.2-0.4c0.8-0.3,1.6-0.6,2.4-0.9c1.5-0.6,3-1.1,4.3-1.6c5.3-1.9,8.6-2.9,8.6-2.9s-3,1.8-8,4.4
			c-1.2,0.7-2.6,1.4-4.1,2.1c-0.7,0.4-1.5,0.8-2.3,1.1c-0.4,0.2-0.8,0.4-1.3,0.6c-0.4,0.2-0.9,0.3-1.3,0.5c-3.6,1.3-7.9,1.9-12.3,2
			c-4.4,0-8.6-0.7-12.3-2c-0.5-0.2-0.9-0.3-1.3-0.5c-0.4-0.2-0.9-0.4-1.3-0.6c-0.8-0.4-1.6-0.8-2.3-1.1c-1.5-0.7-2.8-1.5-4.1-2.1
			C48.8,7.3,45.8,5.5,45.8,5.5z"/>
	</g>
	<g id="XMLID_44923_">
		<path id="XMLID_44924_" class="st0" d="M97.3,3c0,0-2.2,1.5-6,3.7c-0.9,0.6-2,1.2-3.1,1.8c-0.6,0.3-1.1,0.6-1.7,1
			c-0.3,0.2-0.7,0.3-1,0.5c-0.3,0.2-0.7,0.3-1,0.4c-2.8,1.1-6.1,1.7-9.6,1.7c-3.4,0-6.7-0.6-9.6-1.7c-0.4-0.1-0.7-0.3-1-0.4
			c-0.3-0.2-0.7-0.3-1-0.5c-0.6-0.3-1.2-0.7-1.7-1c-1.1-0.6-2.1-1.2-3.1-1.8c-3.7-2.2-6-3.7-6-3.7s2.6,0.8,6.6,2.3
			c1,0.4,2.1,0.8,3.3,1.3c0.6,0.2,1.2,0.5,1.8,0.7c0.3,0.1,0.6,0.2,0.9,0.3c0.3,0.1,0.6,0.2,0.9,0.3C68.9,8.6,71.9,9,75,9
			c3.1,0,6.1-0.4,8.7-1.1c0.3-0.1,0.6-0.2,0.9-0.3c0.3-0.1,0.6-0.2,0.9-0.3c0.6-0.2,1.2-0.5,1.8-0.7c1.2-0.5,2.3-0.9,3.3-1.3
			C94.7,3.8,97.3,3,97.3,3z"/>
	</g>
	<g id="XMLID_44917_">
		<path id="XMLID_44922_" class="st0" d="M59.9,1.1c0,0,1.8,0.5,4.6,1.5c0.7,0.3,1.5,0.5,2.3,0.9C67.2,3.7,67.6,3.8,68,4
			c0.4,0.1,0.8,0.3,1.2,0.4c1.7,0.5,3.7,0.7,5.8,0.7c2.1,0,4.1-0.2,5.8-0.7C81.2,4.3,81.6,4.1,82,4c0.4-0.2,0.8-0.3,1.3-0.5
			c0.8-0.3,1.6-0.6,2.3-0.9c2.8-1,4.6-1.5,4.6-1.5S88.7,2.3,86.2,4c-0.6,0.4-1.3,0.9-2,1.4c-0.4,0.2-0.7,0.5-1.1,0.7
			c-0.4,0.3-0.9,0.5-1.4,0.7c-2,0.9-4.3,1.4-6.7,1.4c-2.4,0-4.7-0.5-6.7-1.4c-0.5-0.2-1-0.5-1.4-0.7c-0.4-0.3-0.8-0.5-1.1-0.7
			c-0.7-0.5-1.4-0.9-2-1.4C61.3,2.3,59.9,1.1,59.9,1.1z"/>
	</g>
	<g id="XMLID_44915_">
		<path id="XMLID_44916_" class="st0" d="M82.7,0c0,0-0.6,0.8-1.8,1.9c-0.3,0.3-0.6,0.6-0.9,0.9c-0.2,0.2-0.4,0.3-0.5,0.5
			c-0.2,0.2-0.5,0.3-0.7,0.5c-1.1,0.6-2.3,0.9-3.7,0.9c-1.3,0-2.6-0.3-3.7-0.9c-0.3-0.1-0.5-0.3-0.7-0.5C70.4,3,70.2,2.9,70,2.7
			c-0.3-0.3-0.7-0.6-0.9-0.9C68,0.8,67.3,0,67.3,0s1,0.1,2.5,0.5c0.4,0.1,0.8,0.2,1.2,0.4c0.2,0.1,0.4,0.1,0.7,0.2
			c0.2,0,0.4,0.1,0.6,0.1C73.1,1.4,74,1.5,75,1.5c1,0,1.9-0.1,2.7-0.2c0.2,0,0.4-0.1,0.6-0.1c0.2-0.1,0.4-0.1,0.7-0.2
			c0.4-0.1,0.8-0.3,1.2-0.4C81.7,0.1,82.7,0,82.7,0z"/>
	</g>
	<g id="XMLID_44913_">
		<path id="XMLID_44914_" class="st0" d="M0,74.6c0,0,33.6-1.6,75-1.6s75,1.6,75,1.6s-33.6,1.6-75,1.6S0,74.6,0,74.6z"/>
	</g>
</g>
</svg>
