<?xml version="1.0" encoding="utf-8"?>
<!-- Generator: Adobe Illustrator 24.1.0, SVG Export Plug-In . SVG Version: 6.00 Build 0)  -->
<svg version="1.1" id="Layer_1" xmlns="http://www.w3.org/2000/svg" xmlns:xlink="http://www.w3.org/1999/xlink" x="0px" y="0px"
	 viewBox="0 0 154 154" style="enable-background:new 0 0 154 154;" xml:space="preserve">
<style type="text/css">
	.st0{fill:#0E8743;}
	.st1{fill:none;stroke:#0E8743;stroke-width:2;stroke-miterlimit:10;}
	.st2{fill:none;stroke:#0E8743;stroke-width:4;stroke-miterlimit:10;}
	.st3{fill:none;stroke:#0E8743;stroke-miterlimit:10;}
</style>
<rect id="XMLID_180_" x="2" y="2" class="st2" width="150" height="150"/>
<path id="XMLID_164_" class="st3" d="M146.7,98.8h5.3V55.2h-5.3V98.8z M139.7,100.5H152v-47h-12.3V100.5z M132.5,102.3H152V51.7
	h-19.5V102.3z M125.3,104.2H152V49.8h-26.7V104.2z M117.8,106.2H152V47.8h-34.2V106.2z M110.2,108.4H152V45.6h-41.8V108.4z
	 M102.5,110.8H152V43.2h-49.5V110.8z M94.6,113.3l57.4,0V40.7H94.6V113.3z M86.4,116H152V38H86.4V116z M78.1,119H152V35H78.1V119z
	 M69.6,122.1H152V31.9H69.6V122.1z M60.8,125.5H152v-97H60.8V125.5z M51.8,129.2H152V24.8H51.8V129.2z M42.4,133.1H152V20.9H42.4
	V133.1z M32.8,137.3H152V16.7H32.8V137.3z M22.9,141.9H152V12.1H22.9V141.9z M12.6,146.8H152V7.2H12.6V146.8z"/>
</svg>
