<?xml version="1.0" encoding="utf-8"?>
<!-- Generator: Adobe Illustrator 24.0.3, SVG Export Plug-In . SVG Version: 6.00 Build 0)  -->
<svg version="1.1" id="Layer_1" xmlns:sketch="http://www.bohemiancoding.com/sketch/ns"
	 xmlns="http://www.w3.org/2000/svg" xmlns:xlink="http://www.w3.org/1999/xlink" x="0px" y="0px" viewBox="0 0 512 512"
	 style="enable-background:new 0 0 512 512;" xml:space="preserve">
<style type="text/css">
	.st0{fill-rule:evenodd;clip-rule:evenodd;}
</style>
<title></title>
<desc></desc>
<g id="black">
	<g id="slice" transform="translate(-900.000000, -500.000000)">
	</g>
	<g id="github" transform="translate(11.000000, 11.000000)">
		<path class="st0" d="M181.6,487.9c0-6.2-0.2-22.7-0.3-44.7C110,459.1,95,408.1,95,408.1c-11.6-30.3-28.4-38.4-28.4-38.4
			c-23.2-16.3,1.8-16,1.8-16c25.7,1.9,39.2,27.1,39.2,27.1c22.8,40.1,59.9,28.5,74.5,21.8c2.3-17,8.9-28.5,16.2-35.1
			c-56.8-6.6-116.6-29.1-116.6-129.7c0-28.7,10-52.1,26.4-70.4c-2.6-6.6-11.4-33.3,2.5-69.5c0,0,21.5-7.1,70.4,26.9
			c20.4-5.8,42.3-8.7,64.1-8.8c21.7,0.1,43.6,3,64.1,8.8c48.9-34,70.3-26.9,70.3-26.9c14,36.1,5.2,62.8,2.5,69.5
			c16.4,18.4,26.3,41.8,26.3,70.4c0,100.8-59.9,123-116.9,129.5c9.2,8.1,17.4,24.1,17.4,48.6c0,35.1-0.3,63.4-0.3,72
			c0,7,4.6,15.2,17.6,12.6C427.7,465.7,501,367.4,501,251.5C501,106.5,386.4-11,245-11C103.6-11-11,106.5-11,251.5
			c0,116,73.4,214.3,175.1,249.1C176.9,503,181.6,494.8,181.6,487.9z"/>
	</g>
</g>
</svg>
