<svg xmlns="http://www.w3.org/2000/svg" viewBox="0 0 185 450"><g style="isolation:isolate"><rect width="185" height="450" rx="12" fill="#fef38b" style="mix-blend-mode:hard-light"/><path d="M157.548,8.2c-9.125-.184-14.166-.493-23.242-1.338-1.06-1.947-2.163-4.008-3.348-6.267L130.648,0h-2.133c.1.2.205.389.31.591,1.143,2.178,2.208,4.169,3.233,6.054-8.777-.846-13.7-1.528-22.479-2.993L107.562,0H105.43l1.8,3.257C100.628,2.133,96.239,1.265,90.65,0H81.564c.8.193,1.617.39,2.486.6,5.91,10.709,10.043,17.569,16.508,29.472.424.779.833,1.531,1.236,2.269-3.783-.854-7.511-1.785-12.542-3.086-3.575-.925-6.488-1.707-9.225-2.479-2.823-5.246-5.741-10.5-9.52-17.516C68.658,5.826,67,2.811,65.447,0H63.315c1.557,2.812,3.21,5.825,5.059,9.256C71.98,15.947,74.8,21.038,77.5,26.048c-3.764-1.1-7.48-2.26-12.5-3.864-3.568-1.14-6.474-2.1-9.209-3.026-1.572-3.044-3.282-6.324-5.251-10.136C48.828,5.694,47.274,2.75,45.8,0H43.669c1.473,2.751,3.026,5.693,4.746,9.022,1.777,3.438,3.345,6.45,4.79,9.241-3.731-1.3-7.427-2.655-12.409-4.5-3.531-1.307-6.415-2.4-9.128-3.45C30.087,7.115,28.4,3.8,26.473,0H24.34c1.724,3.393,3.25,6.4,4.682,9.279-3.754-1.48-7.474-2.995-12.5-5.046C13.5,3,10.95,1.943,8.572.945A12.121,12.121,0,0,0,6.1,2.373c.225.5.451,1,.683,1.527,5.149,11.582,7.973,18.055,11.19,27.649l-3.336-1.432c-5.39-2.312-9.381-4.067-13.453-5.876v2.133c4.072,1.808,8.063,3.563,13.453,5.876l4.154,1.782c.191.589.383,1.182.579,1.8,3.375,10.619,4.951,16.436,6.2,24.943-2.123-.937-4.405-1.946-7-3.092-7.068-3.117-11.883-5.31-17.379-7.808v2.132c5.5,2.5,10.312,4.691,17.379,7.809,2.725,1.2,5.108,2.256,7.318,3.23.069.522.138,1.046.206,1.591,1.177,9.411,1.313,14.447.468,21.77-2.168-.983-4.492-2.038-7.123-3.226-7.415-3.348-12.5-5.716-18.248-8.357v2.132c5.746,2.642,10.834,5.009,18.248,8.357,2.531,1.143,4.776,2.161,6.872,3.113-.059.451-.119.905-.184,1.378a59.712,59.712,0,0,1-5.194,18.588c-6.883-3.182-12.218-5.7-19.742-9.127V101.4c7.232,3.3,12.439,5.748,18.945,8.759-.173.379-.348.76-.532,1.157A70.355,70.355,0,0,1,9.591,127.219c-2.64-1.219-5.358-2.465-8.408-3.84v2.132c2.578,1.163,4.922,2.234,7.18,3.274-.268.339-.537.681-.818,1.038C5.2,132.8,3.2,135.057,1.183,137.181v2.193a104.131,104.131,0,0,0,8.494-9.551l.25-.317c5.456,2.523,10.635,4.962,17.835,8.275,4.974,2.288,8.972,4.155,12.749,5.917-1.994,2.706-4.2,5.279-7.136,8.753-2.3,2.715-4.262,4.807-6.213,6.751-3.8-1.773-7.837-3.635-12.827-5.89C9.215,151,5.1,149.123,1.183,147.365V149.5c3.91,1.757,8.034,3.637,13.152,5.949,4.353,1.966,7.975,3.633,11.354,5.2-2.512,2.428-5.126,4.8-8.5,8.111-2.658,2.6-4.879,4.633-7.008,6.572-3.323-1.466-6.232-2.75-9-3.956v2.132c2.317,1.011,4.739,2.078,7.42,3.261-2.331,2.131-4.649,4.3-7.42,7.15v2.229l.939-.986c3.026-3.186,5.492-5.525,7.921-7.757l2.855,1.26c11.775,5.192,18.3,8.316,28.864,13.22-3.636,3.249-6.857,5.955-11.286,10.365-1.553,1.546-2.938,2.9-4.227,4.162-6.1-2.754-11.668-5.21-19.686-8.561-1.923-.8-3.7-1.546-5.38-2.246v2.132c1.681.7,3.46,1.443,5.38,2.246,7.364,3.078,12.662,5.4,18.2,7.892a100.625,100.625,0,0,0-10.158,11.433c-1.344,1.757-2.525,3.309-3.6,4.775-3.183-1.316-6.309-2.572-9.821-3.935v2.133c3.074,1.192,5.857,2.305,8.635,3.446A71.688,71.688,0,0,0,2.3,239.1c-.4.889-.763,1.728-1.114,2.542v5.781c8.884,3.208,14.924,5.657,25.287,9.9,1.285.527,2.49,1.024,3.656,1.509a71.812,71.812,0,0,0-3.387,9.58,87.263,87.263,0,0,0-2.583,11.031c-5.249-2.04-10.137-3.836-17.045-6.23-2.152-.746-4.1-1.417-5.928-2.038v2.133c1.827.621,3.777,1.291,5.928,2.037,6.785,2.352,11.621,4.126,16.765,6.121a93.623,93.623,0,0,0-.539,11.173,106.236,106.236,0,0,0,.64,12.846c-9.343-3.295-14.759-5.128-22.794-7.5v2.133c8.036,2.373,13.457,4.208,22.806,7.5l.279.1c.526,3.655,1.312,7.566,2.454,12.6,1.271,5.607,2.448,9.968,3.876,14.4-3.889-1.314-7.781-2.552-12.955-4.123-4.225-1.283-7.589-2.282-10.789-3.181-.983-2.749-1.956-5.671-3-9.032-1.054-3.386-1.927-6.3-2.668-8.969v7.236c.174.565.351,1.14.536,1.733.963,3.093,1.864,5.819,2.768,8.377-1.09-.3-2.184-.585-3.3-.875v2.133c1.413.366,2.784.731,4.161,1.109,2.419,6.561,5,12.375,8.936,21.128,1.494,3.319,2.855,6.237,4.173,8.968-1.694-.448-3.5-.916-5.526-1.428-4.67-1.184-8.237-2.055-11.744-2.838v2.131c3.507.783,7.075,1.656,11.744,2.839,2.505.635,4.691,1.2,6.721,1.747,3.426,6.954,6.729,13.049,11.516,22.149,1.811,3.443,3.438,6.467,4.98,9.289-2.279-.63-4.73-1.282-7.622-2.029-5.676-1.467-9.687-2.462-14.008-3.411-2.553-4.5-5.164-9.143-8.334-15.027-1.853-3.441-3.486-6.442-5-9.229v3.931c.9,1.662,1.848,3.409,2.865,5.3,3.048,5.657,5.578,10.168,8.038,14.5-2.326-.489-4.829-.987-7.79-1.552-1.1-.209-2.123-.4-3.113-.587v2.132c.989.185,2.015.378,3.113.588,3.553.678,6.451,1.259,9.168,1.844,2.933,5.152,5.883,10.309,9.616,17.128,3.113,5.687,5.644,10.211,8.02,14.529-6.788-1.619-11.542-2.607-19.657-4.039-.875-.155-1.7-.3-2.506-.438-2.809-5.341-5.227-9.692-7.754-14.155v3.791c1.733,3.1,3.481,6.3,5.411,9.962-1.927-.326-3.69-.61-5.411-.871v2.132c2.079.314,4.222.665,6.637,1.08.3.579.6,1.157.915,1.763,6.075,11.783,9.553,18.388,13.915,28.7-5.255-.97-9.874-1.676-16.8-2.569l-1.145-.146a12.134,12.134,0,0,0,3.961,2.649c2.331.312,4.406.608,6.371.91H27.061c-.715-.141-1.418-.278-2.1-.409-4.447-10.559-7.938-17.186-14.1-29.133-.24-.466-.47-.906-.7-1.357l1.28.225c8.64,1.525,13.47,2.547,21,4.362,2.793,5.117,5.476,10.195,8.779,16.868,1.751,3.538,3.27,6.605,4.653,9.444h2.133c-1.383-2.84-2.9-5.906-4.654-9.444-3.174-6.414-5.777-11.353-8.454-16.271l1.1.268c8.449,2.073,13.193,3.395,20.564,5.628,3.568,6.5,6.648,12.157,10.515,19.819h2.133c-3.712-7.354-6.7-12.861-10.089-19.04l1.018.311c8.327,2.551,13,4.13,20.295,6.719C82.47,441.7,84.543,445.519,86.9,450h2.133c-2.162-4.1-4.081-7.651-5.95-11.066l.875.313c8.2,2.93,12.827,4.713,20.013,7.554.593,1.106,1.163,2.164,1.723,3.2h2.132c-.376-.695-.756-1.4-1.147-2.127l.875.347c1.609.638,3.077,1.225,4.457,1.78h5.24c-2.875-1.184-5.9-2.407-9.7-3.912l-2.327-.922c-.522-.976-1.054-1.974-1.609-3.02-6.342-11.951-10.323-18.97-15.6-29.286,3.725,1.459,7.4,2.949,12.382,4.969,3.449,1.4,6.273,2.565,8.928,3.676.26.531.518,1.055.789,1.608,5.3,10.789,9,17.593,13.962,26.887h2.132c-4.963-9.294-8.666-16.1-13.962-26.887l-.233-.476c3.722,1.574,7.408,3.164,12.393,5.3,3.427,1.47,6.241,2.691,8.887,3.848,2.976,6.32,5.674,11.609,9.069,18.213H144.5c-3.182-6.189-5.752-11.223-8.513-17.035,3.792,1.664,7.539,3.32,12.627,5.539,3.5,1.524,6.361,2.784,9.059,3.97l1.068,2.37c.824,1.827,1.6,3.528,2.361,5.156h2.133c-.758-1.628-1.538-3.329-2.362-5.156l-.541-1.2c3.833,1.682,7.628,3.336,12.784,5.536l1.591.679a11.935,11.935,0,0,0,3.006-.849l-4.6-1.963c-5.69-2.427-9.723-4.19-13.979-6.059a255.22,255.22,0,0,1-11.219-28.278c-.121-.365-.232-.708-.348-1.062,5.173,2.3,9.74,4.329,16.537,7.25,2.575,1.107,4.833,2.08,6.937,2.984a210.733,210.733,0,0,0,7.754,22.655c.419,1.088.826,2.13,1.226,3.138a12.142,12.142,0,0,0,1.588-1.381c-.224-.574-.451-1.158-.682-1.757a219.244,219.244,0,0,1-7.471-21.619c3.82,1.634,7.315,3.107,11.541,4.832v-2.132c-4.466-1.822-8.1-3.359-12.182-5.107-.507-1.969-1.005-4.049-1.519-6.346-1.833-8.206-2.717-13.31-3.043-19.259,3.353,1.42,6.912,2.894,11.353,4.687,1.946.786,3.716,1.5,5.391,2.174v-2.133c-1.675-.673-3.445-1.387-5.391-2.173-4.483-1.81-8.067-3.3-11.448-4.728-.055-1.737-.072-3.574-.055-5.605a69.543,69.543,0,0,1,1.747-16.924c5.881,2.4,10.361,4.224,15.147,6.064v-2.133c-4.655-1.79-9.022-3.561-14.664-5.866.4-1.508.853-3.108,1.386-4.882a67.761,67.761,0,0,1,6.262-15.011c2.2.83,4.488,1.675,7.016,2.583v-2.132c-2.147-.772-4.128-1.5-6.021-2.209.789-1.372,1.657-2.837,2.632-4.476,1.2-2.017,2.306-3.75,3.389-5.354v-3.042c-1.79,2.45-3.528,5.047-5.522,8.4-.821,1.38-1.562,2.632-2.249,3.815-5.913-2.248-11.26-4.436-18.921-7.571-4.19-1.716-7.668-3.174-10.906-4.562,3.1-6.7,5.793-10.317,10.786-17.219.158-.219.31-.423.465-.635,9.354,3.739,15.7,6.17,26.347,9.766V323.6c-10.18-3.439-16.419-5.808-25.124-9.277,4.668-6.163,8.217-9.619,14.263-16.542.2-.226.384-.436.576-.655,3.2,1.094,6.492,2.166,10.285,3.345v-2.133c-3.221-1-6.084-1.926-8.83-2.852,3.245-3.623,5.929-6.409,8.83-9.579v-2.361c-3.623,4.067-6.676,7.179-10.465,11.385-5.567-1.908-10.9-3.9-18.239-6.664-5.265-1.985-9.477-3.636-13.46-5.257,1.022-1.067,2.108-2.211,3.295-3.487,4.936-5.3,8.415-8.516,12.654-12.954,4,1.407,8.237,2.817,13.512,4.491,4.9,1.556,8.919,2.806,12.7,3.919v-2.133c-3.785-1.113-7.8-2.362-12.7-3.918-4.617-1.465-8.433-2.727-12-3.963,1.062-1.139,2.179-2.365,3.387-3.734,5.107-5.785,8.54-9.452,12.452-14.594.816.226,1.654.455,2.524.692,2.285.62,4.373,1.181,6.338,1.7V246.9c-1.964-.517-4.054-1.077-6.338-1.7-.414-.112-.8-.219-1.2-.329.939-1.279,1.912-2.651,2.955-4.176,1.741-2.548,3.235-4.753,4.587-6.845v-3.423c-1.9,3.165-4.012,6.305-6.72,10.268-.911,1.334-1.769,2.546-2.6,3.687-11.5-3.186-18.149-5.426-30.447-9.774l-1.3-.463c5.525-6.424,8.881-10.371,13.691-18.347.061-.1.118-.2.179-.3,6.1,1.845,11.655,3.339,19.674,5.28,2.758.668,5.223,1.253,7.522,1.78v-2.132c-2.3-.528-4.763-1.112-7.522-1.78-7.542-1.826-12.908-3.257-18.592-4.955a88.538,88.538,0,0,0,9.731-21.262c.05-.156.095-.3.144-.456,4.956,1.167,9.779,2.151,16.239,3.336v-2.132c-6.19-1.135-10.877-2.086-15.616-3.19a85.646,85.646,0,0,0,4.206-24c.013-.228.022-.44.033-.663,1.705.295,3.507.6,5.484.919,2.134.347,4.072.654,5.893.93v-2.133c-1.821-.276-3.759-.582-5.893-.929-1.939-.315-3.709-.612-5.385-.9.385-9.37-.128-15.262-2.078-26.184-.048-.269-.095-.521-.143-.784,4.575.686,8.564,1.17,13.5,1.646v-2.133c-5.083-.49-9.161-.989-13.91-1.708-1.945-10.11-3.961-16.354-8.181-27.889-.111-.3-.218-.586-.327-.883,5.357.71,10.023,1.159,16.949,1.68,1.989.15,3.785.276,5.469.384V105.2c-1.685-.108-3.477-.233-5.469-.383-7.287-.549-12.067-1.015-17.788-1.792-4.041-10.666-7.287-17.177-13.2-29.152-.162-.328-.317-.636-.476-.957,6.239.84,11,1.3,18.675,1.842,1.571.112,3.01.208,4.376.294,4.506,8.235,7.785,14.4,12.2,24.241.6,1.328,1.153,2.576,1.687,3.777V98.305c-4.167-9.218-7.365-15.234-11.681-23.122,4.119.233,7.6.348,11.681.385V73.436c-4.474-.041-8.223-.175-12.888-.456-1.058-1.93-2.183-3.978-3.411-6.229-5.445-9.978-9.265-16.25-14.1-24.5,2.5.157,5.193.29,8.407.424,5.86.243,10.013.351,14.488.33.373.636.749,1.278,1.138,1.947,2.379,4.082,4.438,7.524,6.368,10.731V52.127c-1.315-2.2-2.708-4.554-4.235-7.175-.394-.675-.773-1.323-1.15-1.966,1.674-.022,3.448-.062,5.385-.118V40.737c-2.428.07-4.579.114-6.631.131C172.2,30.4,168.106,23.889,161.907,12.341l-1.049-1.953c8.873.137,14.024.023,23.649-.524.134.258.267.509.4.764a12.035,12.035,0,0,0-3.7-7.317c.77,1.576,1.511,3.064,2.233,4.48-9.338.517-14.494.6-23.738.445C158.086,5.23,156.655,2.559,155.318,0h-2.132C154.517,2.547,155.941,5.206,157.548,8.2Zm-24.259.7c4.584,8.318,8.44,14.658,14.226,24.8,1.27,2.226,2.444,4.257,3.561,6.175-3.9-.3-7.727-.7-12.9-1.309-3.678-.431-6.665-.809-9.472-1.211C122.345,26.033,118.12,19.215,111.4,6.956L110.87,6C119.245,7.382,124.176,8.035,133.289,8.9ZM166,391.811c-4.41-1.887-8.719-3.782-14.533-6.317-4.371-1.9-7.869-3.457-11.169-4.936a78.119,78.119,0,0,1-.1-22.274c.031-.262.063-.5.094-.758,10.277,4.551,16.186,7.208,27.389,11.788l.229.093c-1.387,5.587-1.874,10.077-1.938,17.718C165.96,388.8,165.97,390.344,166,391.811ZM28.219,64.636c-.026-.2-.052-.394-.078-.595,5.685,2.5,10.53,4.591,17.781,7.583,2.756,1.138,5.159,2.128,7.387,3.038a115.243,115.243,0,0,1,1.822,13.812c.345,4.272.5,7.625.444,10.71-2.137-.914-4.428-1.9-7.022-3.012-8.16-3.5-13.459-5.893-19.978-8.849C29.537,79.5,29.444,74.431,28.219,64.636Zm60.822,73.572c-1.886-.737-3.613-1.42-5.252-2.075.486-2.042.919-4.284,1.34-6.931A80.471,80.471,0,0,0,86.39,113.65c6.332,2.385,11.519,4.212,19.494,6.813,2.55.832,4.8,1.559,6.909,2.225a110.8,110.8,0,0,1,.182,11.749,89.164,89.164,0,0,1-1.027,12.3C104.2,144.089,98.456,141.888,89.041,138.208Zm22.544,10.541a98.08,98.08,0,0,1-2.749,10.269,74.476,74.476,0,0,1-4.064,10.55c-4.01-1.58-8.2-3.29-13.51-5.467-6.533-2.678-11.377-4.747-16.286-6.908,1.006-1.731,2.009-3.637,3.093-5.908A75.158,75.158,0,0,0,83.3,138.069c1.78.713,3.668,1.46,5.743,2.271C98.309,143.963,104.014,146.152,111.585,148.749Zm-5.7-30.419c-8.008-2.611-13.206-4.443-19.574-6.842-.116-2.36-.327-4.938-.642-7.964a116.438,116.438,0,0,0-3.035-17.762c5.439,1.919,10.154,3.466,17.154,5.608,2.749.841,5.14,1.564,7.36,2.217,1.158,3.962,2.132,7.984,3.16,13.019a140.682,140.682,0,0,1,2.288,13.887C110.547,119.844,108.355,119.136,105.884,118.33ZM57.263,88.474A117.836,117.836,0,0,0,55.622,75.6c5.512,2.23,10.272,4.075,17.347,6.668,2.73,1,5.11,1.868,7.318,2.659a115.831,115.831,0,0,1,3.248,18.6c.279,2.676.478,5,.6,7.14-2.072-.788-4.29-1.642-6.793-2.609-8.034-3.105-13.262-5.253-19.654-7.97A103.67,103.67,0,0,0,57.263,88.474Zm42.524.764c-7.263-2.223-12.064-3.8-17.769-5.825-.713-2.645-1.555-5.521-2.577-8.884a196.513,196.513,0,0,0-7.018-19.652c6.225,2.132,10.967,3.635,18.588,5.855,1.538.448,2.949.855,4.287,1.238,1.9,4.255,3.69,8.6,5.754,14.066,2.313,6.125,3.994,10.745,5.386,15.209C104.416,90.647,102.248,89.991,99.787,89.238ZM77.308,74.529c.915,3.006,1.687,5.629,2.351,8.042-2.034-.731-4.215-1.526-6.69-2.433-7.274-2.667-12.1-4.54-17.812-6.857-.814-3.817-1.9-7.889-3.412-13.167-1.615-5.631-3.055-10.04-4.706-14.49,6.268,2.46,11.035,4.246,18.689,6.929,1.506.527,2.89,1.01,4.2,1.466A196.922,196.922,0,0,1,77.308,74.529ZM56.031,113.257a86.261,86.261,0,0,0,1.556-11.083c6.438,2.737,11.68,4.892,19.756,8.013,2.542.983,4.791,1.848,6.89,2.647A79.291,79.291,0,0,1,83,129.2c-.368,2.312-.744,4.317-1.157,6.149-7.828-3.159-13.611-5.69-23.125-9.83-1.881-.819-3.605-1.576-5.242-2.3A70.52,70.52,0,0,0,56.031,113.257Zm2.684,14.4c9.324,4.057,15.061,6.568,22.655,9.64a72.918,72.918,0,0,1-5.433,13.991c-.929,1.946-1.8,3.626-2.662,5.157-4.052-1.793-8.281-3.7-13.658-6.111-6.558-2.938-11.423-5.186-16.357-7.484a70.49,70.49,0,0,0,5.115-8.455,92.9,92.9,0,0,0,4.419-9.338C54.627,125.866,56.574,126.722,58.715,127.654Zm15.249,31.225c5.265,2.326,10.316,4.493,17.3,7.354,4.918,2.016,8.872,3.631,12.614,5.113-1.421,2.7-3.076,5.4-5.216,8.773A83.324,83.324,0,0,1,92.265,189c-3.733-1.627-7.7-3.386-12.575-5.542-7.453-3.294-12.77-5.74-18.4-8.358,1.368-1.485,2.784-3.118,4.358-5.071A112.308,112.308,0,0,0,73.964,158.879Zm5.726,26.713c4.312,1.906,7.9,3.5,11.258,4.967-1.994,2.3-4.169,4.6-6.9,7.555-2.938,3.178-5.346,5.493-7.761,7.71-11.473-5.232-18.031-8.448-30.316-14.121-.426-.2-.826-.382-1.238-.573,1.534-1.383,3.157-2.886,4.992-4.675,4.145-4.042,7.123-6.708,10.166-9.87C66.062,179.457,71.625,182.028,79.69,185.592Zm-.708,23.589c11.726,5.314,18.246,8.35,28.825,12.818-5.24,5.421-8.985,8.4-14.906,14.155-.261.253-.509.491-.761.734-6.14-2.816-11.729-5.458-19.768-9.167-4.555-2.1-8.313-3.861-11.831-5.514,2.631-2.406,5.316-4.746,8.762-8.027,2.609-2.485,4.786-4.434,6.843-6.289C77.062,208.309,78,208.735,78.982,209.181Zm-6.61,20.673c7.378,3.4,12.691,5.908,18.261,8.474-5.375,5.087-8.932,8.02-14.221,13.993l-.658.741c-5.4-2.537-10.581-4.976-17.739-8.247-5.169-2.361-9.3-4.266-13.214-6.056,2.221-2.681,4.615-5.215,7.778-8.65,2.4-2.6,4.439-4.62,6.433-6.488C62.975,225.484,67.153,227.446,72.372,229.854Zm18.082,32.171c6.582,3.016,11.5,5.309,16.46,7.57-.224.247-.445.489-.675.746-5.4,6.046-8.5,9.249-12.3,15.091-1.523-.705-3.124-1.443-4.85-2.235-10.279-4.72-16.343-7.619-24.979-11.546.3-.526.6-1.063.927-1.625a78.263,78.263,0,0,1,10.884-14.752C80.237,257.3,84.707,259.392,90.454,262.025ZM58.015,246.948c6.567,3,11.467,5.3,16.4,7.619-4.746,5.349-7.618,8.686-11.51,15.459-.169.294-.328.573-.49.856-1.5-.677-3.07-1.386-4.765-2.144-10.237-4.578-16.264-7.319-24.916-10.951a99.457,99.457,0,0,1,5.668-10.04,79.661,79.661,0,0,1,5.138-7.429C47.843,242.276,52.292,244.333,58.015,246.948Zm5.149,26.4c9.144,4.148,15.282,7.088,25.929,11.977,1.339.615,2.594,1.193,3.806,1.753-.176.284-.35.563-.53.86-4.04,6.665-6.129,10.441-8.186,17.258-5.487-2.526-10.523-4.832-17.7-8-4.006-1.769-7.332-3.243-10.434-4.6.141-.62.289-1.252.447-1.913A60.349,60.349,0,0,1,63.164,273.352Zm74.878,106.19c-4.274-1.924-8.47-3.831-14.118-6.356-4.317-1.93-7.768-3.49-11.029-4.963-.277-1.686-.536-3.463-.792-5.4-1.044-7.936-1.332-12.751-.924-18.459,10.058,4.565,15.849,7.3,26.8,12.14l.3.13c-.07.534-.138,1.083-.2,1.653A77.222,77.222,0,0,0,138.042,379.542Zm-28.286-41.891c-.175,1.323-.321,2.554-.444,3.732l-.457-.207c-10.686-4.831-16.38-7.508-26.179-11.837A67.086,67.086,0,0,1,85.5,308.078l.035-.125c3.291,1.516,6.808,3.138,11.1,5.094,7,3.194,11.995,5.526,17.331,7.981A59.515,59.515,0,0,0,109.756,337.651Zm.215,25.169c.2,1.549.411,2.988.627,4.367-4.148-1.87-8.242-3.7-13.734-6.107-4.238-1.854-7.629-3.344-10.836-4.736A101.542,101.542,0,0,1,82.713,331.7c0-.074,0-.141,0-.215,9.779,4.32,15.473,7,26.146,11.823l.265.119C108.61,349.557,108.871,354.457,109.971,362.82ZM66.485,299.331c6.937,3.065,11.875,5.321,17.154,7.751-.092.329-.184.653-.276,1A66.559,66.559,0,0,0,80.537,328.4l-.322-.142c-10.537-4.627-16.156-7.128-25.856-11.087-.04-.719-.077-1.453-.111-2.22-.384-8.833-.047-13.675,1.376-20.408C58.848,295.953,62.3,297.48,66.485,299.331Zm13.73,31.056.344.152c.007.384.012.762.022,1.162a99.8,99.8,0,0,0,3.072,23.615c-4.058-1.748-8.078-3.441-13.461-5.641-4.212-1.722-7.577-3.093-10.766-4.362-.218-.807-.438-1.632-.662-2.493-2.6-10.009-3.712-15.611-4.267-23.463C64.111,323.283,69.729,325.782,80.215,330.387Zm-12.8,43.462c.248.605.489,1.185.73,1.765-1.727-.656-3.573-1.347-5.64-2.111-6.888-2.548-11.38-4.18-16.778-5.985C43.371,362.442,41.238,357.5,38.7,351c-2.01-5.144-3.566-9.228-4.887-13.044,2.966,1.032,6.122,2.166,10,3.574,5.575,2.024,9.674,3.574,13.876,5.229C60.3,356.177,62.752,362.468,67.42,373.849Zm-4.91,1.786c2.495.923,4.677,1.742,6.705,2.515,4.37,10.3,7.844,17.083,13.859,29.141.324.648.636,1.269.948,1.89-2.256-.862-4.681-1.77-7.538-2.823-5.591-2.059-9.545-3.5-13.778-4.947-2.851-5.307-5.587-10.53-8.977-17.415-2.695-5.474-4.854-9.836-6.8-13.944C51.811,371.7,56.135,373.277,62.51,375.635Zm7.042-1.786c-4.508-10.992-6.945-17.24-9.462-26.139,2.994,1.195,6.182,2.5,10.1,4.1,5.633,2.3,9.774,4.05,14.027,5.886.107.445.213.883.327,1.346A181.026,181.026,0,0,0,93.227,385.7c-1.764-.737-3.648-1.517-5.763-2.384-6.895-2.826-11.4-4.667-16.778-6.738C70.316,375.7,69.94,374.793,69.552,373.849Zm17.126-14.81c-.027-.108-.05-.207-.076-.314,3.039,1.321,6.276,2.744,10.262,4.488,5.66,2.476,9.835,4.348,14.114,6.278,1.233,7.083,2.844,12.731,5.881,22.155.568,1.765,1.114,3.4,1.651,4.97-1.794-.79-3.71-1.628-5.861-2.562-6.938-3.014-11.478-5-16.866-7.278A185.089,185.089,0,0,1,86.678,359.039Zm26.618,11.5c3.144,1.419,6.488,2.93,10.628,4.781,5.775,2.582,10.032,4.518,14.407,6.487.083.615.17,1.247.263,1.9a129.577,129.577,0,0,0,5.678,24.339c-1.868-.83-3.863-1.715-6.11-2.707-7.059-3.115-11.668-5.194-17.138-7.614-.66-1.9-1.329-3.9-2.033-6.079C116.105,382.689,114.507,377.146,113.3,370.537Zm25.258-15.913-.578-.256c-10.884-4.811-16.675-7.544-26.625-12.061.139-1.453.317-2.983.537-4.656a59.8,59.8,0,0,1,3.868-15.8c3.39,1.554,7.011,3.2,11.442,5.169,7.108,3.166,12.181,5.454,17.608,7.809-.2.453-.408.917-.617,1.4C141.09,343.415,139.618,347.549,138.554,354.624Zm-23.845-35.383c-5.625-2.584-10.754-4.984-18.083-8.327-4.058-1.851-7.426-3.4-10.566-4.849,2.143-7.371,4.234-11.183,8.441-18.123l.058-.093c9.291,4.3,15.507,7.252,26.331,12.057,1.354.6,2.623,1.165,3.849,1.71a68.544,68.544,0,0,0-8.611,14.424C115.612,317.178,115.143,318.233,114.709,319.241Zm6.181-21.468c-10.424-4.626-16.563-7.53-25.3-11.579,4.02-6.333,7.157-9.551,12.783-15.853l.053-.058c4.376,1.988,8.91,4.006,14.754,6.524,6.657,2.869,11.637,5.025,16.659,7.106a135.881,135.881,0,0,0-11.725,13.258c-.777,1.018-1.494,1.956-2.171,2.848C124.357,299.314,122.692,298.573,120.89,297.773ZM108.3,268.091c-5.438-2.471-10.649-4.9-17.841-8.2-5.158-2.364-9.284-4.291-13.194-6.125l1.284-1.447c5.055-5.709,8.532-8.645,13.523-13.335,3.955,1.815,8.133,3.7,13.345,5.99,7.378,3.243,12.706,5.6,18.284,7.955-.236.237-.468.469-.712.716C116.979,259.719,113.293,262.742,108.3,268.091Zm-2.883-25.247c-4.552-2-8.311-3.69-11.827-5.295.469-.449.948-.909,1.448-1.4,5.683-5.523,9.366-8.5,14.285-13.519.878.369,1.777.745,2.718,1.136,11.73,4.879,18.276,7.591,28.866,11.417-.223.259-.442.513-.672.782-5.761,6.707-9.519,10.014-15.028,15.46C119.057,248.86,113.45,246.376,105.412,242.844Zm3.842-22.368c-11.453-4.81-18.02-7.875-30.272-13.427l-1.269-.577c2.658-2.42,5.244-4.87,8.469-8.358,2.463-2.664,4.473-4.8,6.308-6.882,6.14,2.675,11.694,5.008,19.739,8.193,4.3,1.7,7.887,3.114,11.237,4.4-4.34,6.212-7.744,9.667-13.444,15.831C109.76,219.939,109.509,220.205,109.254,220.476Zm2.975-23.184c-7.457-2.951-12.773-5.171-18.4-7.61a82.4,82.4,0,0,0,6.962-9.563c1.958-3.088,3.507-5.6,4.844-8.079,5.212,2.041,10.231,3.9,17.155,6.318,4.883,1.7,8.816,3.058,12.537,4.277-2.794,7.221-5.36,11.393-10.008,18.453-.237.361-.468.7-.7,1.045C120.94,200.731,117.028,199.191,112.229,197.292Zm10.562-21.067c-6.514-2.274-11.342-4.054-16.231-5.957a72.437,72.437,0,0,0,4.408-11.25c1.147-3.66,1.988-6.649,2.608-9.592,1.738.587,3.578,1.2,5.6,1.861,9.195,3.01,14.87,4.778,22.385,6.78-.807,8.233-2.133,13.146-5.036,21.335-.162.459-.322.9-.482,1.332C132.107,179.456,127.988,178.04,122.791,176.225Zm-3.617-27.071c-1.87-.612-3.583-1.181-5.208-1.729a86.822,86.822,0,0,0,1.142-12.988c.119-4.237.091-7.686-.136-11.064,6.241,1.942,11.385,3.378,19.272,5.372,2.512.635,4.735,1.187,6.811,1.687a94.152,94.152,0,0,1,.817,23.945c-.04.553-.083,1.083-.126,1.607C134.138,153.962,128.445,152.189,119.174,149.154Zm15.07-22.542c-7.96-2.012-13.127-3.456-19.447-5.426a135.5,135.5,0,0,0-2.358-14.58c-.969-4.749-1.893-8.6-2.966-12.343,5.368,1.542,10.046,2.745,16.976,4.371,2.71.636,5.073,1.179,7.266,1.663a140.07,140.07,0,0,1,6.7,26.071c.105.636.2,1.247.3,1.849C138.734,127.738,136.618,127.213,134.244,126.612Zm-7.8-30.11c-7.226-1.7-12-2.93-17.665-4.57-1.433-4.679-3.168-9.456-5.6-15.9-1.952-5.168-3.663-9.337-5.448-13.375,6.176,1.732,10.9,2.909,18.491,4.6,1.515.338,2.906.644,4.227.93a244.767,244.767,0,0,1,11.74,27.745c.249.7.487,1.384.72,2.051C130.944,97.547,128.835,97.062,126.449,96.5Zm-6.044-32.859c-5.459-11.367-9.215-18.042-14.866-28.356,2.408.507,5,1.021,8.076,1.607,5.7,1.084,9.736,1.8,14.066,2.44.239.428.472.845.717,1.287,6.721,12.108,10.726,18.811,16.223,29.681-1.008-.144-2.055-.3-3.173-.463-8.1-1.2-12.949-2.062-19.756-3.514C121.277,65.458,120.851,64.57,120.405,63.643ZM86.5,1.175c8.222,1.93,13.066,2.928,22.02,4.433l.741,1.348c6.654,12.133,10.863,18.938,17.113,30.049-3.858-.591-7.641-1.269-12.762-2.244-3.648-.694-6.611-1.287-9.4-1.888-.5-.907-1-1.835-1.527-2.8C96.344,18.383,92.242,11.553,86.5,1.175Zm2.749,30.208c5.617,1.453,9.611,2.445,13.869,3.383,5.813,10.617,9.6,17.317,15.152,28.877l1.04,2.167c-.981-.214-2-.439-3.086-.681-8.028-1.789-12.859-3.005-19.585-4.909-2.279-5.009-4.773-10.079-8.1-16.878-2.667-5.45-4.928-9.839-7.174-14.063C83.722,29.933,86.254,30.607,89.252,31.383ZM65.008,24.317c5.616,1.795,9.6,3.037,13.851,4.255,2.371,4.442,4.735,9.016,7.551,14.77C89.582,49.825,92,54.735,94.19,59.52c-1.009-.29-2.059-.594-3.179-.92-8.041-2.342-12.882-3.889-19.636-6.215-1.222-2.873-2.585-5.983-4.184-9.607-3.708-8.408-6.6-14.285-10.061-21.037C59.483,22.533,62.012,23.359,65.008,24.317ZM40.8,15.9c5.576,2.065,9.543,3.515,13.749,4.964,3.668,7.13,6.645,13.147,10.514,21.918,1.438,3.26,2.689,6.11,3.815,8.741-1-.348-2.038-.71-3.146-1.1-8.033-2.815-12.89-4.646-19.637-7.3-1.634-4.226-3.519-8.695-5.976-14.448-2.625-6.144-4.831-10.938-7.159-15.728C35.3,13.844,37.818,14.793,40.8,15.9ZM8.915,3.9,8.54,3.064c2.387,1,4.948,2.062,7.984,3.3,5.605,2.288,9.587,3.91,13.8,5.559,2.514,5.136,4.844,10.168,7.655,16.747,2.266,5.305,4.041,9.514,5.586,13.452-1.036-.411-2.117-.839-3.27-1.3-8.106-3.221-13.008-5.284-19.842-8.211C17.091,22.429,14.249,15.9,8.915,3.9ZM21.5,35.831c-.08-.254-.158-.491-.238-.739,6.424,2.748,11.251,4.772,19.036,7.866,1.52.6,2.915,1.157,4.241,1.681,1.808,4.791,3.339,9.429,5.073,15.475,1.388,4.843,2.412,8.666,3.2,12.213-2.091-.855-4.337-1.78-6.892-2.835-7.38-3.046-12.266-5.157-18.084-7.716C26.569,52.717,25.006,46.857,21.5,35.831ZM28.251,89.8c.022-.16.041-.309.062-.467,6.64,3.012,11.972,5.417,20.24,8.968,2.566,1.1,4.836,2.078,6.955,2.983a82.562,82.562,0,0,1-1.61,11.97,73.411,73.411,0,0,1-2.282,9.142c-7.973-3.546-13.823-6.291-23.5-10.706-1.949-.889-3.731-1.708-5.422-2.487A60.372,60.372,0,0,0,28.251,89.8Zm-.489,45.845c-6.657-3.062-11.587-5.378-16.606-7.7,4.611-5.872,7.2-9.372,10.572-16.632l.159-.344c1.921.886,3.969,1.827,6.226,2.857,9.419,4.3,15.21,7.01,22.86,10.42a86.866,86.866,0,0,1-4.73,10.147,72.225,72.225,0,0,1-4.592,7.705C37.533,140.177,33.239,138.168,27.762,135.648Zm7.746,16.8c2.669-3.157,4.732-5.571,6.583-8.017,5.347,2.493,10.451,4.86,17.526,8.03,4.941,2.214,8.913,4,12.669,5.672a105.228,105.228,0,0,1-8.772,11.9c-1.332,1.653-2.55,3.075-3.723,4.375-3.766-1.754-7.763-3.621-12.7-5.9-7.479-3.45-12.818-5.981-18.481-8.629C30.791,157.741,32.944,155.483,35.508,152.451ZM12.9,176.532l-1.283-.566c2.343-2.135,4.756-4.318,7.7-7.206,3.066-3,5.5-5.239,7.806-7.443,6.238,2.909,11.838,5.573,19.968,9.324,4.341,2,7.951,3.686,11.322,5.256-3.277,3.474-6.38,6.228-10.82,10.558-1.55,1.512-2.949,2.818-4.272,4.022C31.817,185.144,25.244,181.976,12.9,176.532ZM32.609,202.25c4.131-4.114,7.209-6.742,10.556-9.714l2.808,1.3c11.717,5.41,18.227,8.586,28.758,13.408-2.271,2.054-4.646,4.161-7.56,6.936-3.131,2.981-5.632,5.184-8.036,7.366-6.1-2.869-11.668-5.5-19.676-9.13-4.519-2.051-8.253-3.758-11.75-5.343C29.187,205.62,30.782,204.069,32.609,202.25ZM16.738,219.308a98.452,98.452,0,0,1,9.492-10.772c3.927,1.774,8.069,3.671,13.229,6.013,7.331,3.327,12.615,5.809,18.136,8.405-2.225,2.059-4.465,4.239-7.148,7.155-2.886,3.134-5.13,5.517-7.189,7.947-5.318-2.421-10.444-4.707-17.507-7.728-5.122-2.19-9.219-3.943-13.109-5.565C13.849,223.1,15.185,221.339,16.738,219.308ZM26.47,255.19c-10.152-4.16-16.144-6.592-24.737-9.7.76-1.96,1.642-4.023,2.7-6.389a71.842,71.842,0,0,1,7.041-12.688c4.244,1.759,8.643,3.642,14.28,6.053,6.5,2.777,11.35,4.933,16.225,7.144a78.322,78.322,0,0,0-5.7,8.142,106.825,106.825,0,0,0-5.31,9.3C29.548,256.456,28.061,255.842,26.47,255.19Zm2.4,13.221a74.661,74.661,0,0,1,3.062-8.828c9.086,3.8,15.174,6.57,25.721,11.287,1.339.6,2.594,1.164,3.805,1.71a61.056,61.056,0,0,0-7.093,18.1c-.088.365-.169.714-.251,1.067-5.4-2.353-10.367-4.458-17.439-7.315-4.039-1.632-7.382-2.976-10.505-4.2A83.526,83.526,0,0,1,28.871,268.411Zm-3.4,24.227a97.523,97.523,0,0,1,.452-10.374c3.194,1.255,6.607,2.627,10.754,4.3,6.879,2.779,11.77,4.846,17,7.122-1.578,7.191-1.957,12.056-1.557,21.259.02.457.042.9.064,1.334l-.224-.091c-10.473-4.241-16.035-6.459-25.751-9.918A103.509,103.509,0,0,1,25.47,292.638Zm3.384,27.685c-1.059-4.674-1.81-8.375-2.333-11.805,9.518,3.394,15.078,5.612,25.435,9.805l.347.142c.533,8.333,1.63,13.969,4.329,24.355.138.531.274,1.04.41,1.55-3.981-1.561-7.94-3.053-13.229-4.973C39.576,337.859,36.2,336.648,33,335.54,31.446,330.824,30.2,326.276,28.854,320.323ZM16.413,350.256c-3.8-8.457-6.341-14.17-8.69-20.463,2.944.836,6.075,1.769,9.92,2.936,5.526,1.678,9.591,2.978,13.75,4.393,1.381,4.056,3.019,8.359,5.174,13.877,2.4,6.142,4.438,10.9,6.648,15.688-1.693-.555-3.5-1.136-5.522-1.776-6.885-2.182-11.372-3.553-16.788-5.029C19.487,356.96,18.028,353.845,16.413,350.256ZM33.3,383.824c-4.632-8.806-7.875-14.8-11.183-21.477,4.9,1.354,9.213,2.679,15.58,4.7,2.494.79,4.672,1.493,6.7,2.161,2.056,4.357,4.328,8.942,7.208,14.792,3.2,6.5,5.821,11.524,8.5,16.533-2.257-.755-4.685-1.546-7.546-2.457-5.634-1.794-9.613-3.031-13.891-4.251C37.006,390.8,35.261,387.559,33.3,383.824Zm2.7,38.6c-.853-.21-1.658-.406-2.443-.6-2.47-4.5-5.091-9.175-8.346-15.121-3.6-6.583-6.477-11.615-9.309-16.59,3.816.861,7.554,1.793,12.619,3.1,3.485.9,6.332,1.664,9,2.415,3.968,7.2,7.543,13.425,12.528,22.637,1.881,3.475,3.552,6.523,5.107,9.357C48.561,425.641,43.9,424.359,36,422.421Zm24.141,6.718c-.846-.26-1.644-.5-2.423-.74-1.677-3.055-3.477-6.334-5.532-10.131-4.818-8.9-8.319-15.019-12.129-21.914,3.773,1.1,7.478,2.252,12.5,3.851,3.46,1.1,6.29,2.028,8.946,2.927,2.457,4.552,5.057,9.3,8.276,15.324,3.57,6.68,6.414,11.816,9.2,16.886C72.491,433.049,67.9,431.516,60.142,429.139Zm41.347,13.007c.355.67.7,1.311,1.039,1.952-6.393-2.521-10.93-4.254-18.567-6.984l-2.33-.831c-2.959-5.381-5.931-10.734-9.722-17.827-3.009-5.631-5.475-10.144-7.79-14.426,3.725,1.292,7.4,2.631,12.365,4.461,3.429,1.263,6.238,2.319,8.876,3.336C90.906,422.721,94.936,429.8,101.489,442.146ZM100.4,415.7c-5.578-2.264-9.525-3.862-13.735-5.5-.476-.941-.96-1.9-1.461-2.909-5.821-11.669-9.264-18.407-13.44-28.158,4.916,1.906,9.27,3.685,15.7,6.319,2.522,1.034,4.726,1.948,6.775,2.807l.6,1.5c4.549,11.4,7.8,18.114,13.178,29.068C105.735,417.874,103.288,416.868,100.4,415.7Zm24.009,10.11c-5.573-2.39-9.523-4.1-13.714-5.86-5.713-11.629-9.028-18.41-13.731-30.192l-.165-.416c4.955,2.1,9.351,4.026,15.847,6.847,2.5,1.088,4.7,2.049,6.741,2.949,2.835,7.966,5.595,14.24,10.181,24.515.867,1.942,1.685,3.741,2.479,5.459C129.762,428.111,127.306,427.048,124.412,425.807Zm32.07,14.011c-2.356-1.035-4.883-2.145-7.868-3.446-5.652-2.465-9.649-4.235-13.89-6.094-.961-2.062-1.956-4.243-3.02-6.628-4.37-9.791-7.082-15.945-9.78-23.395,5.086,2.254,9.571,4.274,16.238,7.217,2.569,1.133,4.819,2.132,6.912,3.063q.343,1.053.712,2.172A248.521,248.521,0,0,0,156.482,439.818Zm12.685-25.656c.425,1.9.84,3.652,1.258,5.319-1.93-.83-3.991-1.719-6.318-2.718-7.151-3.074-11.831-5.157-17.348-7.611a132.318,132.318,0,0,1-6.033-25.445c-.043-.3-.081-.586-.121-.881,3.211,1.438,6.629,2.954,10.866,4.8,5.845,2.548,10.168,4.45,14.6,6.347C166.358,400.335,167.239,405.53,169.167,414.162Zm-10.859-73.647c7.226,2.957,12.392,5.071,17.916,7.188a68.192,68.192,0,0,0-6.635,15.681c-.441,1.471-.828,2.817-1.175,4.1l-.732-.3c-11.1-4.539-17.013-7.192-27.124-11.67,1.075-7.626,2.537-11.8,5.764-19.278.093-.216.183-.416.275-.625C150.064,337.1,153.769,338.657,158.308,340.515ZM156.056,316.6c-4.8,6.636-7.475,10.236-10.429,16.454-5.743-2.482-10.964-4.84-18.429-8.164-4.113-1.831-7.526-3.377-10.707-4.833.528-1.25,1.112-2.57,1.77-4.019a67.445,67.445,0,0,1,8.08-13.712c9.464,4.208,15.779,7,26.813,11.434l3.851,1.546C156.694,315.727,156.379,316.156,156.056,316.6Zm.24-26.2c6.7,2.527,11.724,4.4,16.783,6.163-.351.4-.707.8-1.073,1.219-5.83,6.675-9.336,10.125-13.765,15.888-1.6-.639-3.275-1.312-5.087-2.041-10.567-4.246-16.795-6.981-25.616-10.9.829-1.1,1.722-2.266,2.708-3.557a129.561,129.561,0,0,1,11.119-12.628C145.79,286.36,150.38,288.169,156.3,290.4ZM144,279.524c-.959,1.031-1.85,1.972-2.7,2.861-5.535-2.274-10.82-4.563-18.123-7.71-5.237-2.257-9.42-4.111-13.382-5.9,5.325-5.781,9.066-8.8,15.319-15.125l.084-.085c4,1.671,8.217,3.378,13.488,5.434,7.462,2.91,12.849,4.992,18.5,7.01C152.7,270.742,149.14,274,144,279.524Zm1.236-42.787c11.825,4.181,18.423,6.413,29.14,9.411-4.067,5.4-7.555,9.119-12.821,15.084-1.014,1.148-1.959,2.19-2.866,3.171-6.219-2.188-11.883-4.374-20-7.539-4.616-1.8-8.423-3.333-11.984-4.808,5.859-5.827,9.681-9.127,15.658-16.086l.168-.2C143.4,236.087,144.3,236.406,145.235,236.737ZM155.492,215.8A113.623,113.623,0,0,1,142.3,233.56c-11.432-4.1-18.028-6.831-30.266-11.921l-1.252-.523c.446-.469.9-.952,1.371-1.461,5.5-5.947,8.863-9.379,12.989-15.191,6.1,2.315,11.646,4.276,19.658,6.9,4.283,1.4,7.859,2.553,11.2,3.583C155.833,215.228,155.668,215.5,155.492,215.8Zm10.992-23.368a87.541,87.541,0,0,1-9.407,20.716c-3.65-1.113-7.529-2.36-12.275-3.913-7.5-2.453-12.831-4.327-18.482-6.454.37-.543.745-1.1,1.132-1.688,4.514-6.855,7.064-11,9.766-17.841,5.175,1.661,10.175,3.126,17.056,4.994,4.868,1.321,8.792,2.353,12.5,3.256C166.681,191.807,166.586,192.108,166.484,192.427Zm4.974-26.446a85.348,85.348,0,0,1-4.061,23.533c-3.9-.939-7.984-2.011-13.123-3.406-6.558-1.78-11.407-3.194-16.326-4.76.233-.627.468-1.27.708-1.946,2.836-8,4.166-12.886,4.978-20.789,1.723.449,3.546.914,5.547,1.413,9.167,2.286,14.827,3.571,22.329,4.919C171.493,165.29,171.477,165.626,171.458,165.981Zm-1.946-28.963c1.924,10.776,2.449,16.657,2.092,25.811-7.548-1.353-13.218-2.639-22.423-4.936-1.925-.48-3.683-.928-5.349-1.361.06-.7.118-1.408.173-2.155a93.859,93.859,0,0,0-.742-23.42c6.222,1.458,11.348,2.467,19.214,3.812,2.52.431,4.748.8,6.829,1.127C169.375,136.269,169.443,136.633,169.512,137.018Zm-8.736-30.868c4.173,11.405,6.191,17.638,8.116,27.548-1.963-.311-4.062-.659-6.415-1.062-8-1.369-13.176-2.39-19.548-3.89-.12-.768-.246-1.555-.383-2.378a139.079,139.079,0,0,0-6.528-25.572c5.378,1.145,10.053,1.98,17,3.067,2.734.428,5.113.787,7.323,1.1C160.482,105.357,160.627,105.742,160.776,106.15Zm-1.286-3.442c-1.973-.283-4.086-.6-6.477-.977-7.284-1.141-12.067-2-17.79-3.237-.288-.826-.584-1.672-.9-2.558a242.116,242.116,0,0,0-11.5-27.238c6.228,1.31,10.973,2.139,18.619,3.274,1.552.23,2.975.436,4.325.626.211.423.418.836.634,1.273C152.265,85.727,155.505,92.228,159.49,102.708Zm7.078-35.957c1.2,2.2,2.3,4.2,3.335,6.089-1-.066-2.05-.137-3.165-.216-8.138-.577-13-1.057-19.821-2-5.582-11.062-9.6-17.776-16.387-30-.182-.328-.354-.635-.532-.956,2.437.336,5.058.664,8.177,1.029,5.746.673,9.828,1.092,14.2,1.407C157.257,50.424,161.091,56.714,166.568,66.751Zm-6.793-54.41c6.2,11.55,10.293,18.064,16.466,28.534-4.016,0-7.924-.112-13.235-.333-3.775-.156-6.83-.312-9.7-.508-1.146-1.965-2.351-4.049-3.656-6.338C143.909,23.637,140.071,17.32,135.536,9.1c8.687.794,13.724,1.073,23.17,1.247Z" fill="#fef38b" style="mix-blend-mode:multiply"/><g style="mix-blend-mode:hard-light"><circle cx="12.298" cy="12.657" r="3.699" fill="#591616"/><circle cx="22.344" cy="12.657" r="3.699" fill="#565017"/><circle cx="32.389" cy="12.657" r="3.699" fill="#185429"/></g></g></svg>