<svg xmlns="http://www.w3.org/2000/svg" viewBox="0 0 27.659 25.294"><g style="isolation:isolate"><path d="M6.053,25.294c-2.589,0-3.1-.251-3.656-.824a3.823,3.823,0,0,1-.63-2.563V17.573c0-1.36-.213-2.8-1.569-3.615a.4.4,0,0,1-.2-.334V11.433A.392.392,0,0,1,.2,11.1c1.262-.736,1.512-2.016,1.563-3.327V3.258c0-1.683.418-2.268.781-2.589C3.1.2,3.585,0,6.212,0c.34,0,.692,0,1.235.012a.4.4,0,0,1,.387.393V2.228a.4.4,0,0,1-.36.391,3.2,3.2,0,0,0-2.036.834,3.742,3.742,0,0,0-.782,2.81v2.42C4.6,10.629,4.284,10.989,3.4,11.511a1.3,1.3,0,0,0,0,2.239c.851.5,1.227.927,1.256,2.881v2.644c.031,1.525.051,2.515,1.284,3.239a3.95,3.95,0,0,0,1.539.44.394.394,0,0,1,.355.389v1.542a.4.4,0,0,1-.389.393C6.718,25.294,6.6,25.294,6.053,25.294Z" fill="#b2e7c4" style="mix-blend-mode:multiply"/><path d="M21.607,25.294c2.588,0,3.1-.251,3.655-.824a3.822,3.822,0,0,0,.631-2.563V17.573c0-1.36.213-2.8,1.568-3.615a.392.392,0,0,0,.2-.334V11.433a.392.392,0,0,0-.2-.335c-1.261-.736-1.511-2.016-1.562-3.327V3.258c0-1.683-.418-2.268-.782-2.589C24.564.2,24.074,0,21.447,0c-.34,0-.692,0-1.235.012a.4.4,0,0,0-.387.393V2.228a.4.4,0,0,0,.36.391,3.2,3.2,0,0,1,2.036.834A3.737,3.737,0,0,1,23,6.263v2.42c.058,1.946.372,2.306,1.257,2.828a1.3,1.3,0,0,1,0,2.239c-.851.5-1.227.927-1.256,2.881v2.644c-.03,1.525-.051,2.515-1.284,3.239a3.94,3.94,0,0,1-1.539.44.394.394,0,0,0-.355.389v1.542a.4.4,0,0,0,.39.393C20.941,25.294,21.055,25.294,21.607,25.294Z" fill="#b2e7c4" style="mix-blend-mode:multiply"/></g></svg>