<svg xmlns="http://www.w3.org/2000/svg" viewBox="0 0 193.684 97.639"><path d="M177.632,79.924,70.729,94.556a36.341,36.341,0,0,1-5.012.269L3.061,91.814c-.781-.038-.66-.154.295-.285L110.259,76.9a36.191,36.191,0,0,1,5.013-.269l62.655,3.011C178.708,79.676,178.587,79.793,177.632,79.924Z" fill="#fff100"/><path d="M177.632,79.924c-.006-.047.065-.1.206-.171l.261-.116a1.384,1.384,0,0,0,.15-.072c.017-.008.056-.036.018-.02-.013.017,0-.021-.07.083a.251.251,0,0,0,.035.264c.065.071.076.053.066.061l-1.057.062-1.561.058c-2.364.061-5.846.063-10.328.008-8.963-.109-21.924-.442-37.935-.968l-12.5-.422c-.957,0-2.056.072-3.1.168-.544.051-1,.105-1.552.19l-1.678.25-6.866,1.015L71.961,84.637C51,87.644,27.936,90.876,3.72,94.191l-.333.053.107-.031a2.241,2.241,0,0,0,.309-.13c-.38.459,2.484-1.082.712-4.185-.974-.847-1.094-.631-1.18-.722l-.193-.044-.054-.008,1.016.051,2.279.11,4.535.22,8.979.442,17.555.885,16.942.88,8.214.437,2.025.109,1.008.054.43.019.433,0c1.209-.009,2.543-.081,3.7-.209C91.147,89.4,110.116,87,126,85.073c15.9-1.931,28.785-3.4,37.7-4.3s13.875-1.218,13.925-.85-4.809,1.389-13.641,2.922-21.635,3.578-37.472,5.991-34.674,5.192-55.7,8.2a41.573,41.573,0,0,1-4.267.3h-.573l-.576-.018-1.009-.043-2.025-.086-8.218-.352L37.2,96.089l-17.558-.8-8.981-.421L6.125,94.65l-2.279-.109L2.58,94.473c-.1-.01-.175-.017-.338-.044a3.078,3.078,0,0,1-.333-.073c-.132-.1-.3.1-1.309-.778-1.822-3.146,1.119-4.725.77-4.286a3.428,3.428,0,0,1,.443-.182c.186-.06.281-.08.383-.105.347-.076.562-.1.8-.138,24.216-3.314,47.3-6.4,68.3-9.135L101.116,75.9,108,75.033l1.683-.211c.565-.075,1.22-.138,1.787-.176,1.18-.078,2.288-.126,3.517-.1l12.611.773c15.987,1.012,28.921,1.923,37.853,2.674,4.466.376,7.932.711,10.279,1l1.548.207a7.584,7.584,0,0,1,1.185.231.4.4,0,0,1,.165.109.291.291,0,0,1-.066.429.422.422,0,0,1-.171.058,1.562,1.562,0,0,1-.209.017,2.138,2.138,0,0,1-.3-.015c-.161-.022-.243-.058-.25-.1" fill="#35408a"/><path d="M177.19,79.86,64.926,95.176a2.052,2.052,0,0,1-2.451-2.254L74.835,19.3a2.255,2.255,0,0,1,1.96-1.786L189.059,2.2a2.052,2.052,0,0,1,2.451,2.254L179.15,78.074A2.255,2.255,0,0,1,177.19,79.86Z" fill="#fff100"/><path d="M177.19,79.86c-.02-.106.333-.189.8-.569a2.035,2.035,0,0,0,.611-.841,2.1,2.1,0,0,0,.116-.658c.028-.285.056-.589.087-.913.257-2.586.724-6.386,1.381-11.27,1.314-9.768,3.389-23.873,6.065-41.284q1.013-6.528,2.118-13.662.279-1.782.563-3.6.143-.909.286-1.825l.145-.919.034-.22a.023.023,0,0,0,0,.026.16.16,0,0,0,0,.078c.025.127.085.161.064.155a3.478,3.478,0,0,0-.708.1l-3.81.556-32.73,4.716c-23.057,3.283-48.418,6.819-75.049,10.452.059-.016.178-.023.3-.315a.586.586,0,0,0,.028-.115l-.051.3-.1.618-.208,1.236q-.417,2.47-.83,4.924-.828,4.908-1.647,9.748Q73,46.257,71.4,55.635c-2.152,12.488-4.228,24.535-6.2,36.011l-.187,1.074-.093.535c-.027.144,0,.019,0,.022,0-.024.007-.058,0-.086a.489.489,0,0,0-.272-.43c-.034-.013-.054-.01-.047-.008-.073.014.21-.022.364-.043l.532-.069,2.117-.274,8.324-1.076L91.85,89.255l28.59-3.57c17.485-2.14,31.648-3.78,41.452-4.793s15.248-1.4,15.3-1.032-5.3,1.454-15.016,3.1-23.8,3.864-41.22,6.486l-28.5,4.219-15.885,2.3-8.309,1.193-2.113.3-.53.076c-.2.025-.271.049-.7.083a4.783,4.783,0,0,1-2.152-.342,4.435,4.435,0,0,1-2.76-3.7,4.706,4.706,0,0,1,0-.628c.012-.176.051-.483.06-.517l.087-.537.174-1.076c1.879-11.493,3.851-23.556,5.9-36.063L69.373,35.7Q70.18,30.853,71,25.944q.411-2.456.825-4.925l.207-1.236.1-.619.054-.315a4.877,4.877,0,0,1,.184-.723,4.986,4.986,0,0,1,4.059-3.27c26.632-3.633,52.013-7.02,75.107-10.034L184.335.6l3.82-.484A10.258,10.258,0,0,1,189.4,0a4.5,4.5,0,0,1,1.786.374A4.155,4.155,0,0,1,193.6,3.29a4.252,4.252,0,0,1,.083,1.009c-.012.164-.029.328-.052.49l-.042.241-.164.916q-.163.914-.325,1.819-.326,1.809-.643,3.584-1.283,7.1-2.46,13.605c-3.156,17.331-5.8,31.34-7.75,41-.974,4.831-1.773,8.574-2.375,11.1l-.217.891a2.817,2.817,0,0,1-.323.867,2.379,2.379,0,0,1-1.056.943c-.694.3-1.081.171-1.084.1" fill="#35408a"/><path d="M99.858,82.2c-.175-1.473,29.2-6.173,65.617-10.5l7.06-.823-2.326,2.25c5.165-32.926,10.2-58.419,11.576-58.21s-1.414,26.046-6.294,59.015l-.3,2-2.029.246-7.056.853C129.7,81.365,100.033,83.677,99.858,82.2" fill="#35408a"/></svg>