<svg xmlns="http://www.w3.org/2000/svg" viewBox="0 0 160.377 251.028"><g style="isolation:isolate"><g style="mix-blend-mode:multiply"><path d="M13.376,95.484c-.665-.1-.846-3.834-.03-9.86A70.691,70.691,0,0,1,15.636,75.1a51.2,51.2,0,0,1,2.24-6.126,34.06,34.06,0,0,1,1.6-3.183c.294-.535.639-1.072.993-1.612.2-.274.377-.541.593-.821a9.576,9.576,0,0,1,.814-.947,2.479,2.479,0,0,1,1.761-.746h.095l2.481-.006c19.672,0,35.619,1.2,35.619,2.686s-15.947,2.687-35.619,2.687l-2.481-.007,1.855-.746c.028-.029-.19.217-.306.369l-.423.565c-.277.412-.556.82-.815,1.265-.529.866-1.011,1.782-1.463,2.7-.893,1.841-1.689,3.684-2.36,5.487-1.361,3.6-2.426,6.937-3.285,9.758-1.718,5.645-2.819,9.178-3.557,9.064" fill="#5860a1"/></g><g style="mix-blend-mode:multiply"><path d="M40.671,167.548c.323.265-.037,1.384-1.472,2.458a11.715,11.715,0,0,1-2.727,1.518,18.745,18.745,0,0,1-3.879,1.114,1.493,1.493,0,0,1-.8-.081l-.212-.084a5.361,5.361,0,0,1-1.784-1.053,4.652,4.652,0,0,1-1.317-2.147,6.858,6.858,0,0,1,.306-4.166,15.341,15.341,0,0,1,1.569-3.1,22.392,22.392,0,0,1,2.108-2.771l-.681,1.385.244-1.51c1.961-11.812,4.737-21.191,6.2-20.948s1.061,10.015-.9,21.827q-.131.762-.257,1.509a2.715,2.715,0,0,1-.675,1.38l-.006,0a18.636,18.636,0,0,0-2.916,4.08,4.8,4.8,0,0,0-.4,1.172c-.011.016-.013.018-.018.018l-.055.026,0,0s.012-.011,0,.025c-.009.054.118.16.267.278l-1.016-.164a31.046,31.046,0,0,0,3.33-.172c1-.1,1.854-.232,2.55-.362,1.4-.232,2.191-.548,2.54-.229" fill="#5860a1"/></g><g style="mix-blend-mode:multiply"><path d="M108.908,152.228c.372-.1.849.585,1.124,1.789a20.008,20.008,0,0,1,.319,5.028,57.092,57.092,0,0,1-.81,7.238c-.23,1.342-.5,2.744-.822,4.185a24.007,24.007,0,0,1-.636,2.325,13.062,13.062,0,0,1-.9,2.421,16.551,16.551,0,0,1-6.521,7.61,16.325,16.325,0,0,1-7.694,2.307,13.8,13.8,0,0,1-5.157-.658c-1.163-.414-1.744-.9-1.666-1.259s.73-.59,1.828-.826,2.644-.486,4.417-1.012A17.038,17.038,0,0,0,97.92,178.7a13.974,13.974,0,0,0,4.364-5.69,10.227,10.227,0,0,0,.711-1.859c.2-.642.439-1.206.612-1.942.382-1.387.75-2.725,1.1-4,.7-2.517,1.343-4.8,1.889-6.745.544-1.913.987-3.453,1.345-4.515s.617-1.627.966-1.721" fill="#5860a1"/></g><g style="mix-blend-mode:multiply"><path d="M130.089,169.839c.661.295-1.777,7.542-7.314,18.563a161.691,161.691,0,0,1-11.036,18.729,92.015,92.015,0,0,1-8.158,10.161,84.983,84.983,0,0,1-10.409,9.38,95.626,95.626,0,0,1-11.686,7.692,81.3,81.3,0,0,1-11.92,5.377A52.527,52.527,0,0,1,57.94,242.55a32.557,32.557,0,0,1-10.6-.429,27.325,27.325,0,0,1-8.146-3.172,24.918,24.918,0,0,1-5.132-4.024c-2.488-2.564-3.264-4.448-2.966-4.64.312-.223,1.613,1.146,4.325,3.051a28.128,28.128,0,0,0,12.589,5.045,31,31,0,0,0,9.309-.243,52.69,52.69,0,0,0,10.53-3.04,85.559,85.559,0,0,0,11.057-5.322A101.989,101.989,0,0,0,89.9,222.414a88.73,88.73,0,0,0,9.879-8.758,99.275,99.275,0,0,0,7.946-9.419c4.708-6.389,8.58-12.494,11.734-17.682,6.3-10.393,9.944-17.032,10.634-16.716" fill="#35408a"/></g><path d="M49.064,209.688c.066.739-1.327,1.467-3.111,1.626s-3.284-.311-3.35-1.049,1.327-1.467,3.111-1.627,3.284.311,3.35,1.05" fill="#35408a"/><g style="mix-blend-mode:darken"><path d="M4.848,101.308s5.629-42.062,16.105-44.564,48.63-2.189,51.287,2.189,1.408,9.852,3.284,12.04,5.629.469,5.786,3.753-2.828,8.444-1.648,12.665,8.371,6.412,14,12.2,16.419,7.35,19.233,19.546,4.534,32.993,4.066,35.651-1.095,25.8-12.666,32.68-24.861,2.189-31.585-1.407-8.143-7.529-18.776-5.5-15.871,2.263-17.591,2.576-13.164-4.126-16.291-3.187-3.616,1.248-5.023,4.688.705,9.378-.6,9.378-9.038-12.494-9.577-35.011S4.848,101.308,4.848,101.308Z" fill="#fff"/><path d="M3.974,102.169v49.308c0,10.306,1.694,34.384,5.265,50.418,3.409,15.3,11.61,27.928,23.113,38.583,12.271,11.367,30.1,10.144,44.611,4.183,18.005-7.393,33.051-21.266,43.484-37.534q.855-1.334,1.695-2.679a154.887,154.887,0,0,0,13.222-25.318c.213-.545,3.935-12.882,3.361-12.866,3.064-.089,5.443-2.675,7.055-5.281,1.74-2.812,3.029-5.861,4.483-8.822,1.268-2.581,2.884-4.958,4.035-7.592a44.877,44.877,0,0,0,4.018-17.891,17.7,17.7,0,0,0-5.76-13.289c6.183-67.541-23.029-70.1-23.029-70.1C120.021,17.3,87.918,14.451,87.918,14.451c-73.23-45.626-82.826,41.8-82.834,54.9C-4.206,82.77,3.974,102.169,3.974,102.169Zm.54-.861s5.629-42.062,16.105-44.564,48.629-2.189,51.287,2.189,1.407,9.852,3.284,12.04,5.629.469,5.785,3.753-2.827,8.444-1.648,12.665,8.372,6.412,14,12.2,16.418,7.35,19.233,19.546,4.534,32.993,4.065,35.651-1.095,25.8-12.666,32.68-24.861,2.189-31.585-1.407-8.142-7.529-18.775-5.5-15.872,2.263-17.592,2.576-13.164-4.126-16.291-3.187-3.616,1.248-5.023,4.688.7,9.378-.6,9.378-9.038-12.494-9.577-35.011S4.514,101.308,4.514,101.308Z" fill="#35408a"/><path d="M3.974,102.169v49.308c0,10.306,1.694,34.384,5.265,50.418,3.409,15.3,11.61,27.928,23.113,38.583,12.271,11.367,30.1,10.144,44.611,4.183,18.005-7.393,33.051-21.266,43.484-37.534q.855-1.334,1.695-2.679a154.887,154.887,0,0,0,13.222-25.318c.213-.545,3.935-12.882,3.361-12.866,3.064-.089,5.443-2.675,7.055-5.281,1.74-2.812,3.029-5.861,4.483-8.822,1.268-2.581,2.884-4.958,4.035-7.592a44.877,44.877,0,0,0,4.018-17.891,17.7,17.7,0,0,0-5.76-13.289c6.183-67.541-23.029-70.1-23.029-70.1C120.021,17.3,87.918,14.451,87.918,14.451c-73.23-45.626-82.826,41.8-82.834,54.9C-4.206,82.77,3.974,102.169,3.974,102.169Zm.54-.861s5.629-42.062,16.105-44.564,48.629-2.189,51.287,2.189,1.407,9.852,3.284,12.04,5.629.469,5.785,3.753-2.827,8.444-1.648,12.665,8.372,6.412,14,12.2,16.418,7.35,19.233,19.546,4.534,32.993,4.065,35.651-1.095,25.8-12.666,32.68-24.861,2.189-31.585-1.407-8.142-7.529-18.775-5.5-15.872,2.263-17.592,2.576-13.164-4.126-16.291-3.187-3.616,1.248-5.023,4.688.7,9.378-.6,9.378-9.038-12.494-9.577-35.011S4.514,101.308,4.514,101.308Z" fill="none"/><path d="M4.514,159.005c.133,0,.236-1.369.309-3.976.055-2.633.135-6.472.238-11.422.2-9.96.486-24.366.843-42.278l-.012.163c.771-5.058,1.775-10.428,3.033-15.975a121.45,121.45,0,0,1,5-17.012,31.362,31.362,0,0,1,4.26-7.915,5.7,5.7,0,0,1,2.993-2.156,44.82,44.82,0,0,1,4.732-.706A183.014,183.014,0,0,1,46.473,57.1c3.541.066,7.129.226,10.738.5a67.657,67.657,0,0,1,10.67,1.511,10.846,10.846,0,0,1,2.156.786,1.991,1.991,0,0,0,.209.146c-.053,0-.073-.167.054.1a7.95,7.95,0,0,1,.507,1.045,18.694,18.694,0,0,1,1.065,5.058,30.936,30.936,0,0,0,.441,3.068,8.1,8.1,0,0,0,.611,1.823,5.19,5.19,0,0,0,1.447,1.834,7.941,7.941,0,0,0,3.586,1.383,4.63,4.63,0,0,1,.949.248c.138.086-.027-.03-.009-.054a4.989,4.989,0,0,1-.11,1.742c-.163.84-.423,1.762-.684,2.719A22.884,22.884,0,0,0,77,85.452a8.693,8.693,0,0,0,.869,3.808,9.929,9.929,0,0,0,2.377,2.906,50.91,50.91,0,0,0,5.135,3.724,47.971,47.971,0,0,1,4.7,3.514c.354.32.73.625,1.06.965l1.1,1.059a21.874,21.874,0,0,0,2.623,2.155c3.6,2.534,7.3,4.273,10.159,6.834a18.567,18.567,0,0,1,3.39,3.938,18.2,18.2,0,0,1,1.969,4.768c.894,3.563,1.5,7.367,2.063,11.068,1.062,7.434,1.89,14.917,2.185,22.091a16.132,16.132,0,0,1-.053,2.387c-.144,1.112-.192,1.913-.289,2.844-.176,1.795-.367,3.563-.63,5.31a64.264,64.264,0,0,1-2.246,10.145,30.467,30.467,0,0,1-4.256,8.834,15.949,15.949,0,0,1-7.232,5.494c-5.782,2.424-12.3,2.2-18.175.555a42.251,42.251,0,0,1-8.437-3.312c-2.631-1.314-4.856-3.247-7.891-4.782a13.93,13.93,0,0,0-4.86-1.352,21.407,21.407,0,0,0-4.755.128c-1.534.194-2.988.5-4.352.758l-4.13.741q-4.1.691-8.047,1.162l-3.634.437a30.814,30.814,0,0,1-3.524-.805c-2.454-.662-4.883-1.349-7.336-1.867a20.855,20.855,0,0,0-3.854-.492,6.267,6.267,0,0,0-2.136.355,14.324,14.324,0,0,0-1.8.685,5.045,5.045,0,0,0-1.794,1.383,8.173,8.173,0,0,0-1.031,1.722c-.262.56-.465,1.068-.683,1.621a8.046,8.046,0,0,0-.448,1.892,32.5,32.5,0,0,0,.319,6.507,4.633,4.633,0,0,1,.009.59c0,.068-.018.14-.007.1,0,.012.029-.079.076-.124a.777.777,0,0,1,.34-.265.891.891,0,0,1,.422-.058.552.552,0,0,1,.213.065l.026.007c.046.041-.041-.035-.08-.064a4.5,4.5,0,0,1-.388-.426A17.272,17.272,0,0,1,12.5,190.2a41.407,41.407,0,0,1-2.26-4.8A68.2,68.2,0,0,1,7.4,176.45a101.5,101.5,0,0,1-2.246-12.884c-.336-2.984-.48-4.565-.637-4.561-.131,0-.269,1.591-.2,4.62a77.271,77.271,0,0,0,1.5,13.181,65.467,65.467,0,0,0,2.571,9.3,42.262,42.262,0,0,0,2.216,5.121,18.985,18.985,0,0,0,1.609,2.619,6.532,6.532,0,0,0,.591.68,2.735,2.735,0,0,0,.5.394l.185.1a1.846,1.846,0,0,0,.393.111,1.379,1.379,0,0,0,.785-.092,1.5,1.5,0,0,0,.629-.5,1.844,1.844,0,0,0,.238-.46,2.612,2.612,0,0,0,.138-.64,6.882,6.882,0,0,0,.02-.926,32.238,32.238,0,0,1-.175-6.069,5.548,5.548,0,0,1,.333-1.287c.2-.468.42-.987.645-1.436a5.739,5.739,0,0,1,.717-1.162,2.375,2.375,0,0,1,.924-.662,12.072,12.072,0,0,1,1.463-.512,3.246,3.246,0,0,1,1.328-.2,18.73,18.73,0,0,1,3.271.5c2.3.535,4.669,1.252,7.141,1.969a30.829,30.829,0,0,0,4.029.969,5.137,5.137,0,0,0,.9-.008l.429-.061.945-.105,1.988-.2c2.685-.274,5.432-.626,8.215-1.053,5.573-.7,11.391-2.8,16.073-.343,2.343,1.185,4.816,3.3,7.733,4.823a45.667,45.667,0,0,0,9.124,3.694A36.627,36.627,0,0,0,90.9,192.861a28.242,28.242,0,0,0,10.484-2.007l1.266-.523,1.217-.636c.4-.222.816-.406,1.215-.664l1.184-.839a13.167,13.167,0,0,0,1.155-.876l1.023-1.008a14.623,14.623,0,0,0,1.855-2.159,34.192,34.192,0,0,0,4.911-9.962,67.866,67.866,0,0,0,2.451-10.774c.283-1.826.49-3.668.678-5.5.092-.883.176-1.907.27-2.611a19.016,19.016,0,0,0,.112-3.114,221.755,221.755,0,0,0-2.165-22.594c-.573-3.814-1.159-7.591-2.134-11.508a22.332,22.332,0,0,0-2.451-5.912,22.64,22.64,0,0,0-4.189-4.886c-3.426-3.029-7.364-4.854-10.492-7.091a17.924,17.924,0,0,1-2.151-1.757l-1.121-1.075c-.388-.394-.809-.738-1.215-1.1a52.027,52.027,0,0,0-5.1-3.805A48.658,48.658,0,0,1,83,89.079a6.015,6.015,0,0,1-1.457-1.709,4.692,4.692,0,0,1-.42-2,19.415,19.415,0,0,1,.936-5.281c.255-.954.535-1.936.746-3.032a12,12,0,0,0,.209-1.778,5.559,5.559,0,0,0-.358-2.307A3.992,3.992,0,0,0,80.6,70.909a8.039,8.039,0,0,0-1.867-.538,4.532,4.532,0,0,1-1.855-.573,1.114,1.114,0,0,1-.328-.435,4.135,4.135,0,0,1-.3-.925c-.173-.762-.271-1.694-.386-2.652A22.381,22.381,0,0,0,74.5,59.672a11.937,11.937,0,0,0-.744-1.51,4.428,4.428,0,0,0-.794-1.028,7.183,7.183,0,0,0-.939-.681,14.026,14.026,0,0,0-3.137-1.169A70.288,70.288,0,0,0,57.5,53.729c-3.71-.253-7.364-.387-10.967-.424a182.069,182.069,0,0,0-21.011.849,47.5,47.5,0,0,0-5.144.832,11.66,11.66,0,0,0-1.542.547,12.6,12.6,0,0,0-1.321.84,13.218,13.218,0,0,0-2.026,2.013,34.219,34.219,0,0,0-4.694,8.9A121.685,121.685,0,0,0,5.91,84.857c-1.184,5.667-2.093,11.074-2.775,16.266l-.012.09v.073c-.062,17.955.125,32.385.423,42.331.146,4.972.325,8.821.5,11.426s.338,3.966.472,3.962" fill="#1b155b"/><path d="M5.084,69.35A8.986,8.986,0,0,0,3.7,71.186,24.066,24.066,0,0,0,1.051,77.3C-.5,82.983-.731,92,3.119,102.53l-.072-.36c-.123,13.41-.278,30.411-.461,50.379a307.259,307.259,0,0,0,2.19,32.186c.678,5.687,1.551,11.528,2.815,17.5A70.39,70.39,0,0,0,14.076,220a77.864,77.864,0,0,0,11.415,16.163c1.125,1.255,2.311,2.463,3.507,3.671l1.843,1.771c.628.588,1.341,1.153,2.012,1.731a33.929,33.929,0,0,0,9.343,5.34c6.834,2.572,14.388,2.84,21.641,1.723a67.944,67.944,0,0,0,21-7.223,99.3,99.3,0,0,0,34.214-30.345c2.307-3.206,4.4-6.535,6.443-9.879s4.04-6.79,5.908-10.323,3.611-7.169,5.165-10.918l.57-1.412.142-.354.1-.275.066-.2.23-.737.868-2.9c.566-1.934,1.119-3.87,1.632-5.857l.4-1.664.183-.9c.028-.175.057-.324.08-.556a3.494,3.494,0,0,0,.024-.438l0-.148a2.717,2.717,0,0,0-.063-.416,2.158,2.158,0,0,0-2.132-1.683l.115,4.168a8.613,8.613,0,0,0,4.782-1.739,14.7,14.7,0,0,0,3.141-3.269,47.656,47.656,0,0,0,3.923-7.12l1.647-3.438c.543-1.079,1.166-2.161,1.805-3.286s1.287-2.294,1.868-3.544c.563-1.257,1.052-2.447,1.509-3.7a45.177,45.177,0,0,0,2.916-15.549,21.014,21.014,0,0,0-1.666-8.1,19.465,19.465,0,0,0-2.019-3.621,16.7,16.7,0,0,0-2.864-3.193l.764,1.787q.33-5.284.656-10.509c.191-3.484.06-6.971.1-10.423.053-1.726-.131-3.451-.236-5.169s-.238-3.43-.356-5.137c-.141-1.7-.472-3.4-.7-5.085a47.984,47.984,0,0,0-.874-5.03q-.6-2.484-1.2-4.952c-.438-1.635-1.084-3.22-1.617-4.821a34.668,34.668,0,0,0-2.01-4.659c-.385-.754-.686-1.544-1.14-2.263l-1.357-2.154a30.99,30.99,0,0,0-6.746-7.579c-.692-.5-1.371-1.021-2.076-1.5L134.8,43.034a17.882,17.882,0,0,0-5.107-1.616l1.595,1.222a43.4,43.4,0,0,0-7.443-12.475A49.132,49.132,0,0,0,113.058,21.2a62.358,62.358,0,0,0-12.274-5.555,63.232,63.232,0,0,0-12.719-2.85l.733.245C80.269,7.837,71.529,3.56,62.546,1.454A48.226,48.226,0,0,0,55.829.285,32.768,32.768,0,0,0,52.492,0L49.176.014a24.071,24.071,0,0,0-3.257.3,19.7,19.7,0,0,0-3.18.527l-3.088.768L36.725,2.723A35.3,35.3,0,0,0,26.671,9.09a19.17,19.17,0,0,0-2.057,1.955c-.64.682-1.316,1.323-1.907,2.022a52.894,52.894,0,0,0-3.277,4.257,70.711,70.711,0,0,0-8.5,17.035A112.11,112.11,0,0,0,5.3,60.1c-.3,3.014-.4,5.33-.393,6.892a7.857,7.857,0,0,0,.173,2.362c.186.051.288-3.22,1.2-9.132A123.96,123.96,0,0,1,12.7,35.01a70.093,70.093,0,0,1,8.6-16.352c.93-1.4,2.1-2.656,3.2-4,.573-.653,1.223-1.243,1.839-1.878a17.483,17.483,0,0,1,1.966-1.806A32.9,32.9,0,0,1,37.739,5.2l2.711-.991,2.859-.664A17.635,17.635,0,0,1,46.256,3.1a21.809,21.809,0,0,1,3.022-.236l3.089.031a30.132,30.132,0,0,1,3.127.308,45.523,45.523,0,0,1,6.33,1.183c8.5,2.1,16.937,6.314,25.213,11.474l.3.189.43.056a61.62,61.62,0,0,1,23.436,8.122,45.661,45.661,0,0,1,9.878,8.33,39.82,39.82,0,0,1,6.684,11.367l.428,1.059,1.167.163a11.155,11.155,0,0,1,1.836.479c.655.2,1.291.54,1.942.8l1.866,1.062,1.754,1.29a27.256,27.256,0,0,1,5.875,6.7l1.216,1.946c.409.647.68,1.388,1.029,2.08a31.158,31.158,0,0,1,1.835,4.313c.487,1.5,1.087,2.972,1.493,4.519q.553,2.342,1.111,4.7a45.125,45.125,0,0,1,.814,4.813c.21,1.624.525,3.236.654,4.885q.162,2.479.324,4.975c.1,1.665.272,3.328.212,5.017-.056,3.37.065,6.758-.133,10.172q-.333,5.121-.671,10.3l-.07,1.07.834.718a13.232,13.232,0,0,1,2.054,2.347,15.329,15.329,0,0,1,1.6,2.884,16.884,16.884,0,0,1,1.318,6.5,41.127,41.127,0,0,1-2.688,14.1c-.413,1.139-.9,2.307-1.381,3.381s-1.09,2.137-1.717,3.241-1.288,2.246-1.9,3.463l-1.694,3.528a44.453,44.453,0,0,1-3.542,6.466c-1.323,1.875-3.057,3.267-4.664,3.278l.062,2.125a.042.042,0,0,1-.063.04,1.046,1.046,0,0,1-.278.095.889.889,0,0,1-.3,0l-.5.024c-.172,0-.344,0-.516-.01a1.678,1.678,0,0,1-.366-.04c0-.014,0,.022,0,.03l-.038.256-.146.713-.373,1.535c-.491,1.9-1.039,3.818-1.595,5.721l-.851,2.843-.215.69-.078.229-.136.34-.547,1.358c-1.493,3.606-3.173,7.126-4.991,10.564s-3.757,6.8-5.77,10.109-4.061,6.57-6.26,9.635a95.664,95.664,0,0,1-32.716,29.2,64.215,64.215,0,0,1-19.756,6.9c-6.742,1.071-13.627.831-19.711-1.426a30.18,30.18,0,0,1-8.315-4.687c-.606-.519-1.22-.989-1.819-1.542L31.594,237.2c-1.157-1.155-2.3-2.307-3.392-3.5A74.631,74.631,0,0,1,17.191,218.35,67.243,67.243,0,0,1,10.877,201.5c-1.283-5.794-2.2-11.55-2.936-17.165a314.669,314.669,0,0,1-2.559-31.814c-.191-19.959-.353-36.951-.481-50.354v-.183l-.071-.178A50.415,50.415,0,0,1,1.474,88a36.15,36.15,0,0,1,.517-10.462c1.316-5.54,3.392-8.11,3.093-8.183" fill="#1b155b"/><path d="M137.72,128.77s11.188-2.469,9.848,4.51c-1.3,6.755-2.407,15.61-7.2,13.238-1.081-.534-5.455-.284-5.5.87-.16,3.962-.831,9.587-.831,9.587s-1.229-14.118.882-21.111a11.236,11.236,0,0,0,.84-3.056A44.612,44.612,0,0,1,137.72,128.77Z" fill="#fff"/><path d="M137.72,128.77c-.217-.115-.794.45-1.638,1.622-.211.293-.437.625-.677,1-.12.191-.242.387-.369.62a2.85,2.85,0,0,0-.206.442l-.127.48c-.062.236-.125.491-.194.7a4.272,4.272,0,0,1-.275.595,13.86,13.86,0,0,0-.723,1.836,37.982,37.982,0,0,0-1.562,9.365,94.519,94.519,0,0,0,.058,11.716v.009a2.027,2.027,0,0,0,4.041.056c.256-2.751.522-5.613.795-8.554l.083-.977.011-.122,0-.061,0-.03v.1a1.6,1.6,0,0,1-.235.692c-.232.323-.3.334-.361.368a4.5,4.5,0,0,1,1.038-.24,9.178,9.178,0,0,1,1.5-.069,4.114,4.114,0,0,1,.583.059l.067.01a.145.145,0,0,1-.075-.033l.618.232.65.219c.249.046.521.071.782.092a4.027,4.027,0,0,0,1.62-.18,5.308,5.308,0,0,0,1.409-.72,9.365,9.365,0,0,0,.95-.951,11.113,11.113,0,0,0,1.811-3.705,43.8,43.8,0,0,0,1.354-6.462q.211-1.472.409-2.848a13.423,13.423,0,0,0,.128-1.593,6.307,6.307,0,0,0-.242-1.744,4.661,4.661,0,0,0-2.19-2.558,6.849,6.849,0,0,0-1.294-.524c-.412-.09-.811-.168-1.19-.222a12.35,12.35,0,0,0-3.7.186c-1.942.381-2.915.922-2.856,1.19.06.293,1.127.3,2.959.43a15.688,15.688,0,0,1,3.163.484,2.843,2.843,0,0,1,2.275,1.833,5.791,5.791,0,0,1-.215,1.919l-.645,2.805a50.185,50.185,0,0,1-1.594,5.867,7.849,7.849,0,0,1-1.239,2.4c-.112.128-.213.174-.3.289-.081-.017-.129.089-.177.062s-.06.041-.151-.012a.511.511,0,0,0-.118,0,1.7,1.7,0,0,0-.2-.1l-.239-.085c-.164-.072-.333-.138-.5-.2l-.38-.1a7.9,7.9,0,0,0-1.247-.166,12.874,12.874,0,0,0-2.23.068,7.175,7.175,0,0,0-2.6.746,3.128,3.128,0,0,0-1.072.994,2.675,2.675,0,0,0-.4,1.133l-.036.363-.083.944c-.228,2.847-.451,5.617-.664,8.28l4.04.065c-.679-8.047-.874-15.309-.02-20.05a14.729,14.729,0,0,1,.374-1.661,5.607,5.607,0,0,0,.245-1c.041-.32.054-.586.07-.85l.009-.194,0-.095c-1.454-.21-.364-.055-.67-.1l.068.007.135.018.267.05c.251.056.188.057.188.057a.893.893,0,0,1,.051-.228l.194-.612.37-1.113c.442-1.352.6-2.142.381-2.259" fill="#1b155b"/><path d="M138.737,166.222c.109-.321-.807-.723-1.732-2.014a15.027,15.027,0,0,1-2.364-6.4,56.819,56.819,0,0,1-.673-10.651c.018-1.015.054-2.056.11-3.115l.1-1.6.033-.394.041-.3.122-.821c.337-2.209.717-4.5,1.143-6.838.765-4.223,1.638-8.286,2.554-11.918.943-3.559,2.042-6.894,3.819-8.384a5.363,5.363,0,0,1,5.747-.909,12.645,12.645,0,0,1,2.1.989l.72.426.272.163.115.066a.113.113,0,0,1,.041-.125l.064.218c.239.143.4.185.487.12s.087-.235.01-.5l.064.218a.732.732,0,0,0-.08-.349l-.068-.157a2.771,2.771,0,0,0-.184-.341,5.834,5.834,0,0,0-.563-.77,8.858,8.858,0,0,0-2.067-1.768,7.977,7.977,0,0,0-3.725-1.242,7.537,7.537,0,0,0-4.846,1.463,11.272,11.272,0,0,0-3.546,4.406,34.8,34.8,0,0,0-2.105,5.409,112.034,112.034,0,0,0-2.908,12.241q-.656,3.594-1.087,7.023l-.1.856-.025.216-.028.317-.023.441q-.025.861-.052,1.706-.027,1.681.028,3.285a44.68,44.68,0,0,0,1.652,11.321c.939,3.172,2.46,5.672,4.091,6.856,1.609,1.229,2.841,1.078,2.868.855" fill="#1b155b"/><path d="M28.9,118.6s4.595,2.434,4.97,4.868-1.967,1.129-1.967,1.129l-20.7-1.5s-3.412-2.341-5.149-2.527l-1.737-.187.019-2.81s2.467-3.744,3.964-3.37,7.491,3.745,11.235,4.307a20.7,20.7,0,0,0,7.6-.523Z" fill="#35408a"/><path d="M28.9,118.6c.1-.219-.435-.647-1.541-1.26l-.065-.036-.345.023c-.911.062-2.217.158-3.75.126a14.74,14.74,0,0,1-5.1-.889,66.2,66.2,0,0,1-6.313-2.914c-.589-.291-1.177-.589-1.854-.893a6.19,6.19,0,0,0-1.377-.477,3.153,3.153,0,0,0-1.4.084,4.5,4.5,0,0,0-.888.384,8.772,8.772,0,0,0-2.1,1.77,18.315,18.315,0,0,0-1.531,1.93l-.325.468-.011.64q-.024,1.385-.048,2.809l-.032,1.855,1.878.215,1.08.124.543.061a1.662,1.662,0,0,1,.265.048,8.636,8.636,0,0,1,1.585.674A28.3,28.3,0,0,1,10.03,124.8l.488.323.536.036c8.029.539,15.267.85,20.741.923l-.619-.186a4.3,4.3,0,0,0,1.762.462,2.364,2.364,0,0,0,1.358-.375,2.084,2.084,0,0,0,.843-1.22,3.232,3.232,0,0,0-.061-1.674,4.044,4.044,0,0,0-.581-1.247,8.414,8.414,0,0,0-2.768-2.393c-1.656-.916-2.695-1.1-2.829-.854-.147.263.614.944,1.83,2.166a8.8,8.8,0,0,1,1.722,2.268,1.627,1.627,0,0,1,.147.569,1.968,1.968,0,0,1,0,.3l-.024.093c.024.057-.108-.018.168.06a1.121,1.121,0,0,1,.446.209,1.483,1.483,0,0,1-.11-.741,3.317,3.317,0,0,1-.451-.232l-.157-.124-.462-.062c-5.428-.719-12.634-1.457-20.657-2.085l1.024.359a29.22,29.22,0,0,0-2.885-1.739,11.851,11.851,0,0,0-2.511-1.014,6.616,6.616,0,0,0-.818-.141l-.544-.055-1.08-.109,1.846,2.07q0-1.425-.01-2.81l-.336,1.107a10.5,10.5,0,0,1,2.187-2.538c.029-.022.058-.044.054-.036l.005-.006-.1-.319a1.219,1.219,0,0,1-.1-.455.932.932,0,0,1-.006-.249l.015-.059,0-.008c-.529,2.118-.145.588-.262,1.061l.007,0,.014,0,.056.016a1.032,1.032,0,0,1,.142.041l.4.146,1.776.734a48.5,48.5,0,0,0,6.967,2.522,14.823,14.823,0,0,0,6.174.219,16.245,16.245,0,0,0,3.949-1.127l-.409-.012c1.183.186,1.894.191,1.99-.027" fill="#1b155b"/><path d="M56.4,190.337c3.127,1.769,6.492,3.791,5.289,2.644s2.748,2.587,3.662,4.374a17.846,17.846,0,0,1,2.287,9.61c0,5.463-3.406,10.73-10.221,9.713s-6.311-.5-8.2-.5-9.321,3.025-14.2,2.008-6.484-5.873-7.195-11.265.1-9.662.914-10.273a4.663,4.663,0,0,1-2.847-2.034c-.916-1.628.813-5.289,3.051-4.781s6.1-3.967,6.1-3.967l2.55,3.56,1.933-3.56S53.274,188.567,56.4,190.337Z" fill="#fff"/><path d="M56.4,190.337c.159-.239-1.306-1.293-4.187-2.316a112.881,112.881,0,0,0-12.424-3.553l-.97-.231-.553.947-2.044,3.5,2.618-.163-2.455-3.627-1.137-1.679-1.476,1.561a18.967,18.967,0,0,1-2.794,2.481,5.417,5.417,0,0,1-1.392.744.536.536,0,0,1-.211.042c-.066.02-.063,0-.041,0,0,0,.018.01-.008.009l-.267-.042c-.179-.025-.359-.046-.539-.055a4.007,4.007,0,0,0-1.069.154,4.913,4.913,0,0,0-2.756,2.228,6.3,6.3,0,0,0-.967,3.135,4.294,4.294,0,0,0,.488,2.1,5.752,5.752,0,0,0,1.107,1.4,6.62,6.62,0,0,0,1.381.978,6.7,6.7,0,0,0,1.623.623l-.777-3.5a3.345,3.345,0,0,0-.957,1.237,7.232,7.232,0,0,0-.34.855,12.694,12.694,0,0,0-.365,1.487,22.386,22.386,0,0,0-.33,2.843,32.463,32.463,0,0,0,.22,5.677,28.383,28.383,0,0,0,1.264,5.763,11.735,11.735,0,0,0,3.748,5.566,9.407,9.407,0,0,0,3.907,1.74,14.64,14.64,0,0,0,3.848.174,37.173,37.173,0,0,0,6.735-1.252l3.006-.793c.233-.057.457-.108.637-.138a2.08,2.08,0,0,1,.482-.052c.643-.009,1.264-.1,1.623-.127a35.941,35.941,0,0,1,5.573.452c.44.067,1.031.116,1.591.16a13.589,13.589,0,0,0,1.7-.009,10.213,10.213,0,0,0,3.322-.86,9.686,9.686,0,0,0,4.621-4.486,12.912,12.912,0,0,0,1.382-5.547,24.374,24.374,0,0,0-.41-4.942,16.64,16.64,0,0,0-1.425-4.341c-.322-.654-.644-1.217-.973-1.783a10.743,10.743,0,0,0-1.25-1.633c-.827-.916-1.63-1.684-2.385-2.379l-.557-.5-.034-.03s-.02-.019,0,0l.054.065c-.371-.148,1.114.357-.734,1.514-.659-.1-.442-.151-.552-.167l-.054-.043-.012-.009-.006-.006.122.1a1.714,1.714,0,0,0,.169.136.778.778,0,0,1-.064-.127l-.04-.13a.811.811,0,0,1,.017-.45.9.9,0,0,1,.361-.476.833.833,0,0,1,.278-.113l.068-.013c.253-.013.224.013.256.015s-.008,0-.008,0a1.848,1.848,0,0,1-.234-.076l-.554-.229c-2.972-1.355-4.709-2.073-4.848-1.805-.126.244,1.274,1.4,4.089,3.24l.582.346a3.542,3.542,0,0,0,.374.184l.153.054a.975.975,0,0,0,.423.038l.089-.013a.978.978,0,0,0,.3-.124.927.927,0,0,0,.387-.505.982.982,0,0,0,.015-.493.86.86,0,0,0-.057-.169,1.291,1.291,0,0,0-.159-.269,4.372,4.372,0,0,0-.315-.364l-.134-.144-.071-.068-.035-.031L62,191.993c-.1-.01.118-.058-.536-.151-1.844,1.162-.353,1.673-.719,1.53l.07.081.029.032.03.033.478.549c.644.749,1.339,1.574,2.005,2.469a9.163,9.163,0,0,1,.854,1.334c.256.541.529,1.127.752,1.688a14.643,14.643,0,0,1,.935,3.724,22.963,22.963,0,0,1,.108,4.3,9.818,9.818,0,0,1-1.212,4.08,6.2,6.2,0,0,1-3.048,2.769,6.609,6.609,0,0,1-2.12.47,12.592,12.592,0,0,1-2.471-.2c-.976-.157-1.973-.3-3-.43a20.353,20.353,0,0,0-3.358-.195c-.662.038-1.06.1-1.452.091a7.005,7.005,0,0,0-1.062.091c-.333.051-.618.112-.893.174l-3.116.771a34.462,34.462,0,0,1-6,1.072,6.992,6.992,0,0,1-4.937-1.083,7.758,7.758,0,0,1-2.371-3.645,25.157,25.157,0,0,1-1.105-4.912,29.382,29.382,0,0,1-.262-4.951,18.668,18.668,0,0,1,.224-2.324,8.99,8.99,0,0,1,.221-1.009c.044-.124.089-.279.12-.333.006-.013.017-.046.017-.046l0,.011c-.075-.041-.192-.115-.283-.177-.416-.338-.644-.405-.835-.736l.087-2.35a3.231,3.231,0,0,1-.623-.236,2.74,2.74,0,0,1-.576-.38,1.916,1.916,0,0,1-.374-.431l0,0c.063-.036-.56.314-.294.164l0,0,.018-.012.037-.022.073-.039a.956.956,0,0,1,.147-.056c.045,0,.017-.023.021-.031-.021-.008-.009-.1-.025-.161a2.607,2.607,0,0,1,.357-1.229,1.538,1.538,0,0,1,.587-.645c.021-.031.018.008.024-.024l.011.006.008-.01.267.034a3.318,3.318,0,0,0,1.05-.011,3.8,3.8,0,0,0,.85-.208,8.671,8.671,0,0,0,2.354-1.331,21.455,21.455,0,0,0,3.239-3.14l-2.612-.118,2.643,3.492,1.525,2.014,1.094-2.177q.949-1.886,1.821-3.62l-1.522.716c5.319.883,9.617,1.675,12.548,2.259,2.958.552,4.464,1.049,4.611.823" fill="#1b155b"/><path d="M78.022,132.03a6.116,6.116,0,0,0-.735.206,12.84,12.84,0,0,0-1.4.814,36.072,36.072,0,0,1-5.3,2.7,29.823,29.823,0,0,1-3.832,1.27,19.7,19.7,0,0,1-2.093.418,7.581,7.581,0,0,1-2-.1,19.929,19.929,0,0,1-4.657-1.507c-.808-.356-1.624-.758-2.445-1.192l-1.241-.678-.723-.4-.178-.083-.111-.045c-.172-.037.328.06-.484-.116-1.125-.764-3.119,2.444-2.265,2.618a2.1,2.1,0,0,0,3.554.864l.084-.1.142-.186.14-.21.2-.305a15.057,15.057,0,0,1,7.512-6.168,13.117,13.117,0,0,1,4.261-.7,20.716,20.716,0,0,1,3.962.226c4.858.717,7.181,3.037,7.6,2.673.236-.159-.047-1.065-1.148-2.221a13.286,13.286,0,0,0-5.784-3.323,19.542,19.542,0,0,0-4.544-.811,15.333,15.333,0,0,0-5.474.486,17.693,17.693,0,0,0-9.867,7.544l-.211.324c-.019.072-.1.049-.023.132a3.556,3.556,0,0,0,.45.3l.223.137a5.206,5.206,0,0,1,.815.655c.067.082.077.014.134.061s-.026.078,0,.068a6.218,6.218,0,0,1-.321.838c-.144.354-.356.609-.555,1.059l.581.32,1.353.72c.911.464,1.83.892,2.762,1.271a21.26,21.26,0,0,0,5.762,1.557,10.582,10.582,0,0,0,3.055-.091,19.722,19.722,0,0,0,2.547-.736,25.074,25.074,0,0,0,4.125-1.934,19.047,19.047,0,0,0,5.06-4.121,7.879,7.879,0,0,0,1.014-1.555c.221-.509.176-.682.042-.682" fill="#1b155b"/><path d="M60.823,133.436a5.016,5.016,0,1,1,5.007,4.722,4.874,4.874,0,0,1-5.007-4.722Z" fill="#1b155b"/><path d="M30.908,134.979c-.243-.156-.8.208-1.887.682A20.34,20.34,0,0,1,24.29,137.1a32.132,32.132,0,0,1-3.426.446,14.666,14.666,0,0,1-3.693-.069,5.6,5.6,0,0,1-2.988-1.481A6.542,6.542,0,0,1,12.6,132.68a6.218,6.218,0,0,1-.092-.68l-.152.835c-.08.184-.031.081-.031.081,0-.016.046-.059.064-.09a2.133,2.133,0,0,1,.217-.234,3.825,3.825,0,0,1,.617-.479,7.99,7.99,0,0,1,1.662-.749,16.386,16.386,0,0,1,3.89-.637,16.8,16.8,0,0,1,6.716.765c3.612,1.306,4.9,3.729,5.416,3.487.26-.08.31-.877-.255-2.082a9.36,9.36,0,0,0-3.917-4.015,16.633,16.633,0,0,0-8.019-1.949,17.947,17.947,0,0,0-4.965.538,11.324,11.324,0,0,0-2.687,1.122,7.738,7.738,0,0,0-1.317.986,6.207,6.207,0,0,0-.62.663c-.1.136-.2.248-.3.41a3.678,3.678,0,0,0-.336.619l-.175.4.023.44a9.266,9.266,0,0,0,.154,1.316,10.168,10.168,0,0,0,2.825,5.489,9.18,9.18,0,0,0,5.312,2.369l1.3.079,1.222-.079a19.585,19.585,0,0,0,2.179-.31,24.122,24.122,0,0,0,3.759-1.036,12.739,12.739,0,0,0,4.886-2.964c.96-1,1.174-1.845.927-1.991" fill="#1b155b"/><path d="M16.291,134a3.779,3.779,0,0,1,3.878-3.666,3.672,3.672,0,1,1,0,7.332A3.778,3.778,0,0,1,16.291,134Z" fill="#1b155b"/><path d="M64.169,195.689c.086.05.2-.045.309-.434l.06-.212-.407-.1c-1.357-.318-5.639-.217-11.775-.234-6.131-.134-14.261-.471-23.222-.478H27.512l-.41,1.551-.752,2.84-.239.9.477.715.62.931a18.54,18.54,0,0,0,2.948,3.458,12.9,12.9,0,0,0,4.048,2.38,15.692,15.692,0,0,0,8.352.07l3.371-.767c.487-.1,1.152-.277,1.732-.429.571-.178,1.113-.37,1.642-.565a43.377,43.377,0,0,0,5.446-2.63c6.318-3.614,9.71-6.538,9.422-7-.315-.518-4.279,1.523-10.727,4.354a53.694,53.694,0,0,1-5.278,2.009c-.468.134-.945.266-1.419.383-.478.085-.883.181-1.5.273l-3.4.594a12.5,12.5,0,0,1-6.3-.151,9.166,9.166,0,0,1-2.641-1.625,15.3,15.3,0,0,1-2.25-2.694l-.516-.767.239,1.614q.369-1.435.733-2.844l-2.032,1.549c4.519-.023,8.815-.087,12.755-.184,3.949-.129,7.507-.149,10.652-.474,6.241-.614,10.451-1.551,11.716-2.164l-.348-.307a1.6,1.6,0,0,0,.31.434" fill="#1b155b"/><path d="M41.259,118.8l6.075,4.462,12.338-.818,15.49.818s9.024,1.2,12.392,3.223-1.347-9.429-8.89-10.237-30.46,0-30.46,0l-8.381,1.5,1.436,1.054Z" fill="#5860a1"/><path d="M41.259,118.8c.11-.15-.282-.662-1.117-1.488l-.224.965c1.742-.052,4.66-.334,8.5-.811l-.174.019,18.256.261c3.58.085,7.479.118,11.331.464a8.341,8.341,0,0,1,1.259.176,6.442,6.442,0,0,1,1.124.368,9.363,9.363,0,0,1,2.176,1.318,14.285,14.285,0,0,1,3.509,4.275,7.2,7.2,0,0,1,.643,1.576,1.316,1.316,0,0,1,.026.146,1.247,1.247,0,0,1,.3-.748,1.694,1.694,0,0,1,1.044-.65,1.374,1.374,0,0,1,.37-.033l.231.032c.185.054.152.051.071.012a20.07,20.07,0,0,0-4.618-1.755,67.158,67.158,0,0,0-8.542-1.618l-.092-.012-.065,0c-5.673-.221-10.9-.382-15.508-.48l-.149,0-.045,0c-4.893.479-9.067.944-12.3,1.373l.707.206c-4.043-2.58-6.479-3.913-6.711-3.6s1.768,2.242,5.439,5.328l.246.206h.461c3.262,0,7.461-.091,12.375-.262h-.194c4.589.388,9.808.779,15.472,1.156l-.156-.015a71.674,71.674,0,0,1,7.969,1.675,17.3,17.3,0,0,1,3.59,1.365,4.21,4.21,0,0,0,1.087.461,2.043,2.043,0,0,0,.5.076,2.764,2.764,0,0,0,.648-.036,2.466,2.466,0,0,0,1.5-.946,2.868,2.868,0,0,0,.533-1.821,4.933,4.933,0,0,0-.123-.967,10.92,10.92,0,0,0-1.024-2.624,18,18,0,0,0-4.625-5.57,13.267,13.267,0,0,0-3.19-1.868,10.506,10.506,0,0,0-1.812-.557,11.963,11.963,0,0,0-1.762-.225c-4.217-.293-8.053-.2-11.7-.139-7.271.175-13.528.56-18.334.973l-.151.013-.024.006c-3.771.884-6.6,1.631-8.258,2.186l-1.253.421,1.029.544c1.039.549,1.645.77,1.755.619" fill="#1b155b"/><circle cx="86.148" cy="173.461" r="1.769" fill="#1b155b"/><path d="M70.744,5.636c.206-.18-.523-1.347-2.568-2.392a17.034,17.034,0,0,0-9.4-1.439A38.06,38.06,0,0,0,45.507,5.957,44.123,44.123,0,0,0,31.854,16.142a46.428,46.428,0,0,0-8.57,14.7,59.482,59.482,0,0,0-3.128,13.369c-.9,7.749-.085,12.566.463,12.53.6-.012.848-4.72,2.445-12.045a74.426,74.426,0,0,1,3.8-12.465,47.99,47.99,0,0,1,8.122-13.341,45.011,45.011,0,0,1,12.3-9.533A41.206,41.206,0,0,1,59.183,4.726a19.13,19.13,0,0,1,8.411.033c1.966.476,2.946,1.1,3.15.877" fill="#1b155b"/><path d="M85.44,15.048c.187-.215-.532-1.169-2.323-2.151a18.52,18.52,0,0,0-8.3-1.994,34.244,34.244,0,0,0-12.379,2.16,52.3,52.3,0,0,0-6.741,2.95c-.566.295-1.143.565-1.712.891l-1.7,1.071-1.718,1.1c-.554.4-1.073.856-1.614,1.288a39.043,39.043,0,0,0-9.769,11.915A47.611,47.611,0,0,0,34.8,43.9c-1.584,6.881-1.169,11.3-.625,11.307.6.043,1.239-4.148,3.456-10.484a58.443,58.443,0,0,1,4.9-10.552A39.8,39.8,0,0,1,51.579,23.6,51.393,51.393,0,0,1,63.8,16.658a37.389,37.389,0,0,1,11.081-2.807,23.415,23.415,0,0,1,7.641.556c1.784.44,2.739.866,2.92.641" fill="#1b155b"/><path d="M100.136,24.46c.166-.233-.537-1.056-2.165-1.944A21.144,21.144,0,0,0,90.5,20.3a34.454,34.454,0,0,0-11.5.689,51.116,51.116,0,0,0-13.13,4.963,36.334,36.334,0,0,0-10.749,9.256A43.245,43.245,0,0,0,49.3,45.05c-2.517,5.984-2.829,10.049-2.285,10.159.574.144,1.883-3.515,4.926-8.849,3.02-5.254,8.028-12.355,15.96-16.765a58.3,58.3,0,0,1,12.006-4.869,39.186,39.186,0,0,1,10.408-1.479c6.04-.008,9.532,1.694,9.819,1.213" fill="#1b155b"/><path d="M114.831,33.872c.324-.488-2.875-2.895-8.935-3.953-6-1.119-14.711-.564-23.35,2.726A33.69,33.69,0,0,0,71.2,39.453a44.02,44.02,0,0,0-7,8.014c-3.378,5-4.489,8.62-3.983,8.856.525.268,2.522-2.753,6.313-7.048a58.564,58.564,0,0,1,7.152-6.886,34.534,34.534,0,0,1,10.3-5.828,54.956,54.956,0,0,1,21.583-3.713c5.659.247,9.007,1.525,9.27,1.024" fill="#1b155b"/><path d="M129.527,43.284c.253-.525-2.977-2.5-8.786-3.612a56.145,56.145,0,0,0-22.823.8c-1.1.283-2.144.465-3.245.833l-1.623.524q-.771.319-1.529.632a40.2,40.2,0,0,0-5.481,2.9,58.524,58.524,0,0,0-8.157,6.264c-4.285,3.946-6.382,6.91-5.977,7.3.417.413,3.211-1.764,7.823-5a96.933,96.933,0,0,1,8.265-5.254,44.938,44.938,0,0,1,5.092-2.436,33.432,33.432,0,0,1,5.763-1.7,76.009,76.009,0,0,1,21.52-1.944c5.567.318,8.937,1.211,9.158.687" fill="#1b155b"/><path d="M54.341,164.729c-.272.144.138,1.1.336,2.782a7.7,7.7,0,0,1-.287,2.912,4.969,4.969,0,0,1-2.139,2.734,3.071,3.071,0,0,1-1.662.383,2.931,2.931,0,0,0-.4-.089c-.131-.037-.248-.125-.376-.17-.135-.029-.238-.167-.36-.247l-.182-.13-.359-.276a7.09,7.09,0,0,0-3.581-1.492,10.939,10.939,0,0,0-3.849.253,24.7,24.7,0,0,0-6.951,3.038l-.789.477a4.681,4.681,0,0,1-.593.3,3.5,3.5,0,0,1-1.2.3,3.412,3.412,0,0,1-1.206-.126,3.587,3.587,0,0,1-.592-.222,3.806,3.806,0,0,1-.439-.247l-.166-.177-.609-.2a7.064,7.064,0,0,1-2.695-1.3,3.837,3.837,0,0,1-1.306-2.257c-.412-2.22.517-5.059,1.684-7.413l.464-.876a8.586,8.586,0,0,0,.552-1.011,7.417,7.417,0,0,0,.518-1.325l.331-1.128c.355-1.438.645-2.825.9-4.171.991-5.38,1.621-10.211,2.092-14.285.915-8.145,1.083-13.227.518-13.307s-1.775,4.85-3.43,12.84c-.838,3.989-1.77,8.762-2.941,13.965-.3,1.3-.622,2.609-.982,3.907a13.552,13.552,0,0,1-.56,1.585,5.622,5.622,0,0,1-.509.883c-.195.348-.4.694-.585,1.05a22.406,22.406,0,0,0-1.816,4.584,12.432,12.432,0,0,0-.334,5.479,7.989,7.989,0,0,0,2.713,4.644,10.929,10.929,0,0,0,4.406,2.125l-.775-.376a6.7,6.7,0,0,0,1.266.73,7.68,7.68,0,0,0,1.244.436,7.486,7.486,0,0,0,5.066-.473,8.633,8.633,0,0,0,1.058-.576l.778-.506a22.724,22.724,0,0,1,5.775-2.866c1.859-.544,3.5-.5,4.642.317l.663.421a3.9,3.9,0,0,0,.876.468,6.885,6.885,0,0,0,.945.3c.326.045.651.079.968.1A5.776,5.776,0,0,0,53.73,175.4a7,7,0,0,0,2.711-4.5,7.932,7.932,0,0,0-.345-3.718,6.464,6.464,0,0,0-1.1-1.964c-.328-.392-.548-.554-.659-.49" fill="#1b155b"/></g></g></svg>