<svg xmlns="http://www.w3.org/2000/svg" viewBox="0 0 25.5 25.5"><g style="isolation:isolate"><g style="mix-blend-mode:multiply"><path d="M17.933,25.5a1.752,1.752,0,0,1-1.75-1.75v-22a1.75,1.75,0,0,1,3.5,0v22A1.753,1.753,0,0,1,17.933,25.5Z" fill="#b2e7c4"/><path d="M17.933.75a1,1,0,0,0-1,1v22a1,1,0,0,0,2,0v-22A1,1,0,0,0,17.933.75Z" fill="#b2e7c4"/><path d="M7.567,25.5a1.752,1.752,0,0,1-1.75-1.75v-22a1.75,1.75,0,0,1,3.5,0v22A1.752,1.752,0,0,1,7.567,25.5Z" fill="#b2e7c4"/><path d="M7.567.75a1,1,0,0,0-1,1v22a1,1,0,0,0,2,0v-22A1,1,0,0,0,7.567.75Z" fill="#b2e7c4"/><path d="M1.75,19.628a1.75,1.75,0,0,1,0-3.5h22a1.75,1.75,0,0,1,0,3.5Z" fill="#b2e7c4"/><path d="M23.75,16.878h-22a1,1,0,0,0,0,2h22a1,1,0,0,0,0-2Z" fill="#b2e7c4"/><path d="M1.75,9.372a1.75,1.75,0,0,1,0-3.5h22a1.75,1.75,0,0,1,0,3.5Z" fill="#b2e7c4"/><path d="M23.75,6.622h-22a1,1,0,0,0,0,2h22a1,1,0,0,0,0-2Z" fill="#b2e7c4"/></g></g></svg>