<?xml version="1.0" encoding="utf-8"?>
<!-- Generator: Adobe Illustrator 24.0.3, SVG Export Plug-In . SVG Version: 6.00 Build 0)  -->
<svg version="1.1" id="Layer_1" xmlns="http://www.w3.org/2000/svg" xmlns:xlink="http://www.w3.org/1999/xlink" x="0px" y="0px"
	 viewBox="0 0 512 512" style="enable-background:new 0 0 512 512;" xml:space="preserve">
<g>
	<path d="M275.2,230.9v-0.8c-0.2,0.3-0.3,0.5-0.5,0.8H275.2z"/>
	<path d="M472.8,0H39.2C18.4,0,1.6,16.4,1.6,36.7v438.7c0,20.2,16.8,36.7,37.6,36.7h433.6c20.8,0,37.6-16.4,37.6-36.7V36.7
		C510.4,16.4,493.5,0,472.8,0z M155.8,428.6H79V197.4h76.8V428.6z M117.4,165.8h-0.5c-25.8,0-42.5-17.8-42.5-39.9
		c0-22.7,17.2-39.9,43.5-39.9c26.3,0,42.5,17.3,43,39.9C160.9,148.1,144.2,165.8,117.4,165.8z M432.9,428.6h-76.8V304.9
		c0-31.1-11.1-52.3-38.9-52.3c-21.2,0-33.9,14.3-39.4,28.1c-2,4.9-2.5,11.8-2.5,18.7v129.1h-76.8c0,0,1-209.5,0-231.2h76.8v32.7
		c10.2-15.7,28.5-38.2,69.3-38.2c50.6,0,88.5,33.1,88.5,104.1L432.9,428.6L432.9,428.6z"/>
</g>
</svg>
